<svg width="21" height="20" viewBox="0 0 21 20" fill="none" xmlns="http://www.w3.org/2000/svg">
<g clip-path="url(#clip0_193_571)">
<path d="M14.3489 0C14.3954 0 14.442 0 14.4912 0C14.6053 1.41044 14.067 2.46432 13.4127 3.22751C12.7707 3.98542 11.8916 4.7205 10.4697 4.60897C10.3749 3.21872 10.9141 2.24301 11.5675 1.48158C12.1735 0.771967 13.2845 0.140517 14.3489 0Z" fill="black"/>
<path d="M18.6531 14.6805C18.6531 14.6945 18.6531 14.7068 18.6531 14.72C18.2535 15.9302 17.6835 16.9674 16.9879 17.9299C16.353 18.8038 15.5748 19.9797 14.1855 19.9797C12.9849 19.9797 12.1875 19.2078 10.9571 19.1867C9.65555 19.1656 8.9398 19.8322 7.74979 19.9999C7.61366 19.9999 7.47754 19.9999 7.34405 19.9999C6.4702 19.8735 5.76498 19.1814 5.25122 18.5579C3.73626 16.7153 2.56558 14.3353 2.34778 11.2896C2.34778 10.991 2.34778 10.6933 2.34778 10.3947C2.43999 8.21493 3.49914 6.44266 4.90695 5.58374C5.64993 5.12706 6.67132 4.73801 7.80863 4.9119C8.29605 4.98742 8.79401 5.15429 9.23049 5.3194C9.64414 5.47836 10.1614 5.76027 10.6515 5.74534C10.9834 5.73568 11.3137 5.56267 11.6483 5.44059C12.6284 5.08667 13.5892 4.68092 14.8556 4.8715C16.3776 5.10159 17.4578 5.77783 18.1252 6.82118C16.8377 7.64057 15.8199 8.87536 15.9938 10.984C16.1483 12.8994 17.2619 14.0201 18.6531 14.6805Z" fill="black"/>
</g>
<defs>
<clipPath id="clip0_193_571">
<rect width="20" height="20" fill="white" transform="translate(0.5)"/>
</clipPath>
</defs>
</svg>
