<svg width="26" height="11" viewBox="0 0 26 11" fill="none" xmlns="http://www.w3.org/2000/svg">
<path d="M1 6.15C0.641015 6.15 0.35 5.85899 0.35 5.5C0.35 5.14101 0.641015 4.85 1 4.85L1 6.15ZM25.4596 5.04038C25.7135 5.29422 25.7135 5.70578 25.4596 5.95962L21.323 10.0962C21.0692 10.35 20.6576 10.35 20.4038 10.0962C20.15 9.84235 20.15 9.4308 20.4038 9.17696L24.0808 5.5L20.4038 1.82304C20.15 1.5692 20.15 1.15765 20.4038 0.903806C20.6576 0.649965 21.0692 0.649965 21.323 0.903806L25.4596 5.04038ZM1 4.85L25 4.85V6.15L1 6.15L1 4.85Z" fill="#121212"/>
</svg>
