<svg width="384" height="512" viewBox="0 0 384 512" fill="none" xmlns="http://www.w3.org/2000/svg">
<g clip-path="url(#clip0_550_2)">
<path d="M214.6 41.3999C202.1 28.8999 181.8 28.8999 169.3 41.3999L9.2998 201.4C-3.2002 213.9 -3.2002 234.2 9.2998 246.7C21.7998 259.2 42.0998 259.2 54.5998 246.7L160 141.2V448C160 465.7 174.3 480 192 480C209.7 480 224 465.7 224 448V141.3L329.4 246.6C341.9 259.1 362.2 259.1 374.7 246.6C387.2 234.1 387.2 213.8 374.7 201.3L214.7 41.2999L214.6 41.3999Z" fill="white"/>
</g>
<defs>
<clipPath id="clip0_550_2">
<rect width="384" height="512" fill="white"/>
</clipPath>
</defs>
</svg>
