<svg width="12" height="14" viewBox="0 0 12 14" fill="none" xmlns="http://www.w3.org/2000/svg">
<g clip-path="url(#clip0_275_491)">
<path d="M5.50278 0.150439C5.80356 -0.0491699 6.19731 -0.0491699 6.49809 0.150439L6.98481 0.470361C7.14888 0.577002 7.34028 0.628955 7.53442 0.618018L8.11684 0.582471C8.47778 0.560596 8.81684 0.757471 8.97817 1.08013L9.24067 1.60239C9.32817 1.77739 9.47036 1.91685 9.64263 2.00435L10.1704 2.26958C10.493 2.43091 10.6899 2.76997 10.668 3.13091L10.6325 3.71333C10.6215 3.90747 10.6735 4.10161 10.7801 4.26294L11.1028 4.74966C11.3024 5.05044 11.3024 5.44419 11.1028 5.74497L10.7801 6.23442C10.6735 6.39849 10.6215 6.58989 10.6325 6.78403L10.668 7.36646C10.6899 7.72739 10.493 8.06645 10.1704 8.22778L9.64809 8.49028C9.47309 8.57778 9.33364 8.71997 9.24614 8.89224L8.98091 9.41997C8.81958 9.74263 8.48052 9.9395 8.11958 9.91763L7.53716 9.88208C7.34302 9.87114 7.14888 9.9231 6.98755 10.0297L6.50083 10.3524C6.20005 10.552 5.8063 10.552 5.50552 10.3524L5.01606 10.0297C4.852 9.9231 4.66059 9.87114 4.46645 9.88208L3.88403 9.91763C3.52309 9.9395 3.18403 9.74263 3.0227 9.41997L2.7602 8.89771C2.6727 8.7227 2.53052 8.58325 2.35825 8.49575L1.83052 8.23052C1.50786 8.06919 1.31098 7.73013 1.33286 7.36919L1.36841 6.78677C1.37934 6.59263 1.32739 6.39849 1.22075 6.23716L0.900828 5.7477C0.701219 5.44692 0.701219 5.05317 0.900828 4.75239L1.22075 4.26567C1.32739 4.10161 1.37934 3.91021 1.36841 3.71606L1.33286 3.13364C1.31098 2.77271 1.50786 2.43364 1.83052 2.27231L2.35278 2.00981C2.52778 1.91958 2.66997 1.77739 2.75747 1.60239L3.01997 1.08013C3.1813 0.757471 3.52036 0.560596 3.8813 0.582471L4.46372 0.618018C4.65786 0.628955 4.852 0.577002 5.01333 0.470361L5.50278 0.150439ZM8.18794 5.25005C8.18794 4.66989 7.95747 4.11349 7.54723 3.70325C7.137 3.29302 6.5806 3.06255 6.00044 3.06255C5.42028 3.06255 4.86388 3.29302 4.45364 3.70325C4.04341 4.11349 3.81294 4.66989 3.81294 5.25005C3.81294 5.83021 4.04341 6.38661 4.45364 6.79684C4.86388 7.20708 5.42028 7.43755 6.00044 7.43755C6.5806 7.43755 7.137 7.20708 7.54723 6.79684C7.95747 6.38661 8.18794 5.83021 8.18794 5.25005ZM0.785985 12.0805L1.9645 9.27778C1.96997 9.28052 1.9727 9.28325 1.97544 9.28872L2.23794 9.81099C2.55786 10.4454 3.22231 10.8309 3.93325 10.7899L4.51567 10.7543C4.52114 10.7543 4.52934 10.7543 4.53481 10.7598L5.02153 11.0825C5.16098 11.1727 5.30864 11.2438 5.46177 11.293L4.43364 13.7348C4.37075 13.8852 4.2313 13.9864 4.06997 14C3.90864 14.0137 3.75278 13.9399 3.66528 13.8032L2.78481 12.4551L1.25083 12.6821C1.09497 12.704 0.93911 12.6411 0.840672 12.518C0.742235 12.395 0.723094 12.2254 0.78325 12.0805H0.785985ZM7.56723 13.7321L6.53911 11.293C6.69223 11.2438 6.83989 11.1754 6.97934 11.0825L7.46606 10.7598C7.47153 10.7571 7.477 10.7543 7.4852 10.7543L8.06763 10.7899C8.77856 10.8309 9.44302 10.4454 9.76294 9.81099L10.0254 9.28872C10.0282 9.28325 10.0309 9.28052 10.0364 9.27778L11.2176 12.0805C11.2778 12.2254 11.2559 12.3922 11.1602 12.518C11.0645 12.6438 10.9059 12.7067 10.75 12.6821L9.21606 12.4551L8.33559 13.8004C8.24809 13.9372 8.09224 14.011 7.93091 13.9973C7.76958 13.9836 7.63013 13.8797 7.56723 13.7321Z" fill="#595CFF"/>
</g>
<defs>
<clipPath id="clip0_275_491">
<rect width="10.5" height="14" fill="white" transform="translate(0.75)"/>
</clipPath>
</defs>
</svg>
