<svg width="20" height="20" viewBox="0 0 20 20" fill="none" xmlns="http://www.w3.org/2000/svg">
<g clip-path="url(#clip0_94_5755)">
<path d="M1.55974 3.5863C1.6171 3.58536 1.6171 3.58536 1.67561 3.5844C1.85115 3.58264 2.02668 3.58105 2.20223 3.58016C2.29433 3.57951 2.38641 3.57845 2.47849 3.57695C3.20683 3.56518 3.73923 3.59842 4.28543 4.12713C4.57857 4.44252 4.69179 4.84074 4.79492 5.2491C4.81267 5.31716 4.81267 5.31716 4.83078 5.38659C4.87511 5.557 4.91823 5.72769 4.96094 5.89852C12.4053 5.91785 12.4053 5.91785 20 5.93758C19.9561 6.2452 19.9561 6.2452 19.921 6.36811C19.9131 6.39619 19.9052 6.42428 19.897 6.45321C19.8841 6.49817 19.8841 6.49817 19.8708 6.54404C19.8616 6.57658 19.8524 6.60911 19.8429 6.64264C19.8121 6.75121 19.781 6.85971 19.7499 6.96821C19.7277 7.04626 19.7055 7.12432 19.6833 7.20238C19.623 7.41433 19.5625 7.62621 19.5019 7.83808C19.4383 8.06076 19.3748 8.28349 19.3114 8.50621C19.2045 8.88102 19.0976 9.25579 18.9905 9.63054C18.8674 10.0613 18.7445 10.4922 18.6218 10.923C18.5032 11.3394 18.3844 11.7558 18.2656 12.1721C18.2153 12.3482 18.1651 12.5243 18.1149 12.7004C18.0554 12.9092 17.9958 13.118 17.9361 13.3267C17.9145 13.4024 17.8929 13.4782 17.8713 13.5539C17.7036 14.1427 17.5255 14.728 17.3438 15.3126C17.3209 15.3126 17.298 15.3127 17.2744 15.3127C15.9188 15.3159 14.5631 15.3194 13.2075 15.3235C13.0447 15.324 12.8819 15.3245 12.7191 15.325C12.6867 15.3251 12.6543 15.3252 12.6209 15.3253C12.0962 15.3268 11.5715 15.3281 11.0468 15.3293C10.5084 15.3305 9.97002 15.332 9.43163 15.3338C9.09941 15.3349 8.76718 15.3357 8.43496 15.3363C8.20715 15.3367 7.97934 15.3374 7.75154 15.3383C7.6201 15.3389 7.48866 15.3392 7.35722 15.3393C7.21465 15.3394 7.07209 15.34 6.92952 15.3408C6.88806 15.3407 6.84661 15.3406 6.80389 15.3405C6.42233 15.3432 6.42233 15.3432 6.09863 15.5274C5.96349 15.6864 5.96553 15.7938 5.96817 15.9971C5.97917 16.1239 6.00971 16.1935 6.09375 16.2891C6.33508 16.467 6.58792 16.451 6.87519 16.4503C6.91487 16.4503 6.95456 16.4504 6.99545 16.4504C7.12861 16.4506 7.26178 16.4504 7.39494 16.4503C7.49036 16.4504 7.58578 16.4504 7.68119 16.4505C7.86017 16.4507 8.03915 16.4508 8.21813 16.4508C8.57015 16.4508 8.92216 16.4513 9.27418 16.4519C9.32966 16.452 9.38514 16.4521 9.44061 16.4522C9.52469 16.4524 9.60877 16.4526 9.69284 16.4527C10.0097 16.4533 10.3266 16.4538 10.6435 16.4543C10.6725 16.4543 10.7015 16.4544 10.7313 16.4544C11.2 16.4551 11.6687 16.4552 12.1375 16.4552C12.6193 16.4551 13.1011 16.4558 13.5829 16.4572C13.8797 16.458 14.1765 16.4582 14.4733 16.4576C14.7013 16.4572 14.9292 16.4579 15.1571 16.4589C15.2502 16.4592 15.3433 16.4591 15.4365 16.4587C16.1395 16.4557 16.6441 16.5129 17.1747 17.015C17.563 17.4263 17.6394 17.8932 17.6305 18.4321C17.6092 18.914 17.3672 19.2927 17.0239 19.6168C16.5566 19.997 16.0474 20.052 15.4688 20.0001C15.0265 19.9011 14.6298 19.6351 14.375 19.2579C14.2273 18.9945 14.0968 18.7582 14.0964 18.4522C14.0963 18.4182 14.0963 18.3842 14.0962 18.3491C14.0964 18.3138 14.0965 18.2786 14.0967 18.2423C14.0965 18.207 14.0964 18.1718 14.0962 18.1355C14.0963 18.0844 14.0963 18.0844 14.0964 18.0323C14.0964 18.0014 14.0965 17.9705 14.0965 17.9386C14.1016 17.8516 14.1016 17.8516 14.1406 17.6954C12.9547 17.6954 11.7688 17.6954 10.5469 17.6954C10.5598 17.747 10.5727 17.7985 10.5859 17.8516C10.6366 18.3988 10.5923 18.8788 10.2588 19.3336C9.97559 19.6659 9.58738 19.966 9.13735 20.0076C8.5692 20.0282 8.10436 19.9861 7.6532 19.6017C7.36381 19.3305 7.08908 18.9559 7.06526 18.5459C7.06519 18.4995 7.06519 18.4995 7.06512 18.4522C7.06507 18.4182 7.06502 18.3842 7.06497 18.3491C7.06512 18.3138 7.06527 18.2786 7.06543 18.2423C7.06528 18.207 7.06513 18.1718 7.06497 18.1355C7.06505 18.0844 7.06505 18.0844 7.06512 18.0323C7.06517 18.0014 7.06521 17.9705 7.06526 17.9386C7.07024 17.8528 7.08569 17.7778 7.10938 17.6954C7.08127 17.6952 7.05316 17.6951 7.0242 17.6949C6.27763 17.6874 5.73204 17.6585 5.16907 17.1258C4.77706 16.7105 4.70761 16.2459 4.71588 15.7034C4.73214 15.27 4.93389 14.9121 5.23651 14.6066C5.58051 14.297 5.58051 14.297 5.74219 14.297C5.73644 14.274 5.73069 14.2511 5.72477 14.2275C5.37366 12.8281 5.02525 11.4281 4.67877 10.0275C4.64843 9.90482 4.61807 9.78215 4.58772 9.65949C4.39378 8.87561 4.20003 8.09169 4.00764 7.30743C3.98521 7.21596 3.96276 7.1245 3.94031 7.03304C3.87946 6.78511 3.81863 6.53718 3.75808 6.28918C3.72876 6.16916 3.69931 6.04918 3.66989 5.92919C3.65476 5.86696 3.65476 5.86696 3.63932 5.80348C3.54325 5.28463 3.54325 5.28463 3.24219 4.88289C3.05264 4.81766 2.88666 4.79476 2.68677 4.79439C2.66092 4.79432 2.63508 4.79424 2.60846 4.79417C2.55423 4.79411 2.5 4.79426 2.44577 4.79458C2.36349 4.795 2.28123 4.79459 2.19894 4.79409C2.14589 4.79414 2.09284 4.79424 2.03979 4.79439C1.99224 4.79448 1.94468 4.79457 1.89568 4.79466C1.69372 4.80947 1.53547 4.84315 1.37451 4.96834C1.26634 5.09331 1.26634 5.09331 1.21094 5.35164C0.811328 5.35164 0.411719 5.35164 0 5.35164C0 4.79559 0.152932 4.4354 0.530548 4.03634C0.805259 3.777 1.18043 3.59198 1.55974 3.5863ZM5.23438 7.10946C5.36968 7.71838 5.36968 7.71838 5.51544 8.32464C5.52643 8.36878 5.52643 8.36878 5.53766 8.41382C5.54523 8.44422 5.5528 8.47462 5.56061 8.50594C5.57688 8.57154 5.59314 8.63714 5.60939 8.70274C5.64387 8.84182 5.67838 8.9809 5.71293 9.11996C5.80459 9.48886 5.89594 9.85784 5.98724 10.2268C5.99653 10.2643 6.00581 10.3018 6.01537 10.3405C6.23969 11.247 6.46031 12.1545 6.68003 13.0622C6.70845 13.1795 6.7369 13.2969 6.76536 13.4143C6.78474 13.4943 6.80407 13.5743 6.82338 13.6543C6.83484 13.7016 6.8463 13.7489 6.8581 13.7976C6.86803 13.8386 6.87796 13.8797 6.88819 13.922C6.90697 13.9957 6.92908 14.0686 6.95312 14.1407C10.0727 14.1407 13.1922 14.1407 16.4062 14.1407C16.4818 13.9392 16.5499 13.7479 16.6087 13.5425C16.6165 13.5156 16.6242 13.4886 16.6322 13.4609C16.6579 13.3715 16.6834 13.2822 16.7089 13.1928C16.7273 13.1283 16.7458 13.0639 16.7643 12.9995C16.8143 12.8252 16.8641 12.6508 16.9139 12.4765C16.9555 12.3309 16.9972 12.1852 17.0389 12.0396C17.1372 11.6963 17.2353 11.3528 17.3334 11.0094C17.4345 10.655 17.536 10.3007 17.6375 9.94646C17.7247 9.64209 17.8118 9.33768 17.8988 9.03323C17.9507 8.85147 18.0026 8.66972 18.0548 8.48802C18.1037 8.31737 18.1525 8.14667 18.2011 7.97592C18.219 7.91323 18.2369 7.85055 18.2549 7.7879C18.2795 7.7025 18.3038 7.61703 18.328 7.53153C18.3417 7.48369 18.3554 7.43584 18.3695 7.38655C18.4045 7.26109 18.4045 7.26109 18.3984 7.10946C14.0543 7.10946 9.71016 7.10946 5.23438 7.10946ZM8.3252 17.9347C8.25919 18.1033 8.25548 18.2589 8.28125 18.4376C8.36574 18.6097 8.453 18.7188 8.63281 18.7891C8.82981 18.8159 8.97776 18.8116 9.15771 18.7232C9.28893 18.6048 9.36303 18.5258 9.38736 18.3465C9.39774 18.1231 9.37377 17.9844 9.21875 17.8126C9.06886 17.6803 8.92055 17.6754 8.72803 17.6817C8.54589 17.7079 8.44328 17.8008 8.3252 17.9347ZM15.3564 17.9347C15.2904 18.1033 15.2867 18.2589 15.3125 18.4376C15.397 18.6097 15.4843 18.7188 15.6641 18.7891C15.8611 18.8159 16.009 18.8116 16.189 18.7232C16.3202 18.6048 16.3943 18.5258 16.4186 18.3465C16.429 18.1231 16.405 17.9844 16.25 17.8126C16.1001 17.6803 15.9518 17.6754 15.7593 17.6817C15.5771 17.7079 15.4745 17.8008 15.3564 17.9347Z" fill="#121212"/>
<path d="M15.8594 1.44531C15.997 1.5101 16.0859 1.58463 16.1932 1.69342C16.2427 1.74327 16.2427 1.74327 16.2932 1.79413C16.3443 1.84624 16.3443 1.84624 16.3965 1.89941C16.4312 1.93446 16.4659 1.96951 16.5016 2.00562C16.5872 2.09211 16.6726 2.17879 16.7578 2.26562C16.7008 2.39687 16.6286 2.4825 16.5274 2.58305C16.4961 2.61432 16.4648 2.64559 16.4326 2.67781C16.3988 2.71118 16.3651 2.74455 16.3303 2.77893C16.2957 2.81339 16.2611 2.84785 16.2255 2.88336C16.1338 2.97469 16.042 3.06584 15.95 3.15692C15.8561 3.25 15.7625 3.3433 15.6688 3.43658C15.4851 3.61939 15.3012 3.80197 15.1172 3.98438C14.9796 3.91959 14.8907 3.84506 14.7833 3.73627C14.7503 3.70303 14.7174 3.6698 14.6834 3.63556C14.6493 3.60081 14.6152 3.56607 14.5801 3.53027C14.528 3.4777 14.528 3.4777 14.4749 3.42407C14.3894 3.33758 14.304 3.2509 14.2188 3.16406C14.2757 3.03281 14.348 2.94719 14.4492 2.84664C14.4961 2.79974 14.4961 2.79974 14.544 2.75188C14.5777 2.71851 14.6115 2.68514 14.6463 2.65076C14.6809 2.6163 14.7154 2.58184 14.7511 2.54633C14.8428 2.455 14.9346 2.36385 15.0266 2.27277C15.1204 2.17969 15.2141 2.08639 15.3078 1.9931C15.4914 1.8103 15.6753 1.62772 15.8594 1.44531Z" fill="#121212"/>
<path d="M7.57812 1.44531C7.70937 1.50229 7.795 1.57456 7.89555 1.67574C7.92682 1.70702 7.95809 1.73829 7.99031 1.77052C8.02368 1.80429 8.05705 1.83807 8.09143 1.87286C8.12589 1.90743 8.16035 1.94201 8.19586 1.97762C8.28719 2.06932 8.37834 2.16117 8.46942 2.25312C8.5625 2.347 8.6558 2.44066 8.74908 2.53433C8.93189 2.718 9.11447 2.90188 9.29688 3.08594C9.23209 3.22357 9.15756 3.31246 9.04877 3.4198C9.01553 3.45278 8.9823 3.48576 8.94806 3.51974C8.91331 3.55383 8.87857 3.58792 8.84277 3.62305C8.80773 3.65774 8.77268 3.69243 8.73657 3.72818C8.65008 3.81376 8.5634 3.89915 8.47656 3.98438C8.34531 3.9274 8.25969 3.85513 8.15914 3.75395C8.12787 3.72267 8.0966 3.6914 8.06438 3.65917C8.03101 3.6254 7.99764 3.59162 7.96326 3.55682C7.9288 3.52225 7.89434 3.48768 7.85883 3.45206C7.7675 3.36037 7.67635 3.26851 7.58527 3.17657C7.49219 3.08269 7.39889 2.98903 7.3056 2.89536C7.1228 2.71169 6.94022 2.52781 6.75781 2.34375C6.8226 2.20612 6.89713 2.11723 7.00592 2.00989C7.03915 1.97691 7.07239 1.94392 7.10663 1.90994C7.14137 1.87585 7.17612 1.84176 7.21191 1.80664C7.24696 1.77195 7.28201 1.73725 7.31812 1.70151C7.40461 1.61593 7.49129 1.53054 7.57812 1.44531Z" fill="#121212"/>
<path d="M11.1719 0C11.5586 0 11.9453 0 12.3438 0C12.3438 0.773438 12.3438 1.54688 12.3438 2.34375C11.957 2.34375 11.5703 2.34375 11.1719 2.34375C11.1719 1.57031 11.1719 0.796875 11.1719 0Z" fill="#121212"/>
</g>
<defs>
<clipPath id="clip0_94_5755">
<rect width="20" height="20" fill="white"/>
</clipPath>
</defs>
</svg>
