<svg width="12" height="15" viewBox="0 0 12 15" fill="none" xmlns="http://www.w3.org/2000/svg">
<path d="M3.62143 0.983984C3.76607 0.685938 4.06339 0.5 4.3875 0.5H7.6125C7.93661 0.5 8.23393 0.685938 8.37857 0.983984L8.57143 1.375H11.1429C11.617 1.375 12 1.76602 12 2.25C12 2.73398 11.617 3.125 11.1429 3.125H0.857143C0.383036 3.125 0 2.73398 0 2.25C0 1.76602 0.383036 1.375 0.857143 1.375H3.42857L3.62143 0.983984ZM0.857143 4H11.1429V12.75C11.1429 13.7152 10.3741 14.5 9.42857 14.5H2.57143C1.62589 14.5 0.857143 13.7152 0.857143 12.75V4ZM3.42857 5.75C3.19286 5.75 3 5.94688 3 6.1875V12.3125C3 12.5531 3.19286 12.75 3.42857 12.75C3.66429 12.75 3.85714 12.5531 3.85714 12.3125V6.1875C3.85714 5.94688 3.66429 5.75 3.42857 5.75ZM6 5.75C5.76429 5.75 5.57143 5.94688 5.57143 6.1875V12.3125C5.57143 12.5531 5.76429 12.75 6 12.75C6.23571 12.75 6.42857 12.5531 6.42857 12.3125V6.1875C6.42857 5.94688 6.23571 5.75 6 5.75ZM8.57143 5.75C8.33571 5.75 8.14286 5.94688 8.14286 6.1875V12.3125C8.14286 12.5531 8.33571 12.75 8.57143 12.75C8.80714 12.75 9 12.5531 9 12.3125V6.1875C9 5.94688 8.80714 5.75 8.57143 5.75Z" fill="#D02D38"/>
</svg>
