<svg width="14" height="15" viewBox="0 0 14 15" fill="none" xmlns="http://www.w3.org/2000/svg">
<g clip-path="url(#clip0_294_167)">
<path d="M6.08029 2.23539C6.43768 2.57051 6.71426 2.96868 6.94537 3.39846C6.96342 3.39846 6.98146 3.39846 7.00006 3.39846C7.01299 3.37463 7.02593 3.35081 7.03926 3.32626C7.52316 2.44877 8.27895 1.70237 9.25207 1.40215C10.2134 1.14015 11.1817 1.25397 12.0518 1.74299C12.3168 1.89814 12.5469 2.09427 12.7696 2.30471C12.8054 2.33739 12.8054 2.33739 12.8419 2.37072C13.0631 2.58022 13.2305 2.81745 13.3985 3.07034C13.4148 3.0942 13.4311 3.11806 13.4479 3.14265C13.6766 3.4964 13.8189 3.92103 13.918 4.32815C13.9225 4.3458 13.927 4.36346 13.9316 4.38165C14.2055 5.50913 13.8988 6.73431 13.3107 7.70681C13.2025 7.88122 13.0853 8.04772 12.961 8.21096C12.9493 8.22641 12.9376 8.24186 12.9256 8.25777C12.6774 8.58416 12.4158 8.906 12.1187 9.18925C12.0665 9.24212 12.0186 9.29624 11.9703 9.35267C11.8663 9.47254 11.7531 9.58005 11.6365 9.68752C11.4996 9.81446 11.3646 9.94255 11.2336 10.0757C11.1662 10.1423 11.095 10.2041 11.0232 10.2659C10.9574 10.3229 10.8928 10.3811 10.8282 10.4395C10.636 10.6128 10.4404 10.7819 10.2437 10.9501C10.1237 11.0529 10.0041 11.1562 9.88482 11.2598C9.70528 11.4156 9.52498 11.5705 9.34434 11.7251C9.2647 11.7932 9.18511 11.8615 9.10553 11.9297C9.07363 11.9571 9.04172 11.9844 9.00982 12.0117C8.99403 12.0253 8.97824 12.0388 8.96197 12.0528C8.308 12.6133 7.65403 13.1739 7.00006 13.7344C6.88981 13.6885 6.80676 13.6122 6.71807 13.5344C6.70135 13.5199 6.68462 13.5054 6.66739 13.4905C6.63198 13.4598 6.59662 13.429 6.5613 13.3982C6.50963 13.3531 6.45783 13.3082 6.40597 13.2634C6.28582 13.1594 6.16585 13.0553 6.04588 12.9511C5.81531 12.751 5.58415 12.5516 5.35216 12.3531C5.27251 12.2849 5.19293 12.2167 5.11334 12.1485C5.08144 12.1211 5.04954 12.0938 5.01763 12.0664C4.82623 11.9024 4.63482 11.7383 4.44342 11.5742C4.42762 11.5607 4.41183 11.5472 4.39555 11.5332C4.36369 11.5059 4.33183 11.4786 4.29998 11.4513C4.21969 11.3824 4.1393 11.3136 4.05868 11.2452C3.87521 11.089 3.6953 10.93 3.51843 10.7664C3.44045 10.6947 3.36111 10.6249 3.28109 10.5555C3.19315 10.4786 3.10672 10.4 3.02005 10.3217C2.96073 10.2685 2.90075 10.2163 2.84039 10.1643C2.74573 10.082 2.65791 9.99433 2.56994 9.90499C2.5193 9.85514 2.46723 9.80877 2.41314 9.76272C2.20381 9.58229 2.00797 9.38315 1.8291 9.17259C1.77505 9.11061 1.71896 9.05079 1.66257 8.99096C1.47836 8.79486 1.31052 8.58969 1.14849 8.37502C1.13569 8.35816 1.12289 8.3413 1.10969 8.32393C0.427136 7.42199 -0.0058331 6.43402 -0.00678003 5.2886C-0.00679848 5.26853 -0.00681693 5.24846 -0.00683594 5.22779C-0.00637646 4.91273 0.00771993 4.60807 0.0820872 4.3008C0.0867795 4.28126 0.0914719 4.26172 0.0963065 4.24159C0.271853 3.53799 0.623781 2.91211 1.12115 2.38674C1.14357 2.36256 1.16598 2.33838 1.18908 2.31347C2.52989 0.913158 4.68754 0.966292 6.08029 2.23539ZM1.5998 3.10438C1.27306 3.4854 1.05518 3.95496 0.929744 4.43752C0.921002 4.46918 0.912261 4.50083 0.903254 4.53344C0.680239 5.48952 0.930929 6.45585 1.42193 7.28127C1.76318 7.82949 2.18919 8.33665 2.6524 8.78518C2.74601 8.87853 2.83921 8.97228 2.93235 9.06609C2.9736 9.10754 3.01485 9.14897 3.05611 9.1904C3.08421 9.21863 3.11229 9.24689 3.14034 9.27518C3.30087 9.43703 3.46338 9.59403 3.63678 9.74221C3.68533 9.7865 3.73377 9.83092 3.78204 9.87551C3.88051 9.96545 3.98057 10.0517 4.08453 10.1353C4.19946 10.2279 4.30839 10.325 4.41607 10.4258C4.54747 10.5488 4.68272 10.6645 4.82313 10.7773C4.89455 10.8359 4.96305 10.8968 5.03131 10.959C5.12475 11.0442 5.22012 11.1256 5.31842 11.2051C5.44044 11.3038 5.55705 11.407 5.67303 11.5127C5.74466 11.5764 5.81813 11.637 5.89263 11.6973C6.01466 11.796 6.13127 11.8992 6.24725 12.0049C6.34293 12.09 6.44248 12.1698 6.54216 12.2501C6.64205 12.3331 6.73657 12.4214 6.83076 12.5108C6.90686 12.5723 6.90686 12.5723 7.00006 12.586C7.06595 12.5472 7.06595 12.5472 7.13165 12.4868C7.15815 12.4641 7.18466 12.4414 7.21197 12.4179C7.2416 12.3919 7.27122 12.3659 7.30084 12.3399C7.33328 12.3118 7.36575 12.2838 7.39825 12.2558C7.46776 12.1958 7.5371 12.1357 7.60632 12.0754C7.70518 11.9893 7.80453 11.9039 7.90411 11.8186C7.91979 11.8052 7.93547 11.7918 7.95162 11.778C7.98321 11.7509 8.0148 11.7239 8.0464 11.6968C8.11006 11.6424 8.17369 11.5878 8.23731 11.5333C8.28514 11.4923 8.33297 11.4513 8.38081 11.4103C8.44499 11.3553 8.50915 11.3002 8.57328 11.2452C8.72748 11.1128 8.88192 10.9808 9.03717 10.8496C9.39208 10.5506 9.39208 10.5506 9.73956 10.2429C9.82724 10.1632 9.91685 10.0877 10.0096 10.0139C10.1699 9.88446 10.3186 9.74359 10.4675 9.60132C10.4863 9.58345 10.505 9.56558 10.5243 9.54717C10.5489 9.52353 10.5489 9.52353 10.574 9.49942C10.6286 9.44895 10.6842 9.40021 10.7404 9.35159C10.851 9.25517 10.9558 9.15411 11.0596 9.0505C11.0782 9.03206 11.0967 9.01363 11.1158 8.99463C11.1547 8.95588 11.1935 8.91709 11.2324 8.87827C11.2909 8.81974 11.3497 8.76144 11.4085 8.70315C11.6107 8.50179 11.8007 8.29915 11.9766 8.07424C12.0005 8.04609 12.0246 8.01811 12.0489 7.9904C12.2488 7.76026 12.4153 7.51112 12.5782 7.25393C12.5888 7.23722 12.5995 7.22051 12.6105 7.2033C13.0822 6.45395 13.29 5.50836 13.1199 4.63235C13.1048 4.56706 13.0884 4.50207 13.0704 4.43752C13.0611 4.4039 13.0518 4.37027 13.0422 4.33563C12.8005 3.54689 12.2724 2.84443 11.5446 2.44486C10.9249 2.11885 10.2516 2.01991 9.57037 2.19534C9.20261 2.30955 8.87608 2.49004 8.58599 2.74221C8.56386 2.7604 8.54172 2.77859 8.51892 2.79733C8.0547 3.19148 7.75666 3.74853 7.50079 4.29226C7.4249 4.44454 7.32404 4.52441 7.16433 4.58663C6.969 4.63983 6.7986 4.60847 6.62387 4.50994C6.44184 4.37612 6.35979 4.14534 6.26256 3.94768C5.90576 3.22283 5.3597 2.54274 4.5762 2.26325C3.46984 1.88927 2.37493 2.25188 1.5998 3.10438Z" fill="#595CFF"/>
</g>
<defs>
<clipPath id="clip0_294_167">
<rect width="14" height="14" fill="white" transform="translate(0 0.5)"/>
</clipPath>
</defs>
</svg>
