<svg width="42" height="42" viewBox="0 0 42 42" fill="none" xmlns="http://www.w3.org/2000/svg">
<rect width="42" height="42" rx="21" fill="white"/>
<rect x="0.5" y="0.5" width="41" height="41" rx="20.5" stroke="white" stroke-opacity="0.24"/>
<path d="M13.6734 22.561L20.0262 28.4919C20.2898 28.738 20.6379 28.8751 21 28.8751C21.3621 28.8751 21.7102 28.738 21.9738 28.4919L28.3266 22.561C29.3953 21.5661 30 20.1704 30 18.7114V18.5075C30 16.0501 28.2246 13.9548 25.8023 13.5505C24.1992 13.2833 22.568 13.8071 21.4219 14.9532L21 15.3751L20.5781 14.9532C19.432 13.8071 17.8008 13.2833 16.1977 13.5505C13.7754 13.9548 12 16.0501 12 18.5075V18.7114C12 20.1704 12.6047 21.5661 13.6734 22.561Z" fill="#595CFF"/>
</svg>
