<svg width="18" height="18" viewBox="0 0 18 18" fill="none" xmlns="http://www.w3.org/2000/svg">
<g clip-path="url(#clip0_94_5752)">
<path d="M7.81739 2.23111C8.2769 2.66198 8.63249 3.17391 8.92964 3.72649C8.95284 3.72649 8.97604 3.72649 8.99995 3.72649C9.01658 3.69585 9.03321 3.66522 9.05035 3.63365C9.67251 2.50546 10.6442 1.5458 11.8954 1.15981C13.1314 0.822949 14.3764 0.969281 15.4951 1.59802C15.8358 1.7975 16.1316 2.04967 16.4179 2.32024C16.4639 2.36225 16.4639 2.36225 16.5109 2.40511C16.7953 2.67447 17.0106 2.97947 17.2265 3.30461C17.2475 3.33529 17.2685 3.36597 17.2901 3.39758C17.584 3.85241 17.767 4.39836 17.8945 4.9218C17.9002 4.9445 17.906 4.9672 17.9119 4.99058C18.2641 6.44021 17.8698 8.01543 17.1136 9.26579C16.9745 9.49003 16.8239 9.70411 16.664 9.91399C16.649 9.93385 16.634 9.95371 16.6185 9.97417C16.2994 10.3938 15.963 10.8076 15.581 11.1718C15.5139 11.2398 15.4523 11.3093 15.3903 11.3819C15.2565 11.536 15.1111 11.6742 14.9611 11.8124C14.785 11.9756 14.6115 12.1403 14.4431 12.3115C14.3564 12.3971 14.2649 12.4766 14.1726 12.5561C14.088 12.6294 14.0049 12.7042 13.9218 12.7792C13.6747 13.002 13.4232 13.2194 13.1704 13.4358C13.0161 13.5679 12.8624 13.7007 12.7089 13.8339C12.4781 14.0343 12.2463 14.2334 12.014 14.4321C11.9116 14.5198 11.8093 14.6075 11.707 14.6952C11.666 14.7304 11.625 14.7656 11.5839 14.8007C11.5636 14.8181 11.5433 14.8355 11.5224 14.8534C10.6816 15.5741 9.84077 16.2948 8.99995 17.0156C8.85821 16.9566 8.75142 16.8585 8.6374 16.7585C8.6159 16.7398 8.59439 16.7212 8.57223 16.702C8.52671 16.6625 8.48125 16.6229 8.43584 16.5833C8.3694 16.5253 8.3028 16.4676 8.23613 16.4099C8.08165 16.2763 7.9274 16.1424 7.77316 16.0085C7.47671 15.7512 7.17949 15.4948 6.88122 15.2396C6.77882 15.152 6.6765 15.0642 6.57417 14.9765C6.53315 14.9413 6.49214 14.9062 6.45112 14.871C6.20503 14.6601 5.95893 14.4491 5.71284 14.2382C5.69253 14.2208 5.67222 14.2034 5.6513 14.1855C5.61033 14.1503 5.56938 14.1152 5.52843 14.0801C5.4252 13.9915 5.32183 13.9032 5.21818 13.8151C4.98229 13.6144 4.75098 13.4099 4.52357 13.1996C4.42332 13.1074 4.32131 13.0176 4.21843 12.9284C4.10536 12.8295 3.99423 12.7285 3.88279 12.6277C3.80653 12.5594 3.72942 12.4923 3.65181 12.4255C3.53011 12.3196 3.4172 12.2069 3.30409 12.092C3.23897 12.0279 3.17204 11.9683 3.10249 11.9091C2.83335 11.6771 2.58155 11.4211 2.35157 11.1504C2.28209 11.0707 2.20998 10.9938 2.13747 10.9168C1.90063 10.6647 1.68483 10.4009 1.47651 10.1249C1.46005 10.1032 1.44359 10.0816 1.42663 10.0592C0.549053 8.8996 -0.00762178 7.62935 -0.00883925 6.15666C-0.00886297 6.13086 -0.00888669 6.10506 -0.00891113 6.07848C-0.00832038 5.67341 0.00980356 5.2817 0.105419 4.88664C0.111452 4.86152 0.117485 4.8364 0.123701 4.81051C0.349404 3.90588 0.801881 3.10118 1.44136 2.42571C1.47018 2.39462 1.499 2.36353 1.5287 2.3315C3.25259 0.531098 6.02672 0.599414 7.81739 2.23111ZM2.05676 3.34839C1.63667 3.83827 1.35654 4.44199 1.19526 5.06243C1.18402 5.10312 1.17278 5.14382 1.1612 5.18575C0.874471 6.41499 1.19679 7.65741 1.82808 8.71868C2.26682 9.42353 2.81455 10.0756 3.41011 10.6523C3.53047 10.7723 3.65029 10.8928 3.77005 11.0134C3.82307 11.0667 3.87612 11.12 3.92917 11.1733C3.96529 11.2096 4.00139 11.2459 4.03745 11.2823C4.24385 11.4904 4.45279 11.6922 4.67573 11.8827C4.73816 11.9397 4.80043 11.9968 4.8625 12.0541C4.98911 12.1698 5.11775 12.2807 5.25142 12.3881C5.39918 12.5072 5.53924 12.632 5.67768 12.7616C5.84663 12.9198 6.02051 13.0686 6.20105 13.2136C6.29287 13.2889 6.38094 13.3672 6.4687 13.4472C6.58884 13.5567 6.71146 13.6614 6.83784 13.7636C6.99474 13.8905 7.14466 14.0232 7.29377 14.1591C7.38587 14.241 7.48033 14.3189 7.57612 14.3964C7.73302 14.5233 7.88294 14.656 8.03205 14.7919C8.15507 14.9013 8.28307 15.004 8.41122 15.1072C8.53966 15.2139 8.66119 15.3274 8.78228 15.4423C8.88013 15.5215 8.88013 15.5215 8.99995 15.539C9.08467 15.4891 9.08467 15.4891 9.16914 15.4115C9.20322 15.3823 9.2373 15.3531 9.27241 15.323C9.3105 15.2895 9.34859 15.256 9.38667 15.2226C9.42838 15.1865 9.47013 15.1505 9.51191 15.1145C9.60129 15.0374 9.69044 14.9601 9.77943 14.8826C9.90654 14.7719 10.0343 14.662 10.1623 14.5524C10.1825 14.5352 10.2026 14.5179 10.2234 14.5001C10.264 14.4654 10.3046 14.4306 10.3452 14.3958C10.4271 14.3258 10.5089 14.2557 10.5907 14.1855C10.6522 14.1328 10.7137 14.0801 10.7752 14.0274C10.8577 13.9567 10.9402 13.8859 11.0227 13.8151C11.2209 13.6449 11.4195 13.4751 11.6191 13.3066C12.0754 12.922 12.0754 12.922 12.5222 12.5265C12.6349 12.424 12.7501 12.327 12.8693 12.2321C13.0754 12.0656 13.2666 11.8845 13.4581 11.7016C13.4822 11.6786 13.5063 11.6556 13.5311 11.632C13.5628 11.6016 13.5628 11.6016 13.5951 11.5706C13.6653 11.5057 13.7367 11.443 13.809 11.3805C13.9511 11.2565 14.086 11.1266 14.2194 10.9934C14.2432 10.9697 14.2671 10.946 14.2916 10.9216C14.3416 10.8717 14.3916 10.8219 14.4415 10.772C14.5168 10.6967 14.5924 10.6217 14.668 10.5468C14.9279 10.2879 15.1722 10.0274 15.3984 9.73821C15.4291 9.70202 15.46 9.66603 15.4914 9.6304C15.7483 9.33452 15.9625 9.01419 16.1718 8.68352C16.1855 8.66204 16.1992 8.64056 16.2133 8.61842C16.8199 7.65497 17.087 6.43922 16.8684 5.31291C16.8489 5.22897 16.8278 5.14542 16.8046 5.06243C16.7927 5.01919 16.7807 4.97596 16.7684 4.93141C16.4576 3.91732 15.7787 3.01416 14.843 2.50043C14.0462 2.08127 13.1806 1.95407 12.3046 2.17961C11.8318 2.32647 11.412 2.55852 11.039 2.88274C11.0106 2.90612 10.9821 2.92951 10.9528 2.9536C10.3559 3.46036 9.97273 4.17658 9.64375 4.87566C9.54618 5.07144 9.4165 5.17414 9.21116 5.25414C8.96002 5.32254 8.74094 5.28221 8.51628 5.15553C8.28225 4.98348 8.17675 4.68677 8.05174 4.43263C7.593 3.50068 6.89092 2.62627 5.88356 2.26694C4.4611 1.7861 3.05336 2.25231 2.05676 3.34839Z" fill="white"/>
</g>
<defs>
<clipPath id="clip0_94_5752">
<rect width="18" height="18" fill="white"/>
</clipPath>
</defs>
</svg>
