<svg width="14" height="16" viewBox="0 0 14 16" fill="none" xmlns="http://www.w3.org/2000/svg">
<g clip-path="url(#clip0_275_477)">
<path d="M3.13438 13.625H0.23125V4.8623H3.13438V13.625ZM1.68125 3.66699C0.753125 3.66699 0 2.94629 0 2.07617C0 1.65815 0.177131 1.25724 0.492427 0.96165C0.807722 0.66606 1.23535 0.5 1.68125 0.5C2.12715 0.5 2.55478 0.66606 2.87007 0.96165C3.18537 1.25724 3.3625 1.65815 3.3625 2.07617C3.3625 2.94629 2.60938 3.66699 1.68125 3.66699ZM13.9969 13.625H11.1V9.35938C11.1 8.34277 11.0781 7.03906 9.59062 7.03906C8.08125 7.03906 7.85 8.14355 7.85 9.28613V13.625H4.95V4.8623H7.73438V6.05762H7.775C8.1625 5.36914 9.10938 4.64258 10.5219 4.64258C13.4594 4.64258 14 6.45606 14 8.81152V13.625H13.9969Z" fill="white"/>
</g>
<defs>
<clipPath id="clip0_275_477">
<rect width="14" height="15" fill="white" transform="translate(0 0.5)"/>
</clipPath>
</defs>
</svg>
