<svg width="512" height="512" viewBox="0 0 512 512" fill="none" xmlns="http://www.w3.org/2000/svg">
<g clip-path="url(#clip0_503_32)">
<path d="M121.972 -0.267414C123.418 -0.274211 123.418 -0.274211 124.894 -0.281145C128.104 -0.293739 131.314 -0.292172 134.524 -0.290516C136.834 -0.296505 139.144 -0.303311 141.454 -0.310871C147.717 -0.328509 153.98 -0.333226 160.243 -0.334503C164.161 -0.335927 168.079 -0.340201 171.998 -0.345497C184.979 -0.363039 197.959 -0.372338 210.94 -0.370836C211.639 -0.370756 212.337 -0.370677 213.057 -0.370594C214.106 -0.370472 214.106 -0.370472 215.177 -0.370346C226.498 -0.369535 237.819 -0.388651 249.141 -0.416871C260.794 -0.445687 272.447 -0.459041 284.1 -0.457683C290.63 -0.457175 297.161 -0.462784 303.692 -0.484039C309.841 -0.503505 315.989 -0.50349 322.138 -0.489006C324.384 -0.486927 326.63 -0.491565 328.876 -0.503727C344.441 -0.582498 359.26 0.175351 373.312 7.68751C374.296 8.19689 374.296 8.19689 375.3 8.71656C381.511 12.0531 386.818 16.2289 392 21C392.63 21.5388 393.261 22.0777 393.91 22.6328C408.394 35.7644 416.418 56.8357 417.402 76.0007C417.584 81.5087 417.608 87.0122 417.576 92.5227C417.562 95.9569 417.597 99.3883 417.635 102.822C417.636 105.036 417.634 107.251 417.629 109.465C417.642 110.475 417.655 111.486 417.669 112.527C417.578 119.559 416.099 125.191 412 131C406.146 135.909 400.619 137.508 393 137C386.059 135.634 381.911 131.772 378 126C375.339 121.075 375.703 116.031 375.691 110.582C375.666 108.502 375.641 106.422 375.615 104.342C375.586 101.081 375.562 97.8209 375.544 94.5603C375.522 91.4006 375.482 88.2415 375.441 85.082C375.441 83.6409 375.441 83.6409 375.441 82.1706C375.279 70.9536 371.957 61.8355 365 53C362.522 50.6067 359.952 48.7642 357 47C356.385 46.612 355.77 46.224 355.137 45.8242C344.898 39.9946 332.458 40.7147 321.042 40.773C319.474 40.7735 317.905 40.7732 316.337 40.7721C312.117 40.7715 307.897 40.7832 303.676 40.7972C299.252 40.8098 294.828 40.8109 290.404 40.8133C282.042 40.8195 273.681 40.8359 265.32 40.856C255.794 40.8784 246.268 40.8893 236.742 40.8994C217.161 40.9202 197.58 40.9554 178 41C178.678 41.2601 179.357 41.5202 180.056 41.7881C186.528 44.2692 192.998 46.754 199.466 49.2427C202.79 50.5212 206.114 51.7985 209.44 53.0725C271.442 76.8318 271.442 76.8318 286.496 108.336C291.027 119.376 293.153 130.807 293.14 142.722C293.143 143.576 293.146 144.43 293.149 145.31C293.158 148.158 293.159 151.005 293.161 153.853C293.166 155.9 293.171 157.948 293.176 159.995C293.189 165.546 293.196 171.098 293.2 176.65C293.203 180.119 293.207 183.589 293.212 187.059C293.225 197.919 293.235 208.779 293.239 219.639C293.243 232.169 293.261 244.699 293.29 257.228C293.311 266.92 293.321 276.612 293.323 286.304C293.324 292.09 293.33 297.876 293.348 303.662C293.364 309.103 293.366 314.544 293.357 319.985C293.357 321.98 293.361 323.975 293.371 325.969C293.384 328.697 293.378 331.423 293.367 334.151C293.379 335.328 293.379 335.328 293.392 336.53C293.337 342.725 292.209 348.347 288.133 353.242C282.295 357.989 278.076 360.535 270.402 360.305C265.172 359.641 260.817 357.894 257.137 354.059C252.715 348.329 251.852 344 251.862 336.817C251.859 335.973 251.856 335.128 251.853 334.259C251.845 331.419 251.844 328.58 251.842 325.74C251.837 323.708 251.832 321.677 251.827 319.645C251.815 315.263 251.807 310.88 251.801 306.498C251.79 299.564 251.77 292.63 251.748 285.695C251.686 265.974 251.632 246.253 251.598 226.532C251.58 215.645 251.551 204.759 251.51 193.872C251.489 188.112 251.474 182.352 251.472 176.592C251.47 171.168 251.454 165.745 251.427 160.321C251.42 158.336 251.418 156.35 251.421 154.365C251.443 139.047 250.586 125.912 240.101 113.809C228.319 102.267 208.239 97.7777 193.187 92C190.688 91.0382 188.188 90.0762 185.689 89.1138C181.132 87.3593 176.575 85.6056 172.017 83.8531C160.078 79.2625 148.144 74.6598 136.21 70.0543C131.893 68.3881 127.575 66.7232 123.256 65.0586C120.985 64.1823 118.713 63.306 116.441 62.4297C115.427 62.0389 114.413 61.6482 113.368 61.2456C107.227 58.8754 101.105 56.4599 94.9999 54C93.4209 57.142 91.9074 60.3054 90.4374 63.5C90.0029 64.4384 89.5685 65.3769 89.1209 66.3438C87.3343 70.5769 86.8738 74.0644 86.8656 78.6621C86.8612 79.8232 86.8567 80.9844 86.8521 82.1807C86.8523 83.4572 86.8525 84.7338 86.8527 86.049C86.8494 87.4181 86.8457 88.7873 86.8415 90.1565C86.8315 93.9229 86.8278 97.6894 86.8252 101.456C86.8212 105.517 86.8117 109.578 86.8029 113.638C86.7832 123.448 86.7731 133.257 86.7642 143.067C86.7598 147.687 86.7545 152.307 86.7492 156.928C86.7322 172.289 86.7177 187.651 86.7105 203.012C86.7086 206.998 86.7066 210.984 86.7047 214.97C86.704 216.457 86.704 216.457 86.7032 217.973C86.6949 234.018 86.6696 250.064 86.6371 266.109C86.604 282.586 86.586 299.063 86.5828 315.54C86.5807 324.79 86.5719 334.039 86.5464 343.289C86.5246 351.167 86.5166 359.046 86.5263 366.924C86.5309 370.942 86.529 374.959 86.5096 378.977C86.4919 382.66 86.493 386.343 86.5085 390.027C86.512 391.979 86.4958 393.931 86.4789 395.883C86.5661 407.871 89.6651 417.236 97.9999 426C110.053 437.647 130.721 442.22 145.985 448.086C149.095 449.282 152.204 450.482 155.312 451.682C190.367 468.371 190.367 468.371 227.437 468.062C237.719 463.049 245.118 455.331 248.855 444.527C249.855 441.243 250.774 437.953 251.566 434.613C253.286 428.244 256.507 424.632 262 421C266.181 418.943 269.659 418.744 274.294 418.729C275.368 418.721 275.368 418.721 276.464 418.713C278.013 418.703 279.563 418.697 281.113 418.695C283.573 418.691 286.033 418.675 288.494 418.654C295.488 418.599 302.482 418.568 309.477 418.544C313.762 418.528 318.047 418.497 322.332 418.459C323.957 418.447 325.581 418.441 327.206 418.441C341.171 418.44 353.154 416.848 364.008 407.219C371.808 398.979 374.884 389.298 375.312 378.188C375.868 370.244 377.457 365.154 383.25 359.625C388.11 355.822 393.018 354.652 399.125 355.188C406.468 356.727 410.837 359.856 415 366C417.286 370.362 417.348 374.613 417.312 379.438C417.307 380.235 417.301 381.033 417.295 381.855C416.849 403.966 407.399 423.378 391.792 438.747C369.993 459.176 343.911 460.444 315.562 460.688C312.885 460.719 310.207 460.755 307.529 460.791C301.019 460.875 294.51 460.944 288 461C287.226 462.612 287.226 462.612 286.437 464.256C285.735 465.693 285.034 467.13 284.332 468.566C283.995 469.271 283.658 469.976 283.311 470.703C274.505 488.618 257.85 501.534 239.328 508.352C230.423 511.152 222.495 512.229 213.187 512.313C212.152 512.342 211.116 512.371 210.049 512.4C192.628 512.539 176.975 505.564 161.062 499.25C158.909 498.403 156.755 497.557 154.601 496.712C150.212 494.99 145.826 493.262 141.44 491.532C135.338 489.128 129.222 486.76 123.101 484.402C120.339 483.336 117.577 482.269 114.815 481.201C113.087 480.535 111.359 479.87 109.63 479.206C96.4546 474.147 83.8979 469.205 72.9999 460C72.4082 459.553 71.8165 459.105 71.2069 458.645C63.0406 452.272 57.4143 443.336 52.6874 434.25C52.2176 433.377 52.2176 433.377 51.7384 432.487C43.4647 415.78 44.4177 397.688 44.477 379.563C44.4861 375.425 44.472 371.286 44.461 367.148C44.4433 359.06 44.4471 350.973 44.4587 342.885C44.4678 336.307 44.4689 329.728 44.4646 323.15C44.464 322.211 44.4634 321.271 44.4627 320.303C44.4615 318.395 44.4602 316.486 44.4588 314.577C44.4475 296.714 44.4605 278.85 44.482 260.987C44.4999 245.689 44.4968 230.392 44.4784 215.094C44.4569 197.293 44.4486 179.491 44.4608 161.689C44.4621 159.787 44.4634 157.886 44.4646 155.984C44.4652 155.049 44.4658 154.113 44.4665 153.149C44.4699 146.586 44.4641 140.023 44.4547 133.46C44.4434 125.451 44.4466 117.442 44.4678 109.433C44.4782 105.354 44.4825 101.275 44.4692 97.1962C44.3545 58.9523 44.3545 58.9523 52.7499 43.5625C53.2653 42.5792 53.2653 42.5792 53.7911 41.5759C56.8963 35.8345 60.5846 30.8121 64.9999 26C65.6637 25.2446 66.3276 24.4892 67.0116 23.7109C81.0652 8.59225 101.399 -0.339411 121.972 -0.267414Z" fill="#D02D38"/>
<path d="M396.687 175.688C397.681 175.65 398.675 175.613 399.699 175.574C409.832 176.881 416.2 184.612 423.015 191.484C424.159 192.626 425.304 193.767 426.45 194.907C428.84 197.291 431.222 199.683 433.6 202.079C436.635 205.137 439.687 208.176 442.746 211.21C445.11 213.561 447.466 215.921 449.818 218.283C450.939 219.407 452.064 220.528 453.191 221.646C465.975 234.347 465.975 234.347 467.566 243.125C467.564 244.548 467.564 244.548 467.562 246C467.595 247.423 467.595 247.423 467.628 248.875C465.676 258.579 456.899 265.558 450.164 272.27C448.999 273.439 447.835 274.608 446.671 275.778C444.24 278.218 441.803 280.652 439.363 283.083C436.245 286.189 433.144 289.311 430.046 292.437C427.65 294.852 425.244 297.258 422.835 299.661C421.687 300.808 420.543 301.959 419.402 303.112C417.804 304.725 416.194 306.324 414.58 307.921C413.214 309.287 413.214 309.287 411.82 310.681C406.54 315.022 401.297 316.586 394.492 316.348C388.969 315.577 384.772 313.189 381.125 309C377.847 304.373 376.678 301.492 376.562 295.75C376.522 294.672 376.482 293.595 376.441 292.484C377.72 284.504 383.684 278.902 389.312 273.5C390.28 272.553 390.28 272.553 391.267 271.586C392.838 270.05 394.415 268.522 396 267C394.899 266.998 394.899 266.998 393.776 266.996C386.832 266.978 379.888 266.936 372.945 266.868C369.376 266.834 365.807 266.809 362.238 266.804C358.788 266.8 355.339 266.772 351.889 266.727C349.944 266.707 347.999 266.713 346.054 266.719C338.755 266.6 333.591 265.917 328 261C322.663 255.383 321.587 250.2 321.75 242.652C322.325 236.542 325.531 232.937 330 229C334.897 225.656 338.726 224.887 344.594 224.795C345.715 224.775 346.836 224.755 347.991 224.734C349.195 224.718 350.399 224.701 351.64 224.684C352.877 224.663 354.115 224.642 355.39 224.621C358.671 224.566 361.952 224.516 365.234 224.468C368.585 224.417 371.937 224.362 375.289 224.307C381.859 224.2 388.429 224.098 395 224C394.596 223.618 394.193 223.236 393.778 222.842C391.924 221.072 390.087 219.286 388.25 217.5C387.615 216.899 386.981 216.299 386.328 215.68C381.328 210.784 377.597 205.845 376.503 198.805C376.64 191.993 376.838 187.162 381.875 182.125C386.774 177.658 389.946 175.851 396.687 175.688Z" fill="#D02D38"/>
</g>
<defs>
<clipPath id="clip0_503_32">
<rect width="512" height="512" fill="white"/>
</clipPath>
</defs>
</svg>
