<svg width="15" height="14" viewBox="0 0 15 14" fill="none" xmlns="http://www.w3.org/2000/svg">
<g clip-path="url(#clip0_275_487)">
<path d="M0.5 7C0.5 5.14348 1.2375 3.36301 2.55025 2.05025C3.86301 0.737498 5.64348 0 7.5 0C9.35652 0 11.137 0.737498 12.4497 2.05025C13.7625 3.36301 14.5 5.14348 14.5 7C14.5 8.85652 13.7625 10.637 12.4497 11.9497C11.137 13.2625 9.35652 14 7.5 14C5.64348 14 3.86301 13.2625 2.55025 11.9497C1.2375 10.637 0.5 8.85652 0.5 7ZM5.64883 4.02227C5.44102 4.13711 5.3125 4.35859 5.3125 4.59375V9.40625C5.3125 9.64414 5.44102 9.86289 5.64883 9.97773C5.85664 10.0926 6.1082 10.0898 6.31328 9.96406L10.2508 7.55781C10.4449 7.4375 10.5652 7.22695 10.5652 6.99727C10.5652 6.76758 10.4449 6.55703 10.2508 6.43672L6.31328 4.03047C6.11094 3.90742 5.85664 3.90195 5.64883 4.0168V4.02227Z" fill="#595CFF"/>
</g>
<defs>
<clipPath id="clip0_275_487">
<rect width="14" height="14" fill="white" transform="translate(0.5)"/>
</clipPath>
</defs>
</svg>
