<svg width="15" height="15" viewBox="0 0 15 15" fill="none" xmlns="http://www.w3.org/2000/svg">
<g clip-path="url(#clip0_334_39)">
<path d="M2.08301 2.25C2.08301 1.76602 1.69199 1.375 1.20801 1.375C0.724023 1.375 0.333008 1.76602 0.333008 2.25V11.4375C0.333008 12.6461 1.31191 13.625 2.52051 13.625H13.458C13.942 13.625 14.333 13.234 14.333 12.75C14.333 12.266 13.942 11.875 13.458 11.875H2.52051C2.27988 11.875 2.08301 11.6781 2.08301 11.4375V2.25ZM13.201 4.61797C13.5428 4.27617 13.5428 3.72109 13.201 3.3793C12.8592 3.0375 12.3041 3.0375 11.9623 3.3793L9.08301 6.26133L7.51348 4.6918C7.17168 4.35 6.6166 4.35 6.2748 4.6918L3.2123 7.7543C2.87051 8.09609 2.87051 8.65117 3.2123 8.99297C3.5541 9.33477 4.10918 9.33477 4.45098 8.99297L6.89551 6.55117L8.46504 8.1207C8.80684 8.4625 9.36191 8.4625 9.70371 8.1207L13.2037 4.6207L13.201 4.61797Z" fill="#121212"/>
</g>
<defs>
<clipPath id="clip0_334_39">
<rect width="14" height="14" fill="white" transform="translate(0.333008 0.5)"/>
</clipPath>
</defs>
</svg>
