<svg width="17" height="14" viewBox="0 0 17 14" fill="none" xmlns="http://www.w3.org/2000/svg">
<g clip-path="url(#clip0_305_165)">
<path d="M9.41525 0.492188C9.27032 0.191406 8.96407 0 8.62775 0C8.29142 0 7.9879 0.191406 7.84025 0.492188L6.08204 4.10977L2.15548 4.68945C1.82736 4.73867 1.55392 4.96836 1.45275 5.28281C1.35157 5.59727 1.43361 5.94453 1.66876 6.17695L4.51798 8.99609L3.84532 12.9801C3.79064 13.3082 3.92736 13.6418 4.19806 13.8359C4.46876 14.0301 4.82696 14.0547 5.12228 13.8988L8.63048 12.0258L12.1387 13.8988C12.434 14.0547 12.7922 14.0328 13.0629 13.8359C13.3336 13.6391 13.4703 13.3082 13.4156 12.9801L12.7402 8.99609L15.5895 6.17695C15.8246 5.94453 15.9094 5.59727 15.8055 5.28281C15.7016 4.96836 15.4309 4.73867 15.1027 4.68945L11.1734 4.10977L9.41525 0.492188Z" fill="#FFBE4C"/>
</g>
<defs>
<clipPath id="clip0_305_165">
<rect width="15.75" height="14" fill="white" transform="translate(0.75)"/>
</clipPath>
</defs>
</svg>
