<svg width="18" height="15" viewBox="0 0 18 15" fill="none" xmlns="http://www.w3.org/2000/svg">
<g clip-path="url(#clip0_273_346)">
<path d="M1.75 2.25V10.125H15.75V2.25H1.75ZM0 2.25C0 1.28477 0.784766 0.5 1.75 0.5H15.75C16.7152 0.5 17.5 1.28477 17.5 2.25V10.125C17.5 11.0902 16.7152 11.875 15.75 11.875H1.75C0.784766 11.875 0 11.0902 0 10.125V2.25ZM3.5 12.75H14C14.484 12.75 14.875 13.141 14.875 13.625C14.875 14.109 14.484 14.5 14 14.5H3.5C3.01602 14.5 2.625 14.109 2.625 13.625C2.625 13.141 3.01602 12.75 3.5 12.75Z" fill="#121212" fill-opacity="0.42"/>
</g>
<defs>
<clipPath id="clip0_273_346">
<rect width="17.5" height="14" fill="white" transform="translate(0 0.5)"/>
</clipPath>
</defs>
</svg>
