<svg width="15" height="16" viewBox="0 0 15 16" fill="none" xmlns="http://www.w3.org/2000/svg">
<path d="M13.4581 4.94484C13.4676 5.07809 13.4676 5.21136 13.4676 5.3446C13.4676 9.40866 10.3744 14.0914 4.72081 14.0914C2.97905 14.0914 1.36104 13.587 0 12.7114C0.247471 12.7399 0.485391 12.7494 0.742383 12.7494C2.17954 12.7494 3.50253 12.264 4.559 11.436C3.20748 11.4074 2.07486 10.5223 1.68463 9.30398C1.875 9.33252 2.06534 9.35156 2.26523 9.35156C2.54124 9.35156 2.81728 9.31348 3.07424 9.24688C1.66561 8.96133 0.609111 7.72403 0.609111 6.22975V6.19169C1.01836 6.42012 1.49429 6.56288 1.99869 6.58189C1.17064 6.02985 0.628154 5.08761 0.628154 4.02161C0.628154 3.45056 0.78041 2.92708 1.04692 2.47022C2.56025 4.3357 4.83501 5.55396 7.38574 5.68723C7.33816 5.4588 7.3096 5.22088 7.3096 4.98293C7.3096 3.28875 8.68017 1.90869 10.3838 1.90869C11.269 1.90869 12.0685 2.27988 12.63 2.8795C13.3248 2.74626 13.991 2.48927 14.5812 2.13712C14.3527 2.85097 13.8673 3.45059 13.2296 3.83127C13.8483 3.76468 14.4479 3.59332 14.9999 3.3554C14.5812 3.96451 14.0577 4.507 13.4581 4.94484Z" fill="white"/>
</svg>
