<svg width="13" height="14" viewBox="0 0 13 14" fill="none" xmlns="http://www.w3.org/2000/svg">
<g clip-path="url(#clip0_275_489)">
<path d="M6.375 7C7.30326 7 8.1935 6.63125 8.84987 5.97487C9.50625 5.3185 9.875 4.42826 9.875 3.5C9.875 2.57174 9.50625 1.6815 8.84987 1.02513C8.1935 0.368749 7.30326 0 6.375 0C5.44674 0 4.5565 0.368749 3.90013 1.02513C3.24375 1.6815 2.875 2.57174 2.875 3.5C2.875 4.42826 3.24375 5.3185 3.90013 5.97487C4.5565 6.63125 5.44674 7 6.375 7ZM5.12539 8.3125C2.43203 8.3125 0.25 10.4945 0.25 13.1879C0.25 13.6363 0.613672 14 1.06211 14H11.6879C12.1363 14 12.5 13.6363 12.5 13.1879C12.5 10.4945 10.318 8.3125 7.62461 8.3125H5.12539Z" fill="#595CFF"/>
</g>
<defs>
<clipPath id="clip0_275_489">
<rect width="12.25" height="14" fill="white" transform="translate(0.25)"/>
</clipPath>
</defs>
</svg>
