<svg width="13" height="15" viewBox="0 0 13 15" fill="none" xmlns="http://www.w3.org/2000/svg">
<g clip-path="url(#clip0_114_188)">
<path d="M8.82143 4C8.82143 3.41984 8.57685 2.86344 8.1415 2.4532C7.70615 2.04297 7.11568 1.8125 6.5 1.8125C5.88432 1.8125 5.29385 2.04297 4.8585 2.4532C4.42315 2.86344 4.17857 3.41984 4.17857 4C4.17857 4.58016 4.42315 5.13656 4.8585 5.5468C5.29385 5.95703 5.88432 6.1875 6.5 6.1875C7.11568 6.1875 7.70615 5.95703 8.1415 5.5468C8.57685 5.13656 8.82143 4.58016 8.82143 4ZM2.78571 4C2.78571 3.07174 3.17704 2.1815 3.8736 1.52513C4.57017 0.868749 5.51491 0.5 6.5 0.5C7.48509 0.5 8.42983 0.868749 9.1264 1.52513C9.82296 2.1815 10.2143 3.07174 10.2143 4C10.2143 4.92826 9.82296 5.8185 9.1264 6.47487C8.42983 7.13125 7.48509 7.5 6.5 7.5C5.51491 7.5 4.57017 7.13125 3.8736 6.47487C3.17704 5.8185 2.78571 4.92826 2.78571 4ZM1.43058 13.1875H11.5723C11.3141 11.4566 9.73549 10.125 7.82902 10.125H5.17679C3.27031 10.125 1.69174 11.4566 1.43348 13.1875H1.43058ZM0 13.6879C0 10.9945 2.31562 8.8125 5.17388 8.8125H7.82612C10.6844 8.8125 13 10.9945 13 13.6879C13 14.1363 12.6141 14.5 12.1382 14.5H0.86183C0.385938 14.5 0 14.1363 0 13.6879Z" fill="#151618"/>
</g>
<defs>
<clipPath id="clip0_114_188">
<rect width="13" height="14" fill="white" transform="translate(0 0.5)"/>
</clipPath>
</defs>
</svg>
