<svg width="15" height="16" viewBox="0 0 15 16" fill="none" xmlns="http://www.w3.org/2000/svg">
<g clip-path="url(#clip0_132_984)">
<path d="M7.11719 0.5C7.42969 0.5 7.74219 0.5 8.05469 0.5C8.23438 0.519531 8.41406 0.539062 8.58984 0.566406C10.2734 0.824219 11.7227 1.53125 12.9062 2.77344C13.9531 3.875 14.6289 5.16406 14.8867 6.66406C14.9336 6.93359 14.9609 7.20313 15 7.47266C15 7.78516 15 8.09766 15 8.41016C14.9922 8.45703 14.9766 8.50391 14.9727 8.55078C14.9062 9.38281 14.707 10.1836 14.3633 10.9453C12.6016 14.8594 7.87109 16.5039 4.07031 14.5273C4.00391 14.4922 3.91016 14.4844 3.83984 14.5C2.95703 14.7227 2.07422 14.9531 1.19531 15.1836C0.816406 15.2852 0.4375 15.3906 0.0585938 15.4961C0.0390625 15.4766 0.0195312 15.457 0 15.4375C0.015625 15.3984 0.0390626 15.3594 0.0507814 15.3203C0.375 14.1367 0.703125 12.9531 1.02344 11.7695C1.04297 11.6953 1.02734 11.5938 0.992187 11.5273C0.140625 9.96484 -0.125 8.30469 0.191406 6.55859C0.773438 3.32813 3.36719 1.125 6.28516 0.617188C6.55859 0.570313 6.83984 0.539063 7.11719 0.5ZM1.80469 13.6992C1.87109 13.6836 1.91016 13.6797 1.94531 13.668C2.62891 13.4922 3.3125 13.3164 3.99609 13.1328C4.10547 13.1055 4.1875 13.1211 4.28125 13.1758C5.71094 14.0313 7.23828 14.3086 8.86719 13.9453C11.9961 13.2461 14.2891 10.2695 13.6367 6.75781C13.0508 3.58594 10.0352 1.38281 6.83594 1.76562C4.98828 1.98828 3.51953 2.85938 2.45312 4.38672C1.5625 5.66406 1.19531 7.08984 1.37109 8.64453C1.48047 9.61328 1.82031 10.4961 2.35156 11.3086C2.40625 11.3945 2.42188 11.4688 2.39062 11.5664C2.30469 11.8594 2.22266 12.1563 2.14062 12.4531C2.03125 12.8594 1.92187 13.2656 1.80469 13.6992Z" fill="#121212"/>
<path d="M9.50391 11.4687C9 11.4883 8.57031 11.293 8.125 11.1406C6.86328 10.707 5.89063 9.8867 5.0586 8.87499C4.66016 8.3867 4.25781 7.90233 3.9961 7.32421C3.71875 6.71483 3.60547 6.08983 3.89453 5.45702C4.01953 5.18749 4.21094 4.9453 4.38672 4.70311C4.4961 4.55467 4.66406 4.48827 4.84766 4.48045C5.01172 4.47264 5.17969 4.47655 5.34375 4.48436C5.49219 4.49217 5.56641 4.60155 5.61719 4.71874C5.73438 4.98436 5.84766 5.2578 5.96094 5.52733C6.05078 5.74217 6.13672 5.96092 6.23438 6.17186C6.30078 6.3203 6.30078 6.45702 6.20313 6.58592C6.06641 6.77342 5.92578 6.96092 5.77735 7.14452C5.625 7.33592 5.61719 7.39061 5.74219 7.60155C6.33985 8.58983 7.16016 9.31639 8.23438 9.74998C8.46484 9.84373 8.54297 9.82811 8.70313 9.6328C8.87891 9.41795 9.05469 9.20311 9.22656 8.98436C9.33985 8.83983 9.41406 8.80077 9.59375 8.86717C9.83985 8.96092 10.0781 9.0742 10.3164 9.18358C10.4805 9.2578 10.6367 9.34764 10.8008 9.42186C10.918 9.47264 11.043 9.50389 11.1641 9.55077C11.2656 9.58983 11.3164 9.67186 11.3125 9.78124C11.3047 10.2812 11.1992 10.7383 10.7539 11.0508C10.375 11.3203 9.96485 11.4961 9.50391 11.4687Z" fill="#121212"/>
</g>
<defs>
<clipPath id="clip0_132_984">
<rect width="15" height="15" fill="white" transform="translate(0 0.5)"/>
</clipPath>
</defs>
</svg>
