<svg width="1440" height="1079" viewBox="0 0 1440 1079" fill="none" xmlns="http://www.w3.org/2000/svg">
<mask id="path-1-inside-1_132_751" fill="white">
<path d="M0 0H120V120H0V0Z"/>
</mask>
<path d="M0 0H120V120H0V0Z" fill="#121212"/>
<path d="M120 0H121V-1H120V0ZM120 120V121H121V120H120ZM0 1H120V-1H0V1ZM119 0V120H121V0H119ZM120 119H0V121H120V119Z" fill="white" fill-opacity="0.02" mask="url(#path-1-inside-1_132_751)"/>
<mask id="path-3-inside-2_132_751" fill="white">
<path d="M120 0H240V120H120V0Z"/>
</mask>
<path d="M120 0H240V120H120V0Z" fill="#121212"/>
<path d="M240 0H241V-1H240V0ZM240 120V121H241V120H240ZM120 1H240V-1H120V1ZM239 0V120H241V0H239ZM240 119H120V121H240V119Z" fill="white" fill-opacity="0.02" mask="url(#path-3-inside-2_132_751)"/>
<mask id="path-5-inside-3_132_751" fill="white">
<path d="M240 0H360V120H240V0Z"/>
</mask>
<path d="M240 0H360V120H240V0Z" fill="#121212"/>
<path d="M360 0H361V-1H360V0ZM360 120V121H361V120H360ZM240 1H360V-1H240V1ZM359 0V120H361V0H359ZM360 119H240V121H360V119Z" fill="white" fill-opacity="0.02" mask="url(#path-5-inside-3_132_751)"/>
<mask id="path-7-inside-4_132_751" fill="white">
<path d="M360 0H480V120H360V0Z"/>
</mask>
<path d="M360 0H480V120H360V0Z" fill="#121212"/>
<path d="M480 0H481V-1H480V0ZM480 120V121H481V120H480ZM360 1H480V-1H360V1ZM479 0V120H481V0H479ZM480 119H360V121H480V119Z" fill="white" fill-opacity="0.02" mask="url(#path-7-inside-4_132_751)"/>
<mask id="path-9-inside-5_132_751" fill="white">
<path d="M480 0H600V120H480V0Z"/>
</mask>
<path d="M480 0H600V120H480V0Z" fill="#121212"/>
<path d="M600 0H601V-1H600V0ZM600 120V121H601V120H600ZM480 1H600V-1H480V1ZM599 0V120H601V0H599ZM600 119H480V121H600V119Z" fill="white" fill-opacity="0.02" mask="url(#path-9-inside-5_132_751)"/>
<mask id="path-11-inside-6_132_751" fill="white">
<path d="M600 0H720V120H600V0Z"/>
</mask>
<path d="M600 0H720V120H600V0Z" fill="#121212"/>
<path d="M720 0H721V-1H720V0ZM720 120V121H721V120H720ZM600 1H720V-1H600V1ZM719 0V120H721V0H719ZM720 119H600V121H720V119Z" fill="white" fill-opacity="0.02" mask="url(#path-11-inside-6_132_751)"/>
<mask id="path-13-inside-7_132_751" fill="white">
<path d="M720 0H840V120H720V0Z"/>
</mask>
<path d="M720 0H840V120H720V0Z" fill="#121212"/>
<path d="M840 0H841V-1H840V0ZM840 120V121H841V120H840ZM720 1H840V-1H720V1ZM839 0V120H841V0H839ZM840 119H720V121H840V119Z" fill="white" fill-opacity="0.02" mask="url(#path-13-inside-7_132_751)"/>
<mask id="path-15-inside-8_132_751" fill="white">
<path d="M840 0H960V120H840V0Z"/>
</mask>
<path d="M840 0H960V120H840V0Z" fill="#121212"/>
<path d="M960 0H961V-1H960V0ZM960 120V121H961V120H960ZM840 1H960V-1H840V1ZM959 0V120H961V0H959ZM960 119H840V121H960V119Z" fill="white" fill-opacity="0.02" mask="url(#path-15-inside-8_132_751)"/>
<mask id="path-17-inside-9_132_751" fill="white">
<path d="M960 0H1080V120H960V0Z"/>
</mask>
<path d="M960 0H1080V120H960V0Z" fill="#121212"/>
<path d="M1080 0H1081V-1H1080V0ZM1080 120V121H1081V120H1080ZM960 1H1080V-1H960V1ZM1079 0V120H1081V0H1079ZM1080 119H960V121H1080V119Z" fill="white" fill-opacity="0.02" mask="url(#path-17-inside-9_132_751)"/>
<mask id="path-19-inside-10_132_751" fill="white">
<path d="M1080 0H1200V120H1080V0Z"/>
</mask>
<path d="M1080 0H1200V120H1080V0Z" fill="#121212"/>
<path d="M1200 0H1201V-1H1200V0ZM1200 120V121H1201V120H1200ZM1080 1H1200V-1H1080V1ZM1199 0V120H1201V0H1199ZM1200 119H1080V121H1200V119Z" fill="white" fill-opacity="0.02" mask="url(#path-19-inside-10_132_751)"/>
<mask id="path-21-inside-11_132_751" fill="white">
<path d="M1200 0H1320V120H1200V0Z"/>
</mask>
<path d="M1200 0H1320V120H1200V0Z" fill="#121212"/>
<path d="M1320 0H1321V-1H1320V0ZM1320 120V121H1321V120H1320ZM1200 1H1320V-1H1200V1ZM1319 0V120H1321V0H1319ZM1320 119H1200V121H1320V119Z" fill="white" fill-opacity="0.02" mask="url(#path-21-inside-11_132_751)"/>
<mask id="path-23-inside-12_132_751" fill="white">
<path d="M1320 0H1440V120H1320V0Z"/>
</mask>
<path d="M1320 0H1440V120H1320V0Z" fill="#121212"/>
<path d="M1320 1H1440V-1H1320V1ZM1440 119H1320V121H1440V119Z" fill="white" fill-opacity="0.02" mask="url(#path-23-inside-12_132_751)"/>
<mask id="path-25-inside-13_132_751" fill="white">
<path d="M0 120H120V240H0V120Z"/>
</mask>
<path d="M0 120H120V240H0V120Z" fill="#121212"/>
<path d="M120 120H121V119H120V120ZM120 240V241H121V240H120ZM0 121H120V119H0V121ZM119 120V240H121V120H119ZM120 239H0V241H120V239Z" fill="white" fill-opacity="0.02" mask="url(#path-25-inside-13_132_751)"/>
<mask id="path-27-inside-14_132_751" fill="white">
<path d="M120 120H240V240H120V120Z"/>
</mask>
<path d="M120 120H240V240H120V120Z" fill="#121212"/>
<path d="M240 120H241V119H240V120ZM240 240V241H241V240H240ZM120 121H240V119H120V121ZM239 120V240H241V120H239ZM240 239H120V241H240V239Z" fill="white" fill-opacity="0.02" mask="url(#path-27-inside-14_132_751)"/>
<mask id="path-29-inside-15_132_751" fill="white">
<path d="M240 120H360V240H240V120Z"/>
</mask>
<path d="M240 120H360V240H240V120Z" fill="#121212"/>
<path d="M360 120H361V119H360V120ZM360 240V241H361V240H360ZM240 121H360V119H240V121ZM359 120V240H361V120H359ZM360 239H240V241H360V239Z" fill="white" fill-opacity="0.02" mask="url(#path-29-inside-15_132_751)"/>
<mask id="path-31-inside-16_132_751" fill="white">
<path d="M360 120H480V240H360V120Z"/>
</mask>
<path d="M360 120H480V240H360V120Z" fill="#121212"/>
<path d="M480 120H481V119H480V120ZM480 240V241H481V240H480ZM360 121H480V119H360V121ZM479 120V240H481V120H479ZM480 239H360V241H480V239Z" fill="white" fill-opacity="0.02" mask="url(#path-31-inside-16_132_751)"/>
<mask id="path-33-inside-17_132_751" fill="white">
<path d="M480 120H600V240H480V120Z"/>
</mask>
<path d="M480 120H600V240H480V120Z" fill="#121212"/>
<path d="M600 120H601V119H600V120ZM600 240V241H601V240H600ZM480 121H600V119H480V121ZM599 120V240H601V120H599ZM600 239H480V241H600V239Z" fill="white" fill-opacity="0.02" mask="url(#path-33-inside-17_132_751)"/>
<mask id="path-35-inside-18_132_751" fill="white">
<path d="M600 120H720V240H600V120Z"/>
</mask>
<path d="M600 120H720V240H600V120Z" fill="#121212"/>
<path d="M720 120H721V119H720V120ZM720 240V241H721V240H720ZM600 121H720V119H600V121ZM719 120V240H721V120H719ZM720 239H600V241H720V239Z" fill="white" fill-opacity="0.02" mask="url(#path-35-inside-18_132_751)"/>
<mask id="path-37-inside-19_132_751" fill="white">
<path d="M720 120H840V240H720V120Z"/>
</mask>
<path d="M720 120H840V240H720V120Z" fill="#121212"/>
<path d="M840 120H841V119H840V120ZM840 240V241H841V240H840ZM720 121H840V119H720V121ZM839 120V240H841V120H839ZM840 239H720V241H840V239Z" fill="white" fill-opacity="0.02" mask="url(#path-37-inside-19_132_751)"/>
<mask id="path-39-inside-20_132_751" fill="white">
<path d="M840 120H960V240H840V120Z"/>
</mask>
<path d="M840 120H960V240H840V120Z" fill="#121212"/>
<path d="M960 120H961V119H960V120ZM960 240V241H961V240H960ZM840 121H960V119H840V121ZM959 120V240H961V120H959ZM960 239H840V241H960V239Z" fill="white" fill-opacity="0.02" mask="url(#path-39-inside-20_132_751)"/>
<mask id="path-41-inside-21_132_751" fill="white">
<path d="M960 120H1080V240H960V120Z"/>
</mask>
<path d="M960 120H1080V240H960V120Z" fill="#121212"/>
<path d="M1080 120H1081V119H1080V120ZM1080 240V241H1081V240H1080ZM960 121H1080V119H960V121ZM1079 120V240H1081V120H1079ZM1080 239H960V241H1080V239Z" fill="white" fill-opacity="0.02" mask="url(#path-41-inside-21_132_751)"/>
<mask id="path-43-inside-22_132_751" fill="white">
<path d="M1080 120H1200V240H1080V120Z"/>
</mask>
<path d="M1080 120H1200V240H1080V120Z" fill="#121212"/>
<path d="M1200 120H1201V119H1200V120ZM1200 240V241H1201V240H1200ZM1080 121H1200V119H1080V121ZM1199 120V240H1201V120H1199ZM1200 239H1080V241H1200V239Z" fill="white" fill-opacity="0.02" mask="url(#path-43-inside-22_132_751)"/>
<mask id="path-45-inside-23_132_751" fill="white">
<path d="M1200 120H1320V240H1200V120Z"/>
</mask>
<path d="M1200 120H1320V240H1200V120Z" fill="#121212"/>
<path d="M1320 120H1321V119H1320V120ZM1320 240V241H1321V240H1320ZM1200 121H1320V119H1200V121ZM1319 120V240H1321V120H1319ZM1320 239H1200V241H1320V239Z" fill="white" fill-opacity="0.02" mask="url(#path-45-inside-23_132_751)"/>
<mask id="path-47-inside-24_132_751" fill="white">
<path d="M1320 120H1440V240H1320V120Z"/>
</mask>
<path d="M1320 120H1440V240H1320V120Z" fill="#121212"/>
<path d="M1320 121H1440V119H1320V121ZM1440 239H1320V241H1440V239Z" fill="white" fill-opacity="0.02" mask="url(#path-47-inside-24_132_751)"/>
<mask id="path-49-inside-25_132_751" fill="white">
<path d="M0 240H120V360H0V240Z"/>
</mask>
<path d="M0 240H120V360H0V240Z" fill="#121212"/>
<path d="M120 240H121V239H120V240ZM120 360V361H121V360H120ZM0 241H120V239H0V241ZM119 240V360H121V240H119ZM120 359H0V361H120V359Z" fill="white" fill-opacity="0.02" mask="url(#path-49-inside-25_132_751)"/>
<mask id="path-51-inside-26_132_751" fill="white">
<path d="M120 240H240V360H120V240Z"/>
</mask>
<path d="M120 240H240V360H120V240Z" fill="#121212"/>
<path d="M240 240H241V239H240V240ZM240 360V361H241V360H240ZM120 241H240V239H120V241ZM239 240V360H241V240H239ZM240 359H120V361H240V359Z" fill="white" fill-opacity="0.02" mask="url(#path-51-inside-26_132_751)"/>
<mask id="path-53-inside-27_132_751" fill="white">
<path d="M240 240H360V360H240V240Z"/>
</mask>
<path d="M240 240H360V360H240V240Z" fill="#121212"/>
<path d="M360 240H361V239H360V240ZM360 360V361H361V360H360ZM240 241H360V239H240V241ZM359 240V360H361V240H359ZM360 359H240V361H360V359Z" fill="white" fill-opacity="0.02" mask="url(#path-53-inside-27_132_751)"/>
<mask id="path-55-inside-28_132_751" fill="white">
<path d="M360 240H480V360H360V240Z"/>
</mask>
<path d="M360 240H480V360H360V240Z" fill="#121212"/>
<path d="M480 240H481V239H480V240ZM480 360V361H481V360H480ZM360 241H480V239H360V241ZM479 240V360H481V240H479ZM480 359H360V361H480V359Z" fill="white" fill-opacity="0.02" mask="url(#path-55-inside-28_132_751)"/>
<mask id="path-57-inside-29_132_751" fill="white">
<path d="M480 240H600V360H480V240Z"/>
</mask>
<path d="M480 240H600V360H480V240Z" fill="#121212"/>
<path d="M600 240H601V239H600V240ZM600 360V361H601V360H600ZM480 241H600V239H480V241ZM599 240V360H601V240H599ZM600 359H480V361H600V359Z" fill="white" fill-opacity="0.02" mask="url(#path-57-inside-29_132_751)"/>
<mask id="path-59-inside-30_132_751" fill="white">
<path d="M600 240H720V360H600V240Z"/>
</mask>
<path d="M600 240H720V360H600V240Z" fill="#121212"/>
<path d="M720 240H721V239H720V240ZM720 360V361H721V360H720ZM600 241H720V239H600V241ZM719 240V360H721V240H719ZM720 359H600V361H720V359Z" fill="white" fill-opacity="0.02" mask="url(#path-59-inside-30_132_751)"/>
<mask id="path-61-inside-31_132_751" fill="white">
<path d="M720 240H840V360H720V240Z"/>
</mask>
<path d="M720 240H840V360H720V240Z" fill="#121212"/>
<path d="M840 240H841V239H840V240ZM840 360V361H841V360H840ZM720 241H840V239H720V241ZM839 240V360H841V240H839ZM840 359H720V361H840V359Z" fill="white" fill-opacity="0.02" mask="url(#path-61-inside-31_132_751)"/>
<mask id="path-63-inside-32_132_751" fill="white">
<path d="M840 240H960V360H840V240Z"/>
</mask>
<path d="M840 240H960V360H840V240Z" fill="#121212"/>
<path d="M960 240H961V239H960V240ZM960 360V361H961V360H960ZM840 241H960V239H840V241ZM959 240V360H961V240H959ZM960 359H840V361H960V359Z" fill="white" fill-opacity="0.02" mask="url(#path-63-inside-32_132_751)"/>
<mask id="path-65-inside-33_132_751" fill="white">
<path d="M960 240H1080V360H960V240Z"/>
</mask>
<path d="M960 240H1080V360H960V240Z" fill="#121212"/>
<path d="M1080 240H1081V239H1080V240ZM1080 360V361H1081V360H1080ZM960 241H1080V239H960V241ZM1079 240V360H1081V240H1079ZM1080 359H960V361H1080V359Z" fill="white" fill-opacity="0.02" mask="url(#path-65-inside-33_132_751)"/>
<mask id="path-67-inside-34_132_751" fill="white">
<path d="M1080 240H1200V360H1080V240Z"/>
</mask>
<path d="M1080 240H1200V360H1080V240Z" fill="#121212"/>
<path d="M1200 240H1201V239H1200V240ZM1200 360V361H1201V360H1200ZM1080 241H1200V239H1080V241ZM1199 240V360H1201V240H1199ZM1200 359H1080V361H1200V359Z" fill="white" fill-opacity="0.02" mask="url(#path-67-inside-34_132_751)"/>
<mask id="path-69-inside-35_132_751" fill="white">
<path d="M1200 240H1320V360H1200V240Z"/>
</mask>
<path d="M1200 240H1320V360H1200V240Z" fill="#121212"/>
<path d="M1320 240H1321V239H1320V240ZM1320 360V361H1321V360H1320ZM1200 241H1320V239H1200V241ZM1319 240V360H1321V240H1319ZM1320 359H1200V361H1320V359Z" fill="white" fill-opacity="0.02" mask="url(#path-69-inside-35_132_751)"/>
<mask id="path-71-inside-36_132_751" fill="white">
<path d="M1320 240H1440V360H1320V240Z"/>
</mask>
<path d="M1320 240H1440V360H1320V240Z" fill="#121212"/>
<path d="M1320 241H1440V239H1320V241ZM1440 359H1320V361H1440V359Z" fill="white" fill-opacity="0.02" mask="url(#path-71-inside-36_132_751)"/>
<mask id="path-73-inside-37_132_751" fill="white">
<path d="M0 360H120V480H0V360Z"/>
</mask>
<path d="M0 360H120V480H0V360Z" fill="#121212"/>
<path d="M120 360H121V359H120V360ZM120 480V481H121V480H120ZM0 361H120V359H0V361ZM119 360V480H121V360H119ZM120 479H0V481H120V479Z" fill="white" fill-opacity="0.02" mask="url(#path-73-inside-37_132_751)"/>
<mask id="path-75-inside-38_132_751" fill="white">
<path d="M120 360H240V480H120V360Z"/>
</mask>
<path d="M120 360H240V480H120V360Z" fill="#121212"/>
<path d="M240 360H241V359H240V360ZM240 480V481H241V480H240ZM120 361H240V359H120V361ZM239 360V480H241V360H239ZM240 479H120V481H240V479Z" fill="white" fill-opacity="0.02" mask="url(#path-75-inside-38_132_751)"/>
<mask id="path-77-inside-39_132_751" fill="white">
<path d="M240 360H360V480H240V360Z"/>
</mask>
<path d="M240 360H360V480H240V360Z" fill="#121212"/>
<path d="M360 360H361V359H360V360ZM360 480V481H361V480H360ZM240 361H360V359H240V361ZM359 360V480H361V360H359ZM360 479H240V481H360V479Z" fill="white" fill-opacity="0.02" mask="url(#path-77-inside-39_132_751)"/>
<mask id="path-79-inside-40_132_751" fill="white">
<path d="M360 360H480V480H360V360Z"/>
</mask>
<path d="M360 360H480V480H360V360Z" fill="#121212"/>
<path d="M480 360H481V359H480V360ZM480 480V481H481V480H480ZM360 361H480V359H360V361ZM479 360V480H481V360H479ZM480 479H360V481H480V479Z" fill="white" fill-opacity="0.02" mask="url(#path-79-inside-40_132_751)"/>
<mask id="path-81-inside-41_132_751" fill="white">
<path d="M480 360H600V480H480V360Z"/>
</mask>
<path d="M480 360H600V480H480V360Z" fill="#121212"/>
<path d="M600 360H601V359H600V360ZM600 480V481H601V480H600ZM480 361H600V359H480V361ZM599 360V480H601V360H599ZM600 479H480V481H600V479Z" fill="white" fill-opacity="0.02" mask="url(#path-81-inside-41_132_751)"/>
<mask id="path-83-inside-42_132_751" fill="white">
<path d="M600 360H720V480H600V360Z"/>
</mask>
<path d="M600 360H720V480H600V360Z" fill="#121212"/>
<path d="M720 360H721V359H720V360ZM720 480V481H721V480H720ZM600 361H720V359H600V361ZM719 360V480H721V360H719ZM720 479H600V481H720V479Z" fill="white" fill-opacity="0.02" mask="url(#path-83-inside-42_132_751)"/>
<mask id="path-85-inside-43_132_751" fill="white">
<path d="M720 360H840V480H720V360Z"/>
</mask>
<path d="M720 360H840V480H720V360Z" fill="#121212"/>
<path d="M840 360H841V359H840V360ZM840 480V481H841V480H840ZM720 361H840V359H720V361ZM839 360V480H841V360H839ZM840 479H720V481H840V479Z" fill="white" fill-opacity="0.02" mask="url(#path-85-inside-43_132_751)"/>
<mask id="path-87-inside-44_132_751" fill="white">
<path d="M840 360H960V480H840V360Z"/>
</mask>
<path d="M840 360H960V480H840V360Z" fill="#121212"/>
<path d="M960 360H961V359H960V360ZM960 480V481H961V480H960ZM840 361H960V359H840V361ZM959 360V480H961V360H959ZM960 479H840V481H960V479Z" fill="white" fill-opacity="0.02" mask="url(#path-87-inside-44_132_751)"/>
<mask id="path-89-inside-45_132_751" fill="white">
<path d="M960 360H1080V480H960V360Z"/>
</mask>
<path d="M960 360H1080V480H960V360Z" fill="#121212"/>
<path d="M1080 360H1081V359H1080V360ZM1080 480V481H1081V480H1080ZM960 361H1080V359H960V361ZM1079 360V480H1081V360H1079ZM1080 479H960V481H1080V479Z" fill="white" fill-opacity="0.02" mask="url(#path-89-inside-45_132_751)"/>
<mask id="path-91-inside-46_132_751" fill="white">
<path d="M1080 360H1200V480H1080V360Z"/>
</mask>
<path d="M1080 360H1200V480H1080V360Z" fill="#121212"/>
<path d="M1200 360H1201V359H1200V360ZM1200 480V481H1201V480H1200ZM1080 361H1200V359H1080V361ZM1199 360V480H1201V360H1199ZM1200 479H1080V481H1200V479Z" fill="white" fill-opacity="0.02" mask="url(#path-91-inside-46_132_751)"/>
<mask id="path-93-inside-47_132_751" fill="white">
<path d="M1200 360H1320V480H1200V360Z"/>
</mask>
<path d="M1200 360H1320V480H1200V360Z" fill="#121212"/>
<path d="M1320 360H1321V359H1320V360ZM1320 480V481H1321V480H1320ZM1200 361H1320V359H1200V361ZM1319 360V480H1321V360H1319ZM1320 479H1200V481H1320V479Z" fill="white" fill-opacity="0.02" mask="url(#path-93-inside-47_132_751)"/>
<mask id="path-95-inside-48_132_751" fill="white">
<path d="M1320 360H1440V480H1320V360Z"/>
</mask>
<path d="M1320 360H1440V480H1320V360Z" fill="#121212"/>
<path d="M1320 361H1440V359H1320V361ZM1440 479H1320V481H1440V479Z" fill="white" fill-opacity="0.02" mask="url(#path-95-inside-48_132_751)"/>
<mask id="path-97-inside-49_132_751" fill="white">
<path d="M0 480H120V600H0V480Z"/>
</mask>
<path d="M0 480H120V600H0V480Z" fill="#121212"/>
<path d="M120 480H121V479H120V480ZM120 600V601H121V600H120ZM0 481H120V479H0V481ZM119 480V600H121V480H119ZM120 599H0V601H120V599Z" fill="white" fill-opacity="0.02" mask="url(#path-97-inside-49_132_751)"/>
<mask id="path-99-inside-50_132_751" fill="white">
<path d="M120 480H240V600H120V480Z"/>
</mask>
<path d="M120 480H240V600H120V480Z" fill="#121212"/>
<path d="M240 480H241V479H240V480ZM240 600V601H241V600H240ZM120 481H240V479H120V481ZM239 480V600H241V480H239ZM240 599H120V601H240V599Z" fill="white" fill-opacity="0.02" mask="url(#path-99-inside-50_132_751)"/>
<mask id="path-101-inside-51_132_751" fill="white">
<path d="M240 480H360V600H240V480Z"/>
</mask>
<path d="M240 480H360V600H240V480Z" fill="#121212"/>
<path d="M360 480H361V479H360V480ZM360 600V601H361V600H360ZM240 481H360V479H240V481ZM359 480V600H361V480H359ZM360 599H240V601H360V599Z" fill="white" fill-opacity="0.02" mask="url(#path-101-inside-51_132_751)"/>
<mask id="path-103-inside-52_132_751" fill="white">
<path d="M360 480H480V600H360V480Z"/>
</mask>
<path d="M360 480H480V600H360V480Z" fill="#121212"/>
<path d="M480 480H481V479H480V480ZM480 600V601H481V600H480ZM360 481H480V479H360V481ZM479 480V600H481V480H479ZM480 599H360V601H480V599Z" fill="white" fill-opacity="0.02" mask="url(#path-103-inside-52_132_751)"/>
<mask id="path-105-inside-53_132_751" fill="white">
<path d="M480 480H600V600H480V480Z"/>
</mask>
<path d="M480 480H600V600H480V480Z" fill="#121212"/>
<path d="M600 480H601V479H600V480ZM600 600V601H601V600H600ZM480 481H600V479H480V481ZM599 480V600H601V480H599ZM600 599H480V601H600V599Z" fill="white" fill-opacity="0.02" mask="url(#path-105-inside-53_132_751)"/>
<mask id="path-107-inside-54_132_751" fill="white">
<path d="M600 480H720V600H600V480Z"/>
</mask>
<path d="M600 480H720V600H600V480Z" fill="#121212"/>
<path d="M720 480H721V479H720V480ZM720 600V601H721V600H720ZM600 481H720V479H600V481ZM719 480V600H721V480H719ZM720 599H600V601H720V599Z" fill="white" fill-opacity="0.02" mask="url(#path-107-inside-54_132_751)"/>
<mask id="path-109-inside-55_132_751" fill="white">
<path d="M720 480H840V600H720V480Z"/>
</mask>
<path d="M720 480H840V600H720V480Z" fill="#121212"/>
<path d="M840 480H841V479H840V480ZM840 600V601H841V600H840ZM720 481H840V479H720V481ZM839 480V600H841V480H839ZM840 599H720V601H840V599Z" fill="white" fill-opacity="0.02" mask="url(#path-109-inside-55_132_751)"/>
<mask id="path-111-inside-56_132_751" fill="white">
<path d="M840 480H960V600H840V480Z"/>
</mask>
<path d="M840 480H960V600H840V480Z" fill="#121212"/>
<path d="M960 480H961V479H960V480ZM960 600V601H961V600H960ZM840 481H960V479H840V481ZM959 480V600H961V480H959ZM960 599H840V601H960V599Z" fill="white" fill-opacity="0.02" mask="url(#path-111-inside-56_132_751)"/>
<mask id="path-113-inside-57_132_751" fill="white">
<path d="M960 480H1080V600H960V480Z"/>
</mask>
<path d="M960 480H1080V600H960V480Z" fill="#121212"/>
<path d="M1080 480H1081V479H1080V480ZM1080 600V601H1081V600H1080ZM960 481H1080V479H960V481ZM1079 480V600H1081V480H1079ZM1080 599H960V601H1080V599Z" fill="white" fill-opacity="0.02" mask="url(#path-113-inside-57_132_751)"/>
<mask id="path-115-inside-58_132_751" fill="white">
<path d="M1080 480H1200V600H1080V480Z"/>
</mask>
<path d="M1080 480H1200V600H1080V480Z" fill="#121212"/>
<path d="M1200 480H1201V479H1200V480ZM1200 600V601H1201V600H1200ZM1080 481H1200V479H1080V481ZM1199 480V600H1201V480H1199ZM1200 599H1080V601H1200V599Z" fill="white" fill-opacity="0.02" mask="url(#path-115-inside-58_132_751)"/>
<mask id="path-117-inside-59_132_751" fill="white">
<path d="M1200 480H1320V600H1200V480Z"/>
</mask>
<path d="M1200 480H1320V600H1200V480Z" fill="#121212"/>
<path d="M1320 480H1321V479H1320V480ZM1320 600V601H1321V600H1320ZM1200 481H1320V479H1200V481ZM1319 480V600H1321V480H1319ZM1320 599H1200V601H1320V599Z" fill="white" fill-opacity="0.02" mask="url(#path-117-inside-59_132_751)"/>
<mask id="path-119-inside-60_132_751" fill="white">
<path d="M1320 480H1440V600H1320V480Z"/>
</mask>
<path d="M1320 480H1440V600H1320V480Z" fill="#121212"/>
<path d="M1320 481H1440V479H1320V481ZM1440 599H1320V601H1440V599Z" fill="white" fill-opacity="0.02" mask="url(#path-119-inside-60_132_751)"/>
<mask id="path-121-inside-61_132_751" fill="white">
<path d="M0 600H120V720H0V600Z"/>
</mask>
<path d="M0 600H120V720H0V600Z" fill="#121212"/>
<path d="M120 600H121V599H120V600ZM120 720V721H121V720H120ZM0 601H120V599H0V601ZM119 600V720H121V600H119ZM120 719H0V721H120V719Z" fill="white" fill-opacity="0.02" mask="url(#path-121-inside-61_132_751)"/>
<mask id="path-123-inside-62_132_751" fill="white">
<path d="M120 600H240V720H120V600Z"/>
</mask>
<path d="M120 600H240V720H120V600Z" fill="#121212"/>
<path d="M240 600H241V599H240V600ZM240 720V721H241V720H240ZM120 601H240V599H120V601ZM239 600V720H241V600H239ZM240 719H120V721H240V719Z" fill="white" fill-opacity="0.02" mask="url(#path-123-inside-62_132_751)"/>
<mask id="path-125-inside-63_132_751" fill="white">
<path d="M240 600H360V720H240V600Z"/>
</mask>
<path d="M240 600H360V720H240V600Z" fill="#121212"/>
<path d="M360 600H361V599H360V600ZM360 720V721H361V720H360ZM240 601H360V599H240V601ZM359 600V720H361V600H359ZM360 719H240V721H360V719Z" fill="white" fill-opacity="0.02" mask="url(#path-125-inside-63_132_751)"/>
<mask id="path-127-inside-64_132_751" fill="white">
<path d="M360 600H480V720H360V600Z"/>
</mask>
<path d="M360 600H480V720H360V600Z" fill="#121212"/>
<path d="M480 600H481V599H480V600ZM480 720V721H481V720H480ZM360 601H480V599H360V601ZM479 600V720H481V600H479ZM480 719H360V721H480V719Z" fill="white" fill-opacity="0.02" mask="url(#path-127-inside-64_132_751)"/>
<mask id="path-129-inside-65_132_751" fill="white">
<path d="M480 600H600V720H480V600Z"/>
</mask>
<path d="M480 600H600V720H480V600Z" fill="#121212"/>
<path d="M600 600H601V599H600V600ZM600 720V721H601V720H600ZM480 601H600V599H480V601ZM599 600V720H601V600H599ZM600 719H480V721H600V719Z" fill="white" fill-opacity="0.02" mask="url(#path-129-inside-65_132_751)"/>
<mask id="path-131-inside-66_132_751" fill="white">
<path d="M600 600H720V720H600V600Z"/>
</mask>
<path d="M600 600H720V720H600V600Z" fill="#121212"/>
<path d="M720 600H721V599H720V600ZM720 720V721H721V720H720ZM600 601H720V599H600V601ZM719 600V720H721V600H719ZM720 719H600V721H720V719Z" fill="white" fill-opacity="0.02" mask="url(#path-131-inside-66_132_751)"/>
<mask id="path-133-inside-67_132_751" fill="white">
<path d="M720 600H840V720H720V600Z"/>
</mask>
<path d="M720 600H840V720H720V600Z" fill="#121212"/>
<path d="M840 600H841V599H840V600ZM840 720V721H841V720H840ZM720 601H840V599H720V601ZM839 600V720H841V600H839ZM840 719H720V721H840V719Z" fill="white" fill-opacity="0.02" mask="url(#path-133-inside-67_132_751)"/>
<mask id="path-135-inside-68_132_751" fill="white">
<path d="M840 600H960V720H840V600Z"/>
</mask>
<path d="M840 600H960V720H840V600Z" fill="#121212"/>
<path d="M960 600H961V599H960V600ZM960 720V721H961V720H960ZM840 601H960V599H840V601ZM959 600V720H961V600H959ZM960 719H840V721H960V719Z" fill="white" fill-opacity="0.02" mask="url(#path-135-inside-68_132_751)"/>
<mask id="path-137-inside-69_132_751" fill="white">
<path d="M960 600H1080V720H960V600Z"/>
</mask>
<path d="M960 600H1080V720H960V600Z" fill="#121212"/>
<path d="M1080 600H1081V599H1080V600ZM1080 720V721H1081V720H1080ZM960 601H1080V599H960V601ZM1079 600V720H1081V600H1079ZM1080 719H960V721H1080V719Z" fill="white" fill-opacity="0.02" mask="url(#path-137-inside-69_132_751)"/>
<mask id="path-139-inside-70_132_751" fill="white">
<path d="M1080 600H1200V720H1080V600Z"/>
</mask>
<path d="M1080 600H1200V720H1080V600Z" fill="#121212"/>
<path d="M1200 600H1201V599H1200V600ZM1200 720V721H1201V720H1200ZM1080 601H1200V599H1080V601ZM1199 600V720H1201V600H1199ZM1200 719H1080V721H1200V719Z" fill="white" fill-opacity="0.02" mask="url(#path-139-inside-70_132_751)"/>
<mask id="path-141-inside-71_132_751" fill="white">
<path d="M1200 600H1320V720H1200V600Z"/>
</mask>
<path d="M1200 600H1320V720H1200V600Z" fill="#121212"/>
<path d="M1320 600H1321V599H1320V600ZM1320 720V721H1321V720H1320ZM1200 601H1320V599H1200V601ZM1319 600V720H1321V600H1319ZM1320 719H1200V721H1320V719Z" fill="white" fill-opacity="0.02" mask="url(#path-141-inside-71_132_751)"/>
<mask id="path-143-inside-72_132_751" fill="white">
<path d="M1320 600H1440V720H1320V600Z"/>
</mask>
<path d="M1320 600H1440V720H1320V600Z" fill="#121212"/>
<path d="M1320 601H1440V599H1320V601ZM1440 719H1320V721H1440V719Z" fill="white" fill-opacity="0.02" mask="url(#path-143-inside-72_132_751)"/>
<mask id="path-145-inside-73_132_751" fill="white">
<path d="M0 720H120V840H0V720Z"/>
</mask>
<path d="M0 720H120V840H0V720Z" fill="#121212"/>
<path d="M120 720H121V719H120V720ZM120 840V841H121V840H120ZM0 721H120V719H0V721ZM119 720V840H121V720H119ZM120 839H0V841H120V839Z" fill="white" fill-opacity="0.02" mask="url(#path-145-inside-73_132_751)"/>
<mask id="path-147-inside-74_132_751" fill="white">
<path d="M120 720H240V840H120V720Z"/>
</mask>
<path d="M120 720H240V840H120V720Z" fill="#121212"/>
<path d="M240 720H241V719H240V720ZM240 840V841H241V840H240ZM120 721H240V719H120V721ZM239 720V840H241V720H239ZM240 839H120V841H240V839Z" fill="white" fill-opacity="0.02" mask="url(#path-147-inside-74_132_751)"/>
<mask id="path-149-inside-75_132_751" fill="white">
<path d="M240 720H360V840H240V720Z"/>
</mask>
<path d="M240 720H360V840H240V720Z" fill="#121212"/>
<path d="M360 720H361V719H360V720ZM360 840V841H361V840H360ZM240 721H360V719H240V721ZM359 720V840H361V720H359ZM360 839H240V841H360V839Z" fill="white" fill-opacity="0.02" mask="url(#path-149-inside-75_132_751)"/>
<mask id="path-151-inside-76_132_751" fill="white">
<path d="M360 720H480V840H360V720Z"/>
</mask>
<path d="M360 720H480V840H360V720Z" fill="#121212"/>
<path d="M480 720H481V719H480V720ZM480 840V841H481V840H480ZM360 721H480V719H360V721ZM479 720V840H481V720H479ZM480 839H360V841H480V839Z" fill="white" fill-opacity="0.02" mask="url(#path-151-inside-76_132_751)"/>
<mask id="path-153-inside-77_132_751" fill="white">
<path d="M480 720H600V840H480V720Z"/>
</mask>
<path d="M480 720H600V840H480V720Z" fill="#121212"/>
<path d="M600 720H601V719H600V720ZM600 840V841H601V840H600ZM480 721H600V719H480V721ZM599 720V840H601V720H599ZM600 839H480V841H600V839Z" fill="white" fill-opacity="0.02" mask="url(#path-153-inside-77_132_751)"/>
<mask id="path-155-inside-78_132_751" fill="white">
<path d="M600 720H720V840H600V720Z"/>
</mask>
<path d="M600 720H720V840H600V720Z" fill="#121212"/>
<path d="M720 720H721V719H720V720ZM720 840V841H721V840H720ZM600 721H720V719H600V721ZM719 720V840H721V720H719ZM720 839H600V841H720V839Z" fill="white" fill-opacity="0.02" mask="url(#path-155-inside-78_132_751)"/>
<mask id="path-157-inside-79_132_751" fill="white">
<path d="M720 720H840V840H720V720Z"/>
</mask>
<path d="M720 720H840V840H720V720Z" fill="#121212"/>
<path d="M840 720H841V719H840V720ZM840 840V841H841V840H840ZM720 721H840V719H720V721ZM839 720V840H841V720H839ZM840 839H720V841H840V839Z" fill="white" fill-opacity="0.02" mask="url(#path-157-inside-79_132_751)"/>
<mask id="path-159-inside-80_132_751" fill="white">
<path d="M840 720H960V840H840V720Z"/>
</mask>
<path d="M840 720H960V840H840V720Z" fill="#121212"/>
<path d="M960 720H961V719H960V720ZM960 840V841H961V840H960ZM840 721H960V719H840V721ZM959 720V840H961V720H959ZM960 839H840V841H960V839Z" fill="white" fill-opacity="0.02" mask="url(#path-159-inside-80_132_751)"/>
<mask id="path-161-inside-81_132_751" fill="white">
<path d="M960 720H1080V840H960V720Z"/>
</mask>
<path d="M960 720H1080V840H960V720Z" fill="#121212"/>
<path d="M1080 720H1081V719H1080V720ZM1080 840V841H1081V840H1080ZM960 721H1080V719H960V721ZM1079 720V840H1081V720H1079ZM1080 839H960V841H1080V839Z" fill="white" fill-opacity="0.02" mask="url(#path-161-inside-81_132_751)"/>
<mask id="path-163-inside-82_132_751" fill="white">
<path d="M1080 720H1200V840H1080V720Z"/>
</mask>
<path d="M1080 720H1200V840H1080V720Z" fill="#121212"/>
<path d="M1200 720H1201V719H1200V720ZM1200 840V841H1201V840H1200ZM1080 721H1200V719H1080V721ZM1199 720V840H1201V720H1199ZM1200 839H1080V841H1200V839Z" fill="white" fill-opacity="0.02" mask="url(#path-163-inside-82_132_751)"/>
<mask id="path-165-inside-83_132_751" fill="white">
<path d="M1200 720H1320V840H1200V720Z"/>
</mask>
<path d="M1200 720H1320V840H1200V720Z" fill="#121212"/>
<path d="M1320 720H1321V719H1320V720ZM1320 840V841H1321V840H1320ZM1200 721H1320V719H1200V721ZM1319 720V840H1321V720H1319ZM1320 839H1200V841H1320V839Z" fill="white" fill-opacity="0.02" mask="url(#path-165-inside-83_132_751)"/>
<mask id="path-167-inside-84_132_751" fill="white">
<path d="M1320 720H1440V840H1320V720Z"/>
</mask>
<path d="M1320 720H1440V840H1320V720Z" fill="#121212"/>
<path d="M1320 721H1440V719H1320V721ZM1440 839H1320V841H1440V839Z" fill="white" fill-opacity="0.02" mask="url(#path-167-inside-84_132_751)"/>
<mask id="path-169-inside-85_132_751" fill="white">
<path d="M0 840H120V960H0V840Z"/>
</mask>
<path d="M0 840H120V960H0V840Z" fill="#121212"/>
<path d="M120 840H121V839H120V840ZM120 960V961H121V960H120ZM0 841H120V839H0V841ZM119 840V960H121V840H119ZM120 959H0V961H120V959Z" fill="white" fill-opacity="0.02" mask="url(#path-169-inside-85_132_751)"/>
<mask id="path-171-inside-86_132_751" fill="white">
<path d="M120 840H240V960H120V840Z"/>
</mask>
<path d="M120 840H240V960H120V840Z" fill="#121212"/>
<path d="M240 840H241V839H240V840ZM240 960V961H241V960H240ZM120 841H240V839H120V841ZM239 840V960H241V840H239ZM240 959H120V961H240V959Z" fill="white" fill-opacity="0.02" mask="url(#path-171-inside-86_132_751)"/>
<mask id="path-173-inside-87_132_751" fill="white">
<path d="M240 840H360V960H240V840Z"/>
</mask>
<path d="M240 840H360V960H240V840Z" fill="#121212"/>
<path d="M360 840H361V839H360V840ZM360 960V961H361V960H360ZM240 841H360V839H240V841ZM359 840V960H361V840H359ZM360 959H240V961H360V959Z" fill="white" fill-opacity="0.02" mask="url(#path-173-inside-87_132_751)"/>
<mask id="path-175-inside-88_132_751" fill="white">
<path d="M360 840H480V960H360V840Z"/>
</mask>
<path d="M360 840H480V960H360V840Z" fill="#121212"/>
<path d="M480 840H481V839H480V840ZM480 960V961H481V960H480ZM360 841H480V839H360V841ZM479 840V960H481V840H479ZM480 959H360V961H480V959Z" fill="white" fill-opacity="0.02" mask="url(#path-175-inside-88_132_751)"/>
<mask id="path-177-inside-89_132_751" fill="white">
<path d="M480 840H600V960H480V840Z"/>
</mask>
<path d="M480 840H600V960H480V840Z" fill="#121212"/>
<path d="M600 840H601V839H600V840ZM600 960V961H601V960H600ZM480 841H600V839H480V841ZM599 840V960H601V840H599ZM600 959H480V961H600V959Z" fill="white" fill-opacity="0.02" mask="url(#path-177-inside-89_132_751)"/>
<mask id="path-179-inside-90_132_751" fill="white">
<path d="M600 840H720V960H600V840Z"/>
</mask>
<path d="M600 840H720V960H600V840Z" fill="#121212"/>
<path d="M720 840H721V839H720V840ZM720 960V961H721V960H720ZM600 841H720V839H600V841ZM719 840V960H721V840H719ZM720 959H600V961H720V959Z" fill="white" fill-opacity="0.02" mask="url(#path-179-inside-90_132_751)"/>
<mask id="path-181-inside-91_132_751" fill="white">
<path d="M720 840H840V960H720V840Z"/>
</mask>
<path d="M720 840H840V960H720V840Z" fill="#121212"/>
<path d="M840 840H841V839H840V840ZM840 960V961H841V960H840ZM720 841H840V839H720V841ZM839 840V960H841V840H839ZM840 959H720V961H840V959Z" fill="white" fill-opacity="0.02" mask="url(#path-181-inside-91_132_751)"/>
<mask id="path-183-inside-92_132_751" fill="white">
<path d="M840 840H960V960H840V840Z"/>
</mask>
<path d="M840 840H960V960H840V840Z" fill="#121212"/>
<path d="M960 840H961V839H960V840ZM960 960V961H961V960H960ZM840 841H960V839H840V841ZM959 840V960H961V840H959ZM960 959H840V961H960V959Z" fill="white" fill-opacity="0.02" mask="url(#path-183-inside-92_132_751)"/>
<mask id="path-185-inside-93_132_751" fill="white">
<path d="M960 840H1080V960H960V840Z"/>
</mask>
<path d="M960 840H1080V960H960V840Z" fill="#121212"/>
<path d="M1080 840H1081V839H1080V840ZM1080 960V961H1081V960H1080ZM960 841H1080V839H960V841ZM1079 840V960H1081V840H1079ZM1080 959H960V961H1080V959Z" fill="white" fill-opacity="0.02" mask="url(#path-185-inside-93_132_751)"/>
<mask id="path-187-inside-94_132_751" fill="white">
<path d="M1080 840H1200V960H1080V840Z"/>
</mask>
<path d="M1080 840H1200V960H1080V840Z" fill="#121212"/>
<path d="M1200 840H1201V839H1200V840ZM1200 960V961H1201V960H1200ZM1080 841H1200V839H1080V841ZM1199 840V960H1201V840H1199ZM1200 959H1080V961H1200V959Z" fill="white" fill-opacity="0.02" mask="url(#path-187-inside-94_132_751)"/>
<mask id="path-189-inside-95_132_751" fill="white">
<path d="M1200 840H1320V960H1200V840Z"/>
</mask>
<path d="M1200 840H1320V960H1200V840Z" fill="#121212"/>
<path d="M1320 840H1321V839H1320V840ZM1320 960V961H1321V960H1320ZM1200 841H1320V839H1200V841ZM1319 840V960H1321V840H1319ZM1320 959H1200V961H1320V959Z" fill="white" fill-opacity="0.02" mask="url(#path-189-inside-95_132_751)"/>
<mask id="path-191-inside-96_132_751" fill="white">
<path d="M1320 840H1440V960H1320V840Z"/>
</mask>
<path d="M1320 840H1440V960H1320V840Z" fill="#121212"/>
<path d="M1320 841H1440V839H1320V841ZM1440 959H1320V961H1440V959Z" fill="white" fill-opacity="0.02" mask="url(#path-191-inside-96_132_751)"/>
<mask id="path-193-inside-97_132_751" fill="white">
<path d="M0 960H120V1080H0V960Z"/>
</mask>
<path d="M0 960H120V1080H0V960Z" fill="#121212"/>
<path d="M120 960H121V959H120V960ZM120 1080V1081H121V1080H120ZM0 961H120V959H0V961ZM119 960V1080H121V960H119ZM120 1079H0V1081H120V1079Z" fill="white" fill-opacity="0.02" mask="url(#path-193-inside-97_132_751)"/>
<mask id="path-195-inside-98_132_751" fill="white">
<path d="M120 960H240V1080H120V960Z"/>
</mask>
<path d="M120 960H240V1080H120V960Z" fill="#121212"/>
<path d="M240 960H241V959H240V960ZM240 1080V1081H241V1080H240ZM120 961H240V959H120V961ZM239 960V1080H241V960H239ZM240 1079H120V1081H240V1079Z" fill="white" fill-opacity="0.02" mask="url(#path-195-inside-98_132_751)"/>
<mask id="path-197-inside-99_132_751" fill="white">
<path d="M240 960H360V1080H240V960Z"/>
</mask>
<path d="M240 960H360V1080H240V960Z" fill="#121212"/>
<path d="M360 960H361V959H360V960ZM360 1080V1081H361V1080H360ZM240 961H360V959H240V961ZM359 960V1080H361V960H359ZM360 1079H240V1081H360V1079Z" fill="white" fill-opacity="0.02" mask="url(#path-197-inside-99_132_751)"/>
<mask id="path-199-inside-100_132_751" fill="white">
<path d="M360 960H480V1080H360V960Z"/>
</mask>
<path d="M360 960H480V1080H360V960Z" fill="#121212"/>
<path d="M480 960H481V959H480V960ZM480 1080V1081H481V1080H480ZM360 961H480V959H360V961ZM479 960V1080H481V960H479ZM480 1079H360V1081H480V1079Z" fill="white" fill-opacity="0.02" mask="url(#path-199-inside-100_132_751)"/>
<mask id="path-201-inside-101_132_751" fill="white">
<path d="M480 960H600V1080H480V960Z"/>
</mask>
<path d="M480 960H600V1080H480V960Z" fill="#121212"/>
<path d="M600 960H601V959H600V960ZM600 1080V1081H601V1080H600ZM480 961H600V959H480V961ZM599 960V1080H601V960H599ZM600 1079H480V1081H600V1079Z" fill="white" fill-opacity="0.02" mask="url(#path-201-inside-101_132_751)"/>
<mask id="path-203-inside-102_132_751" fill="white">
<path d="M600 960H720V1080H600V960Z"/>
</mask>
<path d="M600 960H720V1080H600V960Z" fill="#121212"/>
<path d="M720 960H721V959H720V960ZM720 1080V1081H721V1080H720ZM600 961H720V959H600V961ZM719 960V1080H721V960H719ZM720 1079H600V1081H720V1079Z" fill="white" fill-opacity="0.02" mask="url(#path-203-inside-102_132_751)"/>
<mask id="path-205-inside-103_132_751" fill="white">
<path d="M720 960H840V1080H720V960Z"/>
</mask>
<path d="M720 960H840V1080H720V960Z" fill="#121212"/>
<path d="M840 960H841V959H840V960ZM840 1080V1081H841V1080H840ZM720 961H840V959H720V961ZM839 960V1080H841V960H839ZM840 1079H720V1081H840V1079Z" fill="white" fill-opacity="0.02" mask="url(#path-205-inside-103_132_751)"/>
<mask id="path-207-inside-104_132_751" fill="white">
<path d="M840 960H960V1080H840V960Z"/>
</mask>
<path d="M840 960H960V1080H840V960Z" fill="#121212"/>
<path d="M960 960H961V959H960V960ZM960 1080V1081H961V1080H960ZM840 961H960V959H840V961ZM959 960V1080H961V960H959ZM960 1079H840V1081H960V1079Z" fill="white" fill-opacity="0.02" mask="url(#path-207-inside-104_132_751)"/>
<mask id="path-209-inside-105_132_751" fill="white">
<path d="M960 960H1080V1080H960V960Z"/>
</mask>
<path d="M960 960H1080V1080H960V960Z" fill="#121212"/>
<path d="M1080 960H1081V959H1080V960ZM1080 1080V1081H1081V1080H1080ZM960 961H1080V959H960V961ZM1079 960V1080H1081V960H1079ZM1080 1079H960V1081H1080V1079Z" fill="white" fill-opacity="0.02" mask="url(#path-209-inside-105_132_751)"/>
<mask id="path-211-inside-106_132_751" fill="white">
<path d="M1080 960H1200V1080H1080V960Z"/>
</mask>
<path d="M1080 960H1200V1080H1080V960Z" fill="#121212"/>
<path d="M1200 960H1201V959H1200V960ZM1200 1080V1081H1201V1080H1200ZM1080 961H1200V959H1080V961ZM1199 960V1080H1201V960H1199ZM1200 1079H1080V1081H1200V1079Z" fill="white" fill-opacity="0.02" mask="url(#path-211-inside-106_132_751)"/>
<mask id="path-213-inside-107_132_751" fill="white">
<path d="M1200 960H1320V1080H1200V960Z"/>
</mask>
<path d="M1200 960H1320V1080H1200V960Z" fill="#121212"/>
<path d="M1320 960H1321V959H1320V960ZM1320 1080V1081H1321V1080H1320ZM1200 961H1320V959H1200V961ZM1319 960V1080H1321V960H1319ZM1320 1079H1200V1081H1320V1079Z" fill="white" fill-opacity="0.02" mask="url(#path-213-inside-107_132_751)"/>
<mask id="path-215-inside-108_132_751" fill="white">
<path d="M1320 960H1440V1080H1320V960Z"/>
</mask>
<path d="M1320 960H1440V1080H1320V960Z" fill="#121212"/>
<path d="M1320 961H1440V959H1320V961ZM1440 1079H1320V1081H1440V1079Z" fill="white" fill-opacity="0.02" mask="url(#path-215-inside-108_132_751)"/>
</svg>
