<svg width="999" height="771" viewBox="0 0 999 771" fill="none" xmlns="http://www.w3.org/2000/svg">
<rect y="558.106" width="100" height="233.966" rx="50" transform="rotate(-45 0 558.106)" fill="white"/>
<path d="M233.654 226.075C214.127 206.549 214.127 174.891 233.654 155.364V155.364C253.18 135.838 284.838 135.838 304.364 155.364L594.43 445.43C613.956 464.956 613.956 496.615 594.43 516.141V516.141C574.904 535.667 543.246 535.667 523.719 516.141L233.654 226.075Z" fill="white"/>
<rect x="417.803" y="127.382" width="100" height="535.341" rx="50" transform="rotate(-45 417.803 127.382)" fill="white"/>
<rect x="644.885" y="71.6211" width="100" height="400" rx="50" transform="rotate(-45 644.885 71.6211)" fill="white"/>
<rect x="94.9604" y="370.225" width="100" height="441.109" rx="50" transform="rotate(-45 94.9604 370.225)" fill="white"/>
<path d="M125.768 542.453V542.453C172.419 576.496 230.521 518.393 196.479 471.742V471.742L387.321 662.585C407.223 682.487 408.178 714.446 389.5 735.5V735.5V735.5C368.46 754.164 336.524 753.209 316.636 733.321L125.768 542.453Z" fill="white"/>
<path d="M621.044 189.202V189.202C667.592 221.979 724.533 165.038 691.755 118.491V118.491L895.434 322.17V322.17C848.887 289.392 791.946 346.333 824.723 392.881V392.881L621.044 189.202Z" fill="white"/>
<rect x="199.952" y="622.711" width="108.553" height="108.553" rx="54.2767" transform="rotate(-45 199.952 622.711)" stroke="#A6CAFF" stroke-width="45"/>
<rect x="693.341" y="258.983" width="96.443" height="96.443" rx="48.2215" transform="rotate(-45 693.341 258.983)" stroke="#A6CAFF" stroke-width="40"/>
</svg>
