<svg width="82" height="24" viewBox="0 0 82 24" fill="none" xmlns="http://www.w3.org/2000/svg">
<path d="M6.70312 23.3125C5.56771 23.3125 4.52083 23.0208 3.5625 22.4375C2.61458 21.8542 1.85417 21.0781 1.28125 20.1094C0.71875 19.1302 0.4375 18.0573 0.4375 16.8906V15.4219C0.4375 15.3073 0.489583 15.25 0.59375 15.25H4.1875C4.27083 15.25 4.3125 15.3073 4.3125 15.4219V16.8906C4.3125 17.5885 4.54688 18.1927 5.01562 18.7031C5.48438 19.2031 6.04688 19.4531 6.70312 19.4531C7.36979 19.4531 7.9375 19.1979 8.40625 18.6875C8.875 18.1667 9.10938 17.5677 9.10938 16.8906C9.10938 16.1094 8.59896 15.4271 7.57812 14.8438C7.41146 14.7396 7.19271 14.6146 6.92188 14.4688C6.66146 14.3125 6.34896 14.1354 5.98438 13.9375C5.61979 13.7396 5.26562 13.5469 4.92188 13.3594C4.57812 13.1615 4.24479 12.974 3.92188 12.7969C2.75521 12.1094 1.88542 11.25 1.3125 10.2188C0.75 9.17708 0.46875 8.01042 0.46875 6.71875C0.46875 5.53125 0.760417 4.45833 1.34375 3.5C1.92708 2.55208 2.6875 1.80208 3.625 1.25C4.57292 0.6875 5.59896 0.40625 6.70312 0.40625C7.83854 0.40625 8.88021 0.6875 9.82812 1.25C10.776 1.82292 11.5312 2.58333 12.0938 3.53125C12.6667 4.47917 12.9531 5.54167 12.9531 6.71875V9.34375C12.9531 9.42708 12.9115 9.46875 12.8281 9.46875H9.23438C9.15104 9.46875 9.10938 9.42708 9.10938 9.34375L9.07812 6.71875C9.07812 5.96875 8.84375 5.35938 8.375 4.89062C7.90625 4.42188 7.34896 4.1875 6.70312 4.1875C6.04688 4.1875 5.48438 4.4375 5.01562 4.9375C4.54688 5.4375 4.3125 6.03125 4.3125 6.71875C4.3125 7.41667 4.45833 8 4.75 8.46875C5.05208 8.9375 5.59896 9.38542 6.39062 9.8125C6.47396 9.85417 6.66667 9.95833 6.96875 10.125C7.27083 10.2917 7.60417 10.4792 7.96875 10.6875C8.34375 10.8854 8.68229 11.0677 8.98438 11.2344C9.28646 11.3906 9.46875 11.4844 9.53125 11.5156C10.5938 12.1094 11.4323 12.8385 12.0469 13.7031C12.6719 14.5677 12.9844 15.6302 12.9844 16.8906C12.9844 18.1094 12.7031 19.2031 12.1406 20.1719C11.5677 21.1406 10.8073 21.9062 9.85938 22.4688C8.91146 23.0312 7.85938 23.3125 6.70312 23.3125ZM18.9531 23H15.3281C15.2448 23 15.2031 22.9479 15.2031 22.8438L15.2656 0.890625C15.2656 0.786458 15.3073 0.734375 15.3906 0.734375H18.9844C19.0677 0.734375 19.1094 0.786458 19.1094 0.890625V8.46875L24.125 0.859375C24.2083 0.776042 24.2865 0.734375 24.3594 0.734375H28.0312C28.125 0.734375 28.1458 0.776042 28.0938 0.859375L22.5625 9.6875L28.7656 22.875C28.8177 22.9583 28.7656 23 28.6094 23H24.7031C24.599 23 24.5365 22.9583 24.5156 22.875L20.1875 13.4688L19.0781 15.2188V22.8438C19.0781 22.9479 19.0365 23 18.9531 23ZM33.9844 23H30.3594C30.2552 23 30.2031 22.9479 30.2031 22.8438L30.2344 0.859375C30.2344 0.776042 30.276 0.734375 30.3594 0.734375H33.9531C34.0365 0.734375 34.0781 0.776042 34.0781 0.859375L34.1094 22.8438C34.1094 22.9479 34.0677 23 33.9844 23ZM47.3906 23H37.0469C36.9635 23 36.9219 22.9479 36.9219 22.8438L36.9531 0.890625C36.9531 0.786458 37.0052 0.734375 37.1094 0.734375H40.6719C40.776 0.734375 40.8281 0.786458 40.8281 0.890625L40.7969 19.0625H47.3906C47.4948 19.0625 47.5469 19.1146 47.5469 19.2188V22.8438C47.5469 22.9479 47.4948 23 47.3906 23ZM60.1094 23H49.7656C49.6823 23 49.6406 22.9479 49.6406 22.8438L49.6719 0.890625C49.6719 0.786458 49.724 0.734375 49.8281 0.734375H53.3906C53.4948 0.734375 53.5469 0.786458 53.5469 0.890625L53.5156 19.0625H60.1094C60.2135 19.0625 60.2656 19.1146 60.2656 19.2188V22.8438C60.2656 22.9479 60.2135 23 60.1094 23ZM66.1406 23H62.5156C62.4115 23 62.3594 22.9479 62.3594 22.8438L62.3906 0.859375C62.3906 0.776042 62.4323 0.734375 62.5156 0.734375H66.1094C66.1927 0.734375 66.2344 0.776042 66.2344 0.859375L66.2656 22.8438C66.2656 22.9479 66.224 23 66.1406 23ZM75 23.3125C73.8646 23.3125 72.8177 23.0208 71.8594 22.4375C70.9115 21.8542 70.1458 21.0781 69.5625 20.1094C68.9896 19.1302 68.7031 18.0573 68.7031 16.8906L68.7344 6.75C68.7344 5.5625 69.0208 4.49479 69.5938 3.54688C70.1562 2.58854 70.9167 1.82292 71.875 1.25C72.8333 0.666667 73.875 0.375 75 0.375C76.1667 0.375 77.2135 0.661458 78.1406 1.23438C79.0781 1.80729 79.8281 2.57812 80.3906 3.54688C80.9635 4.50521 81.25 5.57292 81.25 6.75L81.2812 16.8906C81.2812 18.0573 81 19.125 80.4375 20.0938C79.8646 21.0729 79.1042 21.8542 78.1562 22.4375C77.2083 23.0208 76.1562 23.3125 75 23.3125ZM75 19.4531C75.6458 19.4531 76.2083 19.1927 76.6875 18.6719C77.1667 18.1406 77.4062 17.5469 77.4062 16.8906L77.375 6.75C77.375 6.04167 77.151 5.44271 76.7031 4.95312C76.2552 4.46354 75.6875 4.21875 75 4.21875C74.3438 4.21875 73.7812 4.45833 73.3125 4.9375C72.8438 5.41667 72.6094 6.02083 72.6094 6.75V16.8906C72.6094 17.5885 72.8438 18.1927 73.3125 18.7031C73.7812 19.2031 74.3438 19.4531 75 19.4531Z" fill="#C6F8FF"/>
</svg>
