<svg width="160" height="43" viewBox="0 0 160 43" fill="none" xmlns="http://www.w3.org/2000/svg">
<g clip-path="url(#clip0_305_40)">
<path d="M160 16.8647C160 26.1696 152.452 33.7173 143.144 33.7173C133.838 33.7173 126.295 26.1696 126.295 16.8647C126.295 7.55618 133.838 0.0121048 143.144 0.0121048C152.452 0.0121048 160 7.55618 160 16.8647Z" fill="#6B489D"/>
<path d="M150.639 21.6033C149.022 23.4807 147.178 24.6483 145.804 25.2155C144.381 25.7969 143.747 25.8159 143.683 24.2227C143.561 21.1563 144.925 15.4694 146.323 10.3639C147.532 5.94092 147.698 5.17403 145.598 4.49037C144.009 3.98029 142.879 4.33223 140.545 6.48309C137.53 9.25936 132.94 15.5645 130.631 20.3656C131.222 20.89 131.877 21.406 132.365 21.7591C132.889 22.1372 133.304 22.0195 133.691 21.4214C135.402 18.7605 138.248 15.9153 141.54 13.919C141.692 13.3756 141.853 12.8382 142.013 12.315C139.291 13.5979 137.063 15.2518 137.063 15.2518C139.88 10.0833 143.963 5.89812 144.71 6.22628C145.188 6.43197 143.552 10.5993 142.381 14.8476C141.038 19.7117 140.361 23.4213 140.57 26.1369C140.763 28.6076 142.701 29.2639 145.59 27.9989C147.765 27.0417 149.821 25.1834 151.324 22.9172L150.669 21.576C150.663 21.5831 150.651 21.5986 150.639 21.6033ZM149.81 10.7836C149.022 10.6338 148.203 10.6029 147.339 10.6885C147.277 10.9061 147.207 11.1629 147.133 11.4507C149.307 10.9489 151.277 11.2438 152.579 13.1117C153.854 14.9546 153.072 17.8236 151.777 20.0089L152.343 21.1337C152.349 21.1182 152.361 21.1087 152.366 21.0921C155.883 13.8191 151.965 11.1796 149.81 10.7836Z" fill="white"/>
<path d="M61.42 16.8647C61.42 17.7933 60.6686 18.5459 59.7376 18.5459C58.8019 18.5459 58.0469 17.7933 58.0469 16.8647C58.0469 15.9313 58.8019 15.1728 59.7376 15.1728C60.6686 15.1728 61.42 15.9313 61.42 16.8647Z" fill="#6B489D"/>
<path d="M5.5767 11.0479L3.57565 18.2198H7.56349L5.5767 11.0479ZM8.90347 22.6797L8.08188 20.0235H3.04537L2.22735 22.6797H0.143066L4.31995 9.18477H6.87745L10.9961 22.6797H8.90347ZM52.7245 9.18477H54.6709V22.6797H52.7245V9.18477ZM48.7878 16.8656C48.7878 16.6028 48.852 15.7515 48.4465 14.9775C48.2313 14.5899 47.6583 13.6791 46.3706 13.691C45.8118 13.691 45.3017 13.867 44.8962 14.2094C43.8702 15.0857 43.8048 16.5255 43.7822 16.8656H48.7878ZM43.8048 18.1663C43.844 18.6146 43.932 18.9142 43.9986 19.0854C44.2958 20.0092 45.0033 20.7583 45.8998 21.0972C46.2648 21.2303 46.7796 21.3718 47.6583 21.3718C48.1659 21.3718 48.9614 21.3326 50.0897 20.9283L50.0719 22.4906C49.6022 22.6595 48.682 22.9175 47.3598 22.9175C46.9734 22.9175 45.662 22.9175 44.5086 22.3396C43.4183 21.8022 41.7906 20.4147 41.8144 17.4387C41.8144 17.0546 41.8358 16.0904 42.2246 15.1083C42.5611 14.27 43.6514 12.1751 46.3932 12.1751C49.0042 12.1751 50.6759 14.119 50.6759 16.667C50.6759 17.0939 50.6509 17.3768 50.4595 18.1663H43.8048ZM40.9405 14.0441H38.0501V19.3422C38.0501 19.4302 38.0335 19.9213 38.1155 20.2613C38.4139 21.2862 39.5268 21.2529 39.7848 21.2529C40.1463 21.2529 40.4697 21.2303 41.1522 21.0484L41.1319 22.6595C40.5125 22.7891 40.0155 22.8521 39.377 22.8521C39.1238 22.8521 38.2011 22.8521 37.4532 22.4431C36.1489 21.7428 36.1049 20.3683 36.1049 19.108V10.476L38.0501 8.96124V12.4307H40.9405V14.0441ZM31.7592 17.5041C30.6071 17.5041 28.996 17.5457 28.0389 18.3423C27.5859 18.7061 27.3505 19.171 27.3505 19.7738C27.3505 20.1365 27.4373 20.4599 27.656 20.7131C28.0603 21.2303 28.788 21.436 30.0721 21.436C30.3693 21.436 31.0173 21.4206 31.7592 21.2862V17.5041ZM26.2614 13.0739C26.4754 12.9729 26.7049 12.8611 26.9403 12.7529C27.4373 12.5591 28.5311 12.1751 29.9436 12.1751C31.4001 12.1751 32.2301 12.5591 32.7235 12.9919C32.8281 13.0739 33.1705 13.3759 33.3453 13.7635C33.5379 14.1678 33.6663 14.6351 33.6663 15.6635L33.6449 22.5334C32.0826 22.8771 30.4989 22.9175 29.9888 22.9175C29.128 22.9175 28.4669 22.8307 28.1423 22.7665C27.549 22.6595 25.4279 22.1886 25.4279 19.907C25.4279 19.4064 25.5111 18.4029 26.5016 17.5695C27.9509 16.3068 30.0079 16.2247 31.7592 16.2247V15.7515C31.7592 15.1523 31.739 14.9359 31.6308 14.6779C31.4227 14.1868 30.8425 13.7148 29.6464 13.7148C28.7261 13.7148 27.656 13.9989 26.8392 14.3806C26.6264 14.4674 26.4302 14.5899 26.2412 14.7004L26.2614 13.0739ZM23.9928 14.4864H23.9714C23.7586 14.3354 23.7419 14.3188 23.6064 14.2534C22.9263 13.867 22.1772 13.8444 21.918 13.8444C21.66 13.8444 21.0846 13.867 20.4639 14.1678C19.7137 14.509 18.5176 15.4269 18.5176 17.4803C18.5176 17.787 18.5176 18.3423 18.7756 19.0069C19.2928 20.3933 20.5008 21.2529 21.9846 21.2529C23.0297 21.2529 23.7419 20.8189 24.057 20.6228L24.0844 22.2731C23.9084 22.3824 23.6991 22.5132 23.5018 22.5751C23.2295 22.7047 22.5197 22.9175 21.6244 22.9175C18.5176 22.8949 16.4868 20.4991 16.4868 17.4803C16.4868 17.1176 16.507 16.2449 16.8708 15.3235C17.2537 14.2938 18.495 12.1751 21.534 12.1751C22.0702 12.1751 22.8859 12.2179 23.9928 12.7529V14.4864ZM12.4407 9.18477H14.3835V22.6797H12.4407V9.18477ZM119.528 14.0441H116.642V19.3422C116.642 19.4302 116.621 19.9213 116.709 20.2613C117.011 21.2862 118.118 21.2529 118.375 21.2529C118.74 21.2529 119.061 21.2303 119.741 21.0484L119.725 22.6595C119.105 22.7891 118.609 22.8521 117.971 22.8521C117.708 22.8521 116.793 22.8521 116.041 22.4431C114.738 21.7428 114.694 20.3683 114.694 19.108V10.476L116.642 8.96124V12.4307H119.528V14.0441ZM105.302 12.414V14.4258C105.413 14.1868 105.578 13.8444 105.729 13.6327C106.666 12.3058 107.91 12.1751 108.508 12.1751C108.878 12.1751 109.86 12.2179 110.693 12.8385C111.975 13.8051 112.017 15.2581 112.017 16.692V22.6797H110.073V16.9274C110.073 16.0238 110.05 15.1297 109.344 14.4674C109.152 14.27 108.679 13.9478 107.932 13.9478C107.652 13.9478 107.034 14.0168 106.434 14.4864C105.367 15.3615 105.389 16.8418 105.389 18.0593V22.6797H103.442V12.414H105.302ZM99.3955 16.8656C99.3955 16.6028 99.4597 15.7515 99.0543 14.9775C98.8391 14.5899 98.2565 13.6791 96.9819 13.691C96.4242 13.691 95.9106 13.867 95.5028 14.2094C94.4743 15.0857 94.4125 16.5255 94.3887 16.8656H99.3955ZM94.4125 18.1663C94.4505 18.6146 94.5421 18.9142 94.6063 19.0854C94.8964 20.0092 95.6086 20.7583 96.511 21.0972C96.8749 21.2303 97.3814 21.3718 98.2565 21.3718C98.7713 21.3718 99.5667 21.3326 100.699 20.9283L100.677 22.4906C100.209 22.6595 99.2849 22.9175 97.9616 22.9175C97.5775 22.9175 96.2756 22.9175 95.114 22.3396C94.0237 21.8022 92.4007 20.4147 92.4209 17.4387C92.4209 17.0546 92.4388 16.0904 92.8264 15.1083C93.1712 14.27 94.2567 12.1751 96.9985 12.1751C99.6095 12.1751 101.275 14.119 101.275 16.667C101.275 17.0939 101.256 17.3768 101.066 18.1663H94.4125ZM91.0263 14.4864H91.0037C90.7944 14.3354 90.7706 14.3188 90.6446 14.2534C89.9609 13.867 89.2131 13.8444 88.9527 13.8444C88.6971 13.8444 88.1204 13.867 87.4998 14.1678C86.7483 14.509 85.5534 15.4269 85.5534 17.4803C85.5534 17.787 85.5534 18.3423 85.8078 19.0069C86.325 20.3933 87.5402 21.2529 89.0205 21.2529C90.0656 21.2529 90.7706 20.8189 91.094 20.6228L91.1166 22.2731C90.949 22.3824 90.7314 22.5132 90.5364 22.5751C90.2606 22.7047 89.5555 22.9175 88.6531 22.9175C85.5534 22.8949 83.5155 20.4991 83.5155 17.4803C83.5155 17.1176 83.5428 16.2449 83.9055 15.3235C84.2871 14.2938 85.5296 12.1751 88.5698 12.1751C89.0989 12.1751 89.9181 12.2179 91.0263 12.7529V14.4864ZM75.088 12.414V18.2353C75.088 19.171 75.1118 20.1971 75.9893 20.7999C76.2235 20.9687 76.7371 21.2054 77.485 21.2054C78.2947 21.1816 78.6859 20.9878 78.9629 20.7738C79.8154 20.0699 79.7524 18.8084 79.7524 17.8429V12.414H81.6987V17.8429C81.6987 19.108 81.6761 19.5812 81.5073 20.2256C81.3527 20.7369 81.0377 21.675 79.8606 22.3396C78.8773 22.9175 77.8476 22.9175 77.4434 22.9175C76.8013 22.9175 76.2651 22.8307 76.0511 22.7665C74.918 22.4906 73.8883 21.7178 73.4639 20.6228C73.1666 19.8594 73.1416 18.9403 73.1416 18.0783V12.414H75.088ZM66.7509 9.18477V20.8629H72.106V22.6797H64.801V9.18477H66.7509Z" fill="black"/>
<path d="M0 40.4434V30.576H4.61205V31.4131H0.964262V35.0347H4.33383V35.8313H0.964262V39.5778H4.61205V40.4434H0Z" fill="#292829"/>
<path d="M10.665 40.4434V36.5304C10.665 36.3759 10.6507 36.2225 10.6507 36.0679C10.6507 35.131 10.036 34.42 9.07178 34.42C8.65207 34.42 8.24663 34.5591 7.9256 34.8242C7.14326 35.4675 7.18368 36.5304 7.18368 37.4519V40.4434H6.27649V33.7339H7.14326V34.9919C7.52016 34.099 8.23236 33.5663 9.21208 33.5663C9.91001 33.5663 10.665 33.8314 11.0847 34.42C11.5318 35.062 11.5734 35.6637 11.5734 36.4317V40.4434H10.665Z" fill="#292829"/>
<path d="M15.4306 40.5415C14.0335 40.5415 13.5568 39.8852 13.5568 38.5702V32.309L14.4663 31.7359V33.7346H16.3818V34.5586H14.4663V38.5428C14.4663 39.3121 14.6482 39.7592 15.5007 39.7592C15.8634 39.7592 16.1987 39.7033 16.5482 39.6189V40.4024C16.1856 40.4987 15.8087 40.5415 15.4306 40.5415Z" fill="#292829"/>
<path d="M22.4173 37.3973H17.917C17.917 37.6898 17.986 37.9716 18.0847 38.2498C18.4627 39.3258 19.4698 39.8145 20.5589 39.8145C21.1047 39.8145 21.6492 39.717 22.1521 39.5208L22.1391 40.3317C21.6219 40.5279 21.0749 40.6123 20.5304 40.6123C18.2523 40.6123 16.9658 39.2557 16.9658 36.9764C16.9658 35.231 17.986 33.5664 19.8883 33.5664C21.4958 33.5664 22.5445 34.866 22.5445 36.4176C22.5445 36.7529 22.4874 37.0751 22.4173 37.3973ZM19.8039 34.3357C18.9229 34.3357 18.3224 34.9789 18.0573 35.7743C17.9586 36.0549 17.917 36.3486 17.8885 36.6423H21.6219V36.4045C21.6492 35.2869 21.006 34.3357 19.8039 34.3357Z" fill="#292829"/>
<path d="M27.0016 34.5032C26.4571 34.5032 25.9399 34.7279 25.5618 35.1179C25.0458 35.6506 24.9197 36.32 24.9197 37.0334V40.4434H24.0114V33.7351H24.8639V35.2451C25.1991 34.2654 25.9541 33.6091 27.0159 33.6091C27.2822 33.6091 27.5188 33.6638 27.7721 33.7351V34.6293C27.5188 34.546 27.268 34.5032 27.0016 34.5032Z" fill="#292829"/>
<path d="M31.7255 40.6117C30.8742 40.6117 30.1608 40.2336 29.7269 39.4941V42.9873H28.8185V33.7347H29.671V35.02C30.105 34.1805 30.8314 33.5658 31.8242 33.5658C33.6683 33.5658 34.6326 35.4111 34.6326 37.0472C34.6326 38.7533 33.641 40.6117 31.7255 40.6117ZM31.7125 34.3636C31.3902 34.3636 31.1108 34.4611 30.8445 34.6288C30.0205 35.1317 29.6995 36.2077 29.6995 37.1161C29.6995 37.9841 29.9658 38.9483 30.7054 39.4644C31.0003 39.6748 31.3629 39.8139 31.7255 39.8139C33.1238 39.8139 33.6969 38.2219 33.6969 37.0472C33.6969 35.8867 33.081 34.3636 31.7125 34.3636Z" fill="#292829"/>
<path d="M39.0921 34.5032C38.5475 34.5032 38.0291 34.7279 37.6522 35.1179C37.135 35.6506 37.0102 36.32 37.0102 37.0334V40.4434H36.1006V33.7351H36.9531V35.2451C37.2884 34.2654 38.0446 33.6091 39.1051 33.6091C39.3715 33.6091 39.6093 33.6638 39.8601 33.7351V34.6293C39.6093 34.546 39.3572 34.5032 39.0921 34.5032Z" fill="#292829"/>
<path d="M41.3555 32.4903C40.9774 32.4903 40.7812 32.3096 40.7812 31.9303C40.7812 31.526 40.9501 31.3298 41.3686 31.3298C41.761 31.3298 41.9572 31.5129 41.9572 31.9172C41.9572 32.3214 41.7479 32.4903 41.3555 32.4903ZM40.9227 33.7339H41.8311V40.4434H40.9227V33.7339Z" fill="#292829"/>
<path d="M45.437 40.6118C44.8068 40.6118 44.1089 40.5286 43.5216 40.3455V39.5346C44.1089 39.7296 44.7248 39.8009 45.3395 39.8009C46.0529 39.8009 46.947 39.6048 46.947 38.7249C46.947 37.1162 43.4098 37.48 43.4098 35.3565C43.4098 34.1129 44.5976 33.5659 45.6736 33.5659C46.3454 33.5659 46.9886 33.6634 47.6307 33.8323V34.6431C46.9886 34.4743 46.3299 34.3768 45.6736 34.3768C45.0874 34.3768 44.3194 34.6289 44.3194 35.3423C44.3194 36.7821 47.897 36.4884 47.897 38.7534C47.897 40.1231 46.6105 40.6118 45.437 40.6118Z" fill="#292829"/>
<path d="M54.382 37.3973H49.8805C49.8805 37.6898 49.9507 37.9716 50.0482 38.2498C50.4263 39.3258 51.4322 39.8145 52.5224 39.8145C53.0682 39.8145 53.6127 39.717 54.1157 39.5208L54.1014 40.3317C53.5842 40.5279 53.0397 40.6123 52.4951 40.6123C50.2158 40.6123 48.9305 39.2557 48.9305 36.9764C48.9305 35.231 49.9507 33.5664 51.8507 33.5664C53.4594 33.5664 54.508 34.866 54.508 36.4176C54.508 36.7529 54.451 37.0751 54.382 37.3973ZM51.7674 34.3357C50.8876 34.3357 50.2872 34.9789 50.0208 35.7743C49.9233 36.0549 49.8805 36.3486 49.8532 36.6423H53.5842V36.4045C53.6127 35.2869 52.9695 34.3357 51.7674 34.3357Z" fill="#292829"/>
</g>
<defs>
<clipPath id="clip0_305_40">
<rect width="160" height="42.9753" fill="white" transform="translate(0 0.012207)"/>
</clipPath>
</defs>
</svg>
