<svg width="110" height="34" viewBox="0 0 110 34" fill="none" xmlns="http://www.w3.org/2000/svg">
<g clip-path="url(#clip0_405_354)">
<path d="M105.35 2.75345C105.35 1.5093 106.354 0.489502 107.583 0.489502C108.177 0.489502 108.73 0.734253 109.16 1.14217C109.59 1.57049 109.816 2.14157 109.816 2.73305C109.816 3.32454 109.59 3.89562 109.16 4.32394C108.73 4.75225 108.177 4.997 107.583 4.997C106.354 4.997 105.35 3.9976 105.35 2.75345ZM105.166 2.75345C105.166 4.09958 106.251 5.20096 107.603 5.20096C108.259 5.20096 108.853 4.95621 109.304 4.4871C109.754 4.018 110.02 3.40612 110.02 2.75345C110.02 2.10078 109.775 1.4889 109.304 1.0198C108.832 0.55069 108.238 0.305939 107.603 0.305939C106.251 0.305939 105.166 1.40732 105.166 2.75345ZM106.682 4.20156H107.03V3.05939H107.808C107.931 3.05939 108.034 3.05939 108.115 3.10018C108.218 3.16137 108.279 3.28374 108.3 3.44691L108.341 3.89562C108.341 3.9976 108.341 4.05879 108.341 4.09958C108.361 4.14037 108.361 4.16077 108.382 4.18116H108.812V4.11998C108.75 4.09958 108.73 4.03839 108.71 3.95681C108.689 3.91602 108.689 3.83443 108.689 3.73245L108.669 3.38572C108.669 3.22256 108.628 3.12058 108.587 3.05939C108.525 2.9982 108.443 2.93701 108.341 2.89622C108.464 2.83503 108.546 2.75345 108.607 2.65147C108.669 2.54949 108.689 2.42711 108.689 2.26395C108.689 1.95801 108.566 1.75405 108.341 1.63167C108.218 1.57049 108.054 1.55009 107.87 1.55009H106.702L106.682 4.20156ZM107.009 2.75345V1.83563H107.829C107.952 1.83563 108.054 1.85603 108.115 1.89682C108.238 1.95801 108.3 2.10078 108.3 2.28434C108.3 2.46791 108.259 2.59028 108.156 2.65147C108.075 2.71266 107.952 2.75345 107.788 2.75345H107.009ZM9.95531 6.11878L0 21.7013H6.80075L16.3873 6.81224L9.95531 6.11878ZM50.9441 5.77205V0H31.5866C28.9441 0.163167 27.797 1.42771 26.9367 2.32514C26.0149 3.28374 25.5028 5.30294 25.5028 5.30294V0.0407918H15.1993C14.4209 0.0407918 13.6834 0.367127 13.1304 1.14217C12.5568 1.89682 10.2011 5.77205 10.2011 5.77205H50.9441ZM103.588 5.77205V0H82.879C80.257 0.163167 79.0894 1.42771 78.2291 2.32514C77.3073 3.28374 76.7952 5.30294 76.7952 5.30294V5.77205H103.588ZM57.7449 0.0203959H51.9479V5.77205H57.7449V0.0203959ZM76.7337 0.0203959H70.9572V5.77205H76.7337V0.0203959ZM76.7337 7.85243L71.0391 7.5057V14.1752C71.0391 14.1752 71.0186 16.0924 69.1546 16.0924H59.4041C59.4041 16.0924 57.7449 15.9496 57.7449 14.1956V6.60828L52.0093 6.20036V16.4187C52.9311 21.3137 57.3762 21.7013 57.3762 21.7013C57.3762 21.7013 57.8268 21.7217 57.9088 21.7421H71.1211C71.1211 21.7421 76.7747 21.2933 76.7747 15.868L76.7337 7.85243ZM19.6034 21.7013H46.6834C51.3948 20.763 51.8864 16.4799 51.8864 16.4799C52.1117 15.2154 51.9888 14.1752 51.9888 14.1752C51.8454 13.3185 50.2067 9.5249 46.6834 9.19856C44.5736 8.9946 25.7896 7.5057 25.7896 7.5057C26.1583 9.38212 26.9981 10.3407 27.5717 10.871C28.8827 12.1152 30.9516 12.4823 30.9516 12.4823C31.4432 12.5231 45.4339 13.6857 45.4339 13.6857C45.8846 13.7061 46.7244 13.8284 46.7039 14.9298C46.7039 15.0726 46.581 16.0312 45.5158 16.0312H25.257V7.46491L19.6238 7.05699C19.6034 7.05699 19.6034 21.7013 19.6034 21.7013ZM76.7747 21.7421H97.5047C102.708 21.4361 103.445 16.5207 103.445 16.5207C103.629 15.2358 103.486 14.1752 103.486 14.1752C103.343 13.0126 101.683 9.5045 98.1397 9.15777C96.0503 8.95381 77.1434 7.85243 77.1434 7.85243C77.6965 9.79004 78.4544 10.3815 79.0279 10.9118C80.3389 12.1764 82.2849 12.4619 82.2849 12.4619C82.7766 12.5027 96.9106 13.6857 96.9106 13.6857C97.3613 13.7061 98.2831 13.7469 98.2831 14.8482C98.2831 15.1746 98.1192 15.5213 97.9144 15.7049C97.9144 15.7049 97.4227 15.97 96.9516 15.97H76.8361L76.7747 21.7421Z" fill="#00539B"/>
<path d="M1.72049 25.4746H0.266113V33.9593H1.72049V25.4746Z" fill="#00539B"/>
<path d="M3.01123 33.9797V25.4746H4.36319L6.12482 30.3492H6.14531V25.4746H7.43581V33.9797H6.18628L4.3427 28.6768H4.32222V33.9797H3.01123Z" fill="#00539B"/>
<path d="M13.499 27.5753C13.4785 27.3918 13.458 27.249 13.3965 27.1266C13.3556 27.0042 13.2736 26.9023 13.2122 26.8411C13.1303 26.7799 13.0688 26.7187 12.9664 26.6779C12.8844 26.6575 12.8025 26.6371 12.7206 26.6371C12.4952 26.6371 12.3109 26.7187 12.188 26.8615C12.0651 27.0042 12.0036 27.2082 12.0036 27.4733C12.0036 27.7181 12.0856 27.9424 12.2289 28.1464C12.3723 28.3504 12.5567 28.5543 12.7615 28.7583C12.9869 28.9622 13.2122 29.1662 13.4785 29.3702C13.7448 29.5741 13.9701 29.7985 14.1954 30.0636C14.4208 30.3084 14.5846 30.5939 14.728 30.8999C14.8714 31.2058 14.9533 31.5525 14.9533 31.9196C14.9533 32.2664 14.8919 32.5927 14.7895 32.8579C14.6666 33.123 14.5232 33.3474 14.3183 33.5309C14.1135 33.7145 13.8882 33.8573 13.6014 33.9388C13.3146 34.0408 13.0073 34.0816 12.6796 34.0816C12.3519 34.0816 12.0446 34.0204 11.7783 33.8981C11.512 33.7757 11.2867 33.5921 11.1023 33.3882C10.918 33.1638 10.7746 32.9191 10.6722 32.6335C10.5697 32.348 10.5083 32.042 10.4878 31.7361L11.8602 31.5321C11.9012 31.9604 11.9831 32.2868 12.147 32.4907C12.3109 32.6947 12.4952 32.8171 12.7206 32.8171C12.9664 32.8171 13.1712 32.7559 13.3351 32.6131C13.499 32.4703 13.5604 32.2868 13.5604 32.042C13.5604 31.7565 13.4785 31.5117 13.3351 31.2874C13.1917 31.063 13.0073 30.8591 12.8025 30.6551C12.5772 30.4511 12.3519 30.2472 12.0856 30.0432C11.8193 29.8393 11.5939 29.6149 11.3686 29.3702C11.1433 29.1254 10.9794 28.8603 10.836 28.5543C10.6926 28.2484 10.6107 27.9017 10.6107 27.4937C10.6107 26.8207 10.7951 26.2904 11.1843 25.9232C11.5735 25.5561 12.1265 25.3726 12.8435 25.3726C13.1303 25.3726 13.3965 25.4133 13.6424 25.5153C13.8677 25.6173 14.0725 25.7601 14.2364 25.9436C14.4003 26.1272 14.5437 26.3516 14.6461 26.5963C14.7485 26.8411 14.81 27.1266 14.8509 27.4121L13.499 27.5753Z" fill="#00539B"/>
<path d="M15.7524 33.9797V25.4746H19.624V26.7596H17.1863V28.9419H19.0504V30.2065H17.1863V32.6948H19.7878V33.9797H15.7524Z" fill="#00539B"/>
<path d="M21.4881 33.9798H20.0747L21.6315 25.4951H23.4341L24.9909 33.9798H23.598L23.3317 32.1034H21.7544L21.4881 33.9798ZM21.9388 30.8185H23.1064L22.5328 27.1676H22.5123L21.9388 30.8185Z" fill="#00539B"/>
<path d="M26.9778 33.9798H25.5234V25.4951H27.5514C28.3503 25.4951 28.9648 25.6787 29.3745 26.0662C29.7841 26.4537 29.989 27.086 29.989 28.0038C29.989 28.3505 29.9685 28.6361 29.9071 28.8808C29.8456 29.1256 29.7637 29.3296 29.6817 29.4927C29.5793 29.6559 29.4769 29.7987 29.354 29.9006C29.2311 30.0026 29.1082 30.0842 28.9853 30.1454L30.2143 34.0002H28.7395L27.7152 30.4921C27.6128 30.5125 27.5104 30.5125 27.367 30.5125C27.2236 30.5125 27.1007 30.5125 26.9573 30.5125L26.9778 33.9798ZM26.9778 29.2888H27.4899C27.6743 29.2888 27.8586 29.2684 27.9815 29.2276C28.1249 29.1868 28.2273 29.1256 28.3093 29.0236C28.3912 28.9216 28.4527 28.7789 28.4936 28.6157C28.5346 28.4525 28.5551 28.2282 28.5551 27.9834C28.5551 27.4735 28.4732 27.1472 28.3093 26.9636C28.1454 26.7801 27.8791 26.6781 27.4899 26.6781H26.9778V29.2888Z" fill="#00539B"/>
<path d="M33.9834 28.3095V27.6568C33.9834 27.2897 33.922 27.0449 33.7786 26.8817C33.6352 26.7186 33.4713 26.637 33.287 26.637C33.0002 26.637 32.7953 26.7186 32.6724 26.8613C32.57 27.0041 32.5086 27.2489 32.5086 27.5752V31.8787C32.5086 32.2051 32.57 32.4294 32.6724 32.5926C32.7748 32.7558 32.9797 32.817 33.287 32.817C33.5532 32.817 33.7376 32.7354 33.84 32.5926C33.9424 32.4498 33.9834 32.2255 33.9834 31.9603V30.9405H35.4173V31.9195C35.4173 32.2255 35.3763 32.4906 35.2739 32.7558C35.192 33.0209 35.0486 33.2453 34.8847 33.4492C34.7004 33.6532 34.4955 33.796 34.2087 33.9183C33.9424 34.0407 33.6147 34.0815 33.2665 34.0815C32.8773 34.0815 32.5495 34.0203 32.2832 33.9183C32.0169 33.796 31.7711 33.6532 31.5868 33.4492C31.4024 33.2453 31.259 33.0209 31.1771 32.7558C31.0951 32.4906 31.0337 32.2051 31.0337 31.9195V27.5344C31.0337 27.2285 31.0747 26.9633 31.1771 26.6778C31.259 26.4126 31.4024 26.1883 31.5868 25.9843C31.7711 25.7804 31.9964 25.6376 32.2832 25.5152C32.5495 25.3928 32.8773 25.3521 33.2665 25.3521C33.6147 25.3521 33.9424 25.4132 34.2087 25.5356C34.475 25.658 34.7004 25.8212 34.8847 26.0455C35.0486 26.2495 35.192 26.4942 35.2739 26.7798C35.3559 27.0653 35.4173 27.3508 35.4173 27.6772V28.3095H33.9834Z" fill="#00539B"/>
<path d="M36.605 33.9797V25.4746H38.0389V28.9419H39.5752V25.4746H41.0296V33.9797H39.5752V30.2065H38.0389V33.9797H36.605Z" fill="#00539B"/>
<path d="M44.4302 27.5344C44.4302 27.2285 44.4711 26.9633 44.5736 26.6778C44.6555 26.4126 44.7989 26.1883 44.9833 25.9843C45.1676 25.7804 45.3929 25.6376 45.6797 25.5152C45.946 25.3928 46.2738 25.3521 46.663 25.3521C47.0522 25.3521 47.3799 25.4132 47.6462 25.5152C47.9125 25.6376 48.1583 25.7804 48.3427 25.9843C48.527 26.1883 48.6704 26.4126 48.7523 26.6778C48.8343 26.9429 48.8957 27.2285 48.8957 27.5344V31.8991C48.8957 32.2051 48.8548 32.4702 48.7523 32.7558C48.6704 33.0209 48.527 33.2453 48.3427 33.4492C48.1583 33.6532 47.933 33.796 47.6462 33.9183C47.3799 34.0407 47.0522 34.0815 46.663 34.0815C46.2738 34.0815 45.946 34.0203 45.6797 33.9183C45.4134 33.796 45.1676 33.6532 44.9833 33.4492C44.7989 33.2453 44.6555 33.0209 44.5736 32.7558C44.4916 32.4906 44.4302 32.2051 44.4302 31.8991V27.5344ZM45.8846 31.8787C45.8846 32.2051 45.946 32.4294 46.0484 32.5926C46.1508 32.7558 46.3557 32.817 46.663 32.817C46.9497 32.817 47.1546 32.7354 47.2775 32.5926C47.3799 32.4498 47.4414 32.2051 47.4414 31.8787V27.5752C47.4414 27.2489 47.3799 27.0245 47.2775 26.8613C47.1751 26.6982 46.9702 26.637 46.663 26.637C46.3762 26.637 46.1713 26.7186 46.0484 26.8613C45.9255 27.0041 45.8846 27.2489 45.8846 27.5752V31.8787Z" fill="#00539B"/>
<path d="M49.9814 33.9797V25.4746H54.0168V26.7596H51.4153V28.9419H53.3613V30.2065H51.4153V33.9797H49.9814Z" fill="#00539B"/>
<path d="M58.2776 25.4746H56.8232V33.9593H58.2776V25.4746Z" fill="#00539B"/>
<path d="M59.5679 33.9797V25.4746H60.9198L62.661 30.3492H62.702V25.4746H63.9925V33.9797H62.7429L60.8993 28.6768H60.8789V33.9797H59.5679Z" fill="#00539B"/>
<path d="M68.0074 28.3096V27.6569C68.0074 27.2898 67.9459 27.045 67.8025 26.8819C67.6591 26.7187 67.4953 26.6371 67.3109 26.6371C67.0241 26.6371 66.8193 26.7187 66.6964 26.8615C66.594 27.0042 66.5325 27.249 66.5325 27.5753V31.8789C66.5325 32.2052 66.594 32.4295 66.6964 32.5927C66.7988 32.7355 67.0036 32.8171 67.3109 32.8171C67.5772 32.8171 67.7615 32.7355 67.864 32.5927C67.9664 32.4499 68.0074 32.2256 68.0074 31.9604V30.9406H69.4617V31.9196C69.4617 32.2256 69.4208 32.4907 69.3183 32.7559C69.2364 33.021 69.093 33.2454 68.9291 33.4493C68.7448 33.6533 68.5399 33.7961 68.2532 33.9185C67.9869 34.0408 67.6591 34.0816 67.3109 34.0816C66.9217 34.0816 66.5939 34.0204 66.3277 33.9185C66.0614 33.7961 65.8156 33.6533 65.6312 33.4493C65.4468 33.2454 65.3034 33.021 65.2215 32.7559C65.1396 32.4907 65.0781 32.2052 65.0781 31.9196V27.5345C65.0781 27.2286 65.1191 26.9634 65.2215 26.6983C65.3034 26.4331 65.4468 26.2088 65.6312 26.0048C65.8156 25.8009 66.0409 25.6581 66.3277 25.5357C66.5939 25.4133 66.9217 25.3726 67.3109 25.3726C67.6591 25.3726 67.9869 25.4337 68.2532 25.5561C68.5195 25.6785 68.7448 25.8417 68.9291 26.066C69.1135 26.27 69.2364 26.5147 69.3183 26.8003C69.4003 27.0858 69.4617 27.3714 69.4617 27.6977V28.33L68.0074 28.3096Z" fill="#00539B"/>
<path d="M72.0838 33.9798H70.6294V25.4951H72.6573C73.4562 25.4951 74.0707 25.6787 74.4804 26.0662C74.8901 26.4537 75.0949 27.086 75.0949 28.0038C75.0949 28.3505 75.0745 28.6361 75.013 28.8808C74.9516 29.1256 74.8696 29.3296 74.7877 29.4927C74.6853 29.6559 74.5828 29.7987 74.4599 29.9006C74.337 30.0026 74.2141 30.0842 74.0912 30.1454L75.3203 34.0002H73.8454L72.8212 30.4921C72.7188 30.5125 72.6164 30.5125 72.473 30.5125C72.3296 30.5125 72.2067 30.5125 72.0633 30.5125V33.9798H72.0838ZM72.0838 29.2888H72.5959C72.7802 29.2888 72.9646 29.2684 73.0875 29.2276C73.2309 29.1868 73.3333 29.1256 73.4152 29.0236C73.4972 28.9216 73.5586 28.7789 73.5996 28.6157C73.6406 28.4525 73.6611 28.2282 73.6611 27.9834C73.6611 27.4735 73.5791 27.1472 73.4152 26.9636C73.2514 26.7801 72.9851 26.6781 72.5959 26.6781H72.0838V29.2888Z" fill="#00539B"/>
<path d="M76.2012 33.9797V25.4746H80.0522V26.7596H77.6351V28.9419H79.4991V30.2065H77.6351V32.6948H80.2161V33.9797H76.2012Z" fill="#00539B"/>
<path d="M81.0762 25.4746H83.227C83.9849 25.4746 84.5585 25.6786 84.9272 26.1069C85.3164 26.5148 85.5008 27.1675 85.5008 28.0445V31.4098C85.5008 32.2868 85.3164 32.9395 84.9272 33.3474C84.538 33.7554 83.9644 33.9797 83.227 33.9797H81.0762V25.4746ZM82.5305 32.7763H83.0222C83.4114 32.7763 83.6777 32.6948 83.8415 32.5112C83.9849 32.348 84.0669 32.0217 84.0669 31.573V27.8609C84.0669 27.4122 83.9849 27.1063 83.8415 26.9227C83.6981 26.7596 83.4114 26.6576 83.0222 26.6576H82.5305V32.7763Z" fill="#00539B"/>
<path d="M88.2664 25.4746H86.812V33.9593H88.2664V25.4746Z" fill="#00539B"/>
<path d="M89.5566 25.4746H91.7075C92.4859 25.4746 93.0594 25.6582 93.4077 26.0457C93.7559 26.4332 93.9403 26.9839 93.9403 27.7182C93.9403 27.9017 93.9198 28.0853 93.8788 28.2689C93.8378 28.4524 93.7764 28.6156 93.6944 28.7787C93.6125 28.9419 93.5101 29.0847 93.3872 29.2071C93.2643 29.3294 93.1004 29.4314 92.9365 29.4926C93.3052 29.6558 93.592 29.9005 93.7969 30.2065C94.0017 30.5124 94.1041 30.9611 94.1041 31.4914C94.1041 31.8381 94.0632 32.1645 93.9812 32.4704C93.8993 32.7763 93.7764 33.0211 93.592 33.2455C93.4077 33.4698 93.1823 33.633 92.8956 33.7554C92.6088 33.8777 92.2605 33.9389 91.8509 33.9389H89.5771L89.5566 25.4746ZM91.011 28.9623H91.5436C91.8099 28.9623 92.0352 28.8603 92.2401 28.6768C92.4244 28.4932 92.5268 28.2281 92.5268 27.8813C92.5268 27.0859 92.2196 26.678 91.5846 26.678H91.0315V28.9623H91.011ZM91.011 32.7763H91.6255C92.0147 32.7763 92.281 32.6744 92.4449 32.45C92.6088 32.2257 92.6702 31.8993 92.6702 31.471C92.6702 31.0223 92.5883 30.696 92.4039 30.492C92.2196 30.288 91.9123 30.1657 91.4822 30.1657H91.011V32.7763Z" fill="#00539B"/>
<path d="M95.0259 33.9797V25.4746H96.4598V32.6948H98.7335V33.9797H95.0259Z" fill="#00539B"/>
<path d="M99.3481 33.9797V25.4746H103.22V26.7596H100.782V28.9419H102.646V30.2065H100.782V32.6948H103.363V33.9797H99.3481Z" fill="#00539B"/>
</g>
<defs>
<clipPath id="clip0_405_354">
<rect width="110" height="34" fill="white"/>
</clipPath>
</defs>
</svg>
