<svg width="64" height="38" viewBox="0 0 64 38" fill="none" xmlns="http://www.w3.org/2000/svg">
<g clip-path="url(#clip0_405_293)">
<path d="M18.0361 13.8011C18.0196 14.4362 18.0985 15.0702 18.2702 15.6821C18.4593 16.2055 18.6871 16.7142 18.9515 17.2043C19.0462 17.3493 19.0979 17.5177 19.1006 17.6905C19.1006 17.9018 18.9728 18.1133 18.6962 18.3245L17.3552 19.2122C17.1934 19.3279 17.001 19.394 16.8018 19.4023C16.5594 19.3858 16.3318 19.2803 16.1633 19.1065C15.8764 18.8005 15.6197 18.4679 15.3967 18.1132C15.1839 17.7539 14.9709 17.3521 14.7369 16.8662C13.0766 18.8103 10.9906 19.7823 8.47877 19.7823C6.69017 19.7823 5.26465 19.2749 4.22167 18.2601C3.17868 17.2453 2.64648 15.8934 2.64648 14.2027C2.64648 12.4063 3.28503 10.948 4.58352 9.84897C5.88202 8.74997 7.60601 8.2004 9.79844 8.2004C10.5535 8.20653 11.3073 8.26304 12.0547 8.36954C12.8423 8.47525 13.6512 8.64426 14.5026 8.83453V7.29168C14.5026 5.68491 14.1619 4.56537 13.5022 3.9101C12.8208 3.25495 11.6716 2.93795 10.0325 2.93795C9.25793 2.93791 8.48612 3.03014 7.73364 3.21267C6.95115 3.39776 6.18292 3.63789 5.43475 3.93124C5.19268 4.03878 4.94382 4.13054 4.68974 4.20596C4.57953 4.24204 4.46495 4.26337 4.34906 4.26939C4.05108 4.26939 3.90203 4.05809 3.90203 3.61424V2.57866C3.90203 2.24039 3.94462 1.98669 4.05108 1.83894C4.2117 1.6463 4.41602 1.49419 4.64728 1.39509C5.50103 0.975664 6.40112 0.656506 7.32932 0.444077C8.41395 0.167746 9.53019 0.0327548 10.6499 0.0425063C13.1834 0.0425063 15.0348 0.613089 16.2268 1.75438C17.3975 2.89566 17.9935 4.62867 17.9935 6.95353V13.8011H18.0361ZM9.39412 17.0136C10.1408 17.0054 10.8813 16.8769 11.5865 16.6331C12.3678 16.3648 13.0649 15.8984 13.6086 15.2801C13.9518 14.8905 14.1995 14.4274 14.3323 13.927C14.4786 13.325 14.5501 12.7075 14.5452 12.0883V11.2016C13.8998 11.0456 13.2461 10.9256 12.5872 10.8423C11.9234 10.7588 11.2551 10.7166 10.586 10.716C9.1599 10.716 8.11691 10.9907 7.41449 11.5617C6.71207 12.1326 6.37151 12.9354 6.37151 13.9921C6.37151 14.9854 6.62702 15.7251 7.1591 16.2324C7.67013 16.7608 8.41501 17.0144 9.39412 17.0144V17.0136ZM26.4865 19.2961C26.1034 19.2961 25.848 19.2327 25.6776 19.0849C25.5073 18.958 25.3584 18.662 25.2306 18.2606L20.2283 1.92351C20.1313 1.65004 20.067 1.36621 20.0368 1.07784C20.0368 0.739577 20.2071 0.549423 20.5478 0.549423H22.6337C23.0382 0.549423 23.3151 0.612848 23.4639 0.760718C23.6343 0.887568 23.7619 1.18355 23.8898 1.585L27.4658 15.5761L30.7862 1.58536C30.8927 1.16253 31.0203 0.887931 31.1907 0.761081C31.361 0.634231 31.659 0.549785 32.0424 0.549785H33.7458C34.1502 0.549785 34.4272 0.61321 34.5975 0.761081C34.7679 0.887931 34.9168 1.18391 35.002 1.58536L38.3651 15.7456L42.0463 1.58536C42.1741 1.16253 42.323 0.887931 42.4722 0.761081C42.6425 0.634231 42.9192 0.549785 43.3024 0.549785H45.282C45.6227 0.549785 45.8142 0.718918 45.8142 1.07821C45.8092 1.19192 45.795 1.30504 45.7716 1.41647C45.7383 1.59675 45.6884 1.77363 45.6226 1.94489L40.4927 18.282C40.365 18.7046 40.216 18.9794 40.0457 19.1062C39.805 19.2592 39.5221 19.3331 39.2368 19.3175H37.4061C37.0016 19.3175 36.7247 19.2541 36.5544 19.1062C36.384 18.9584 36.2351 18.6834 36.1499 18.2606L32.8509 4.62867L29.5728 18.2394C29.4663 18.6623 29.3387 18.9369 29.1683 19.0851C28.998 19.2333 28.7 19.2964 28.3166 19.2964L26.4865 19.2961ZM53.8387 19.8667C52.7348 19.8679 51.6345 19.7402 50.5607 19.4863C49.4964 19.2326 48.6662 18.9579 48.1128 18.6406C47.7722 18.4505 47.5382 18.2391 47.453 18.0487C47.3701 17.8621 47.3266 17.6606 47.3253 17.4567V16.3796C47.3253 15.9357 47.4956 15.7244 47.8149 15.7244C47.9452 15.7249 48.0746 15.7463 48.198 15.7878C48.3258 15.8301 48.5173 15.9147 48.7302 15.9991C49.4821 16.3275 50.267 16.5754 51.0717 16.7389C51.9054 16.9069 52.754 16.9919 53.6047 16.9926C54.9457 16.9926 55.9888 16.7601 56.7125 16.2951C57.0592 16.0874 57.3443 15.7922 57.5388 15.4395C57.7333 15.0869 57.8302 14.6893 57.8197 14.2874C57.8272 14.0153 57.7803 13.7445 57.6816 13.4905C57.583 13.2366 57.4346 13.0046 57.245 12.808C56.8619 12.4064 56.1378 12.0469 55.0952 11.7086L52.0081 10.7577C50.4542 10.2717 49.3048 9.55311 48.6025 8.60185C47.9172 7.72474 47.543 6.64736 47.5382 5.53728C47.5209 4.71896 47.719 3.91032 48.1128 3.19128C48.4931 2.51134 49.0159 1.92036 49.6459 1.45827C50.3094 0.959584 51.0599 0.586874 51.8597 0.358906C52.731 0.109881 53.6344 -0.0109648 54.5411 0.000223001C55.0178 -0.00320861 55.4943 0.0250434 55.9672 0.0847896C56.4568 0.148215 56.9041 0.232781 57.3508 0.317227C57.7766 0.422935 58.1809 0.528523 58.5641 0.655493C58.8747 0.75089 59.1744 0.878399 59.4581 1.03592C59.7088 1.16141 59.9272 1.34216 60.0967 1.56434C60.2351 1.77 60.3023 2.01482 60.2882 2.26178V3.25507C60.2882 3.69892 60.1179 3.9316 59.7986 3.9316C59.6282 3.9316 59.3516 3.84704 58.9897 3.6779C57.7764 3.12838 56.4141 2.85362 54.9028 2.85362C53.6895 2.85362 52.7317 3.04377 52.0719 3.44559C51.412 3.8474 51.0715 4.46039 51.0715 5.32659C51.0656 5.60723 51.1195 5.88594 51.2295 6.14451C51.3395 6.40308 51.5033 6.63569 51.71 6.82716C52.1359 7.22873 52.9233 7.63031 54.0515 7.98959L57.0741 8.94012C58.6072 9.42626 59.7135 10.1025 60.3734 10.969C61.0231 11.8192 61.3678 12.8607 61.3525 13.9279C61.3635 14.7768 61.1739 15.6164 60.7991 16.3794C60.4214 17.1028 59.8915 17.7371 59.2452 18.2393C58.5425 18.7825 57.74 19.1846 56.8824 19.4232C55.8965 19.7243 54.87 19.874 53.8385 19.8671L53.8387 19.8667Z" fill="#252F3E"/>
<path d="M57.8612 30.1375C50.8582 35.2732 40.6837 37.9995 31.9352 37.9995C19.6746 38 8.62726 33.4983 0.283523 26.0167C-0.376311 25.4247 0.219645 24.6218 1.00724 25.0865C10.0323 30.2856 21.1648 33.4344 32.6804 33.4344C40.4497 33.4344 48.9852 31.8276 56.8397 28.5311C58.0104 28.0027 59.0108 29.2922 57.8617 30.1379L57.8612 30.1375Z" fill="#FF9900"/>
<path d="M60.7776 26.8411C59.8835 25.6998 54.8601 26.2916 52.5825 26.5663C51.9012 26.6509 51.7949 26.0589 52.4122 25.6153C56.4139 22.8256 62.9912 23.6286 63.7575 24.5586C64.524 25.5096 63.5447 32.0402 59.7984 35.1682C59.2237 35.6543 58.6702 35.4006 58.9256 34.7666C59.7772 32.6742 61.6717 27.9612 60.7776 26.8411Z" fill="#FF9900"/>
</g>
<defs>
<clipPath id="clip0_405_293">
<rect width="64" height="38" fill="white"/>
</clipPath>
</defs>
</svg>
