<svg width="160" height="39" viewBox="0 0 160 39" fill="none" xmlns="http://www.w3.org/2000/svg">
<g clip-path="url(#clip0_305_10)">
<path d="M47.7965 10.1698C46.0039 10.1682 44.2551 10.7234 42.7918 11.7588V0.788086H39.0964V26.9276H42.7918V25.9761C43.9094 26.7626 45.1966 27.2745 46.5491 27.4704C47.9016 27.6663 49.2812 27.5406 50.576 27.1037C51.8709 26.6667 53.0445 25.9306 54.0016 24.9552C54.9588 23.9799 55.6726 22.7926 56.0851 21.4897C56.4977 20.1869 56.5973 18.8052 56.3759 17.4566C56.1546 16.1081 55.6185 14.8307 54.8111 13.7281C54.0038 12.6255 52.9479 11.7287 51.7292 11.1105C50.5104 10.4923 49.1631 10.17 47.7965 10.1698ZM47.7965 23.8698C46.807 23.8703 45.8397 23.5773 45.0167 23.0279C44.1938 22.4786 43.5522 21.6975 43.1732 20.7835C42.7943 19.8695 42.6948 18.8636 42.8876 17.8931C43.0803 16.9226 43.5565 16.031 44.256 15.3312C44.9555 14.6314 45.8468 14.1547 46.8173 13.9615C47.7877 13.7683 48.7936 13.8672 49.7078 14.2457C50.622 14.6243 51.4034 15.2654 51.9531 16.0881C52.5029 16.9108 52.7964 17.878 52.7964 18.8675C52.7951 20.1933 52.268 21.4646 51.3307 22.4023C50.3934 23.3401 49.1224 23.8678 47.7965 23.8698Z" fill="black"/>
<path d="M120.244 18.7373C120.216 16.793 119.538 14.914 118.318 13.3999C117.098 11.8859 115.406 10.8239 113.512 10.3835C111.618 9.94303 109.631 10.1494 107.868 10.9697C106.105 11.79 104.667 13.177 103.784 14.9095C102.901 16.642 102.624 18.6202 102.996 20.5288C103.368 22.4373 104.369 24.1663 105.838 25.4399C107.307 26.7136 109.161 27.4586 111.103 27.5562C113.045 27.6538 114.964 27.0983 116.553 25.9784V29.5119C116.568 30.1779 116.45 30.8402 116.205 31.4599C115.96 32.0796 115.594 32.6441 115.129 33.1204C114.663 33.5967 114.106 33.9751 113.492 34.2335C112.878 34.4918 112.219 34.6249 111.552 34.6249C110.886 34.6249 110.227 34.4918 109.613 34.2335C108.998 33.9751 108.442 33.5967 107.976 33.1204C107.51 32.6441 107.144 32.0796 106.9 31.4599C106.655 30.8402 106.537 30.1779 106.551 29.5119H102.854C102.854 31.8186 103.77 34.0309 105.401 35.662C107.032 37.2931 109.244 38.2095 111.551 38.2095C113.858 38.2095 116.07 37.2931 117.701 35.662C119.332 34.0309 120.249 31.8186 120.249 29.5119V18.7373H120.244ZM111.551 23.8696C110.562 23.8701 109.594 23.5771 108.771 23.0277C107.948 22.4784 107.307 21.6973 106.928 20.7833C106.549 19.8693 106.45 18.8634 106.642 17.8929C106.835 16.9224 107.311 16.0308 108.011 15.331C108.71 14.6312 109.602 14.1545 110.572 13.9613C111.542 13.7681 112.548 13.867 113.462 14.2455C114.377 14.6241 115.158 15.2652 115.708 16.0879C116.258 16.9106 116.551 17.8778 116.551 18.8673C116.55 20.1931 116.023 21.4644 115.085 22.4021C114.148 23.3399 112.877 23.8676 111.551 23.8696Z" fill="black"/>
<path d="M145.792 5.0083H142.097V21.332H145.792V5.0083Z" fill="black"/>
<path d="M145.792 23.3428H142.097V26.9278H145.792V23.3428Z" fill="black"/>
<path d="M77.7318 19.1226C77.7318 19.0392 77.7318 18.9534 77.7318 18.8774C77.7344 16.9254 77.0815 15.0291 75.8776 13.4925C74.6738 11.956 72.9888 10.8682 71.0929 10.4037C69.197 9.9391 67.2 10.1247 65.4222 10.9306C63.6444 11.7366 62.1887 13.1162 61.2887 14.8483C60.3886 16.5804 60.0962 18.5645 60.4585 20.4826C60.8208 22.4007 61.8167 24.1415 63.2865 25.426C64.7563 26.7104 66.6149 27.4641 68.5642 27.5661C70.5135 27.6681 72.4406 27.1125 74.0365 25.9885V26.9374H77.7343V19.1226H77.7318ZM69.0513 23.8699C68.062 23.8699 67.0948 23.5765 66.2722 23.0268C65.4496 22.4772 64.8084 21.6959 64.4298 20.7819C64.0512 19.8678 63.9522 18.862 64.1452 17.8917C64.3382 16.9213 64.8146 16.03 65.5142 15.3304C66.2138 14.6308 67.1051 14.1544 68.0754 13.9614C69.0458 13.7684 70.0516 13.8674 70.9656 14.246C71.8797 14.6247 72.6609 15.2658 73.2106 16.0884C73.7603 16.9111 74.0536 17.8782 74.0536 18.8676C74.0523 20.1939 73.5249 21.4655 72.5871 22.4033C71.6492 23.3411 70.3776 23.8686 69.0513 23.8699Z" fill="black"/>
<path d="M130.05 15.0103C130.946 14.2677 132.074 13.8625 133.238 13.8652H137.171V10.1698H133.228C131.436 10.1682 129.688 10.7235 128.226 11.7588V0.788086H124.53V26.9276H128.226V25.9786C128.338 26.0571 128.451 26.1331 128.566 26.2042C128.855 26.3852 129.154 26.5489 129.461 26.6946C129.899 26.9061 130.355 27.0792 130.822 27.212C130.965 27.2537 131.107 27.2905 131.251 27.3248C131.9 27.4765 132.564 27.5538 133.23 27.5553H137.171V23.8698H133.228C132.196 23.8731 131.189 23.5572 130.344 22.9654C129.5 22.3736 128.859 21.5349 128.509 20.5643C128.16 19.5938 128.12 18.5389 128.394 17.5445C128.668 16.5501 129.243 15.6649 130.04 15.0103H130.05Z" fill="black"/>
<path d="M160 13.9732V10.3882H155V5.0083H151.295V18.9853C151.327 21.2706 152.257 23.4515 153.883 25.0573C155.51 26.663 157.702 27.5647 159.988 27.5677V23.8699C158.662 23.868 157.391 23.3402 156.454 22.4025C155.516 21.4647 154.989 20.1935 154.988 18.8676V13.9634L160 13.9732Z" fill="black"/>
<path d="M99.6243 18.8677C99.6257 17.2551 99.1785 15.6738 98.3325 14.3009C97.4865 12.928 96.2752 11.8175 94.8341 11.0938C93.393 10.37 91.7789 10.0616 90.1725 10.2029C88.566 10.3442 87.0306 10.9297 85.738 11.8939H82.229V26.9278H85.9268V18.8677C85.912 18.2016 86.0305 17.5393 86.2752 16.9197C86.5199 16.3 86.8859 15.7355 87.3518 15.2592C87.8176 14.7829 88.3739 14.4045 88.988 14.1461C89.6021 13.8878 90.2616 13.7547 90.9279 13.7547C91.5941 13.7547 92.2536 13.8878 92.8677 14.1461C93.4818 14.4045 94.0381 14.7829 94.504 15.2592C94.9698 15.7355 95.3358 16.3 95.5805 16.9197C95.8252 17.5393 95.9437 18.2016 95.9289 18.8677V26.9278H99.6267V18.8677H99.6243Z" fill="black"/>
<path d="M13.0305 13.8945C16.4859 13.8978 19.7989 15.2715 22.2426 17.7144C24.6864 20.1572 26.0614 23.4697 26.0659 26.925H20.5266C20.526 24.9367 19.7361 23.0299 18.3306 21.6235C16.9251 20.217 15.0189 19.426 13.0305 19.424V13.8945Z" fill="#FF0000"/>
<path d="M0 19.424V13.8945C3.45536 13.8984 6.76808 15.2728 9.21139 17.7161C11.6547 20.1594 13.0291 23.4721 13.0329 26.9275H7.49609C7.49609 24.9387 6.70656 23.0313 5.30098 21.6243C3.89541 20.2174 1.98876 19.426 0 19.424Z" fill="#FF0000"/>
<path d="M13.0329 13.8948H7.49609C7.49414 11.9073 6.70375 10.0018 5.29839 8.59639C3.89302 7.19102 1.98749 6.40063 0 6.39868L0 0.859375C3.45578 0.86327 6.76887 2.23797 9.21225 4.68181C11.6556 7.12565 13.0297 10.439 13.0329 13.8948Z" fill="#FF0000"/>
<path d="M26.0635 13.8948H20.5266C20.5247 11.9077 19.7346 10.0026 18.3298 8.59726C16.9249 7.19196 15.02 6.40128 13.033 6.39868V0.859375C16.4883 0.863919 19.8008 2.2389 22.2436 4.68267C24.6865 7.12644 26.0602 10.4394 26.0635 13.8948Z" fill="#FF0000"/>
</g>
<defs>
<clipPath id="clip0_305_10">
<rect width="160" height="37.4241" fill="white" transform="translate(0 0.788086)"/>
</clipPath>
</defs>
</svg>
