<svg width="203" height="45" viewBox="0 0 203 45" fill="none" xmlns="http://www.w3.org/2000/svg">
<path d="M43.2883 16.5864H49.2182V37.01H43.2534L43.2883 16.5864Z" fill="#013F6A"/>
<path d="M32.886 21.406C33.0586 21.406 34.1689 21.6145 34.1689 23.2087C34.1689 24.803 33.0945 24.769 33.0945 24.769H29.3484V21.3711C29.3484 21.3711 32.7124 21.406 32.886 21.406ZM22.8997 16.6902V37.3571H29.2107V29.7282H31.3606C31.3606 29.7282 32.47 29.7971 33.3709 32.78C34.2718 35.7619 34.6189 36.9411 35.001 37.2184H40.9309C40.9309 37.2184 39.3706 32.2253 38.6423 30.2141C37.914 28.2037 37.6367 27.683 37.082 27.2321C37.082 27.2321 40.1337 25.8105 40.1337 22.204C40.1337 18.5976 36.6311 16.6553 34.4123 16.6553C32.1935 16.6553 22.8997 16.6902 22.8997 16.6902Z" fill="#013F6A"/>
<path d="M3.48071 16.6904H19.7092V21.3365H9.79173V24.458H19.1545V29.2427H9.86153V32.3642H19.7092V37.3574H3.48071V16.6904Z" fill="#013F6A"/>
<path d="M68.7408 21.9609L69.2257 17.1763C69.2257 17.1763 66.7985 15.9971 63.1223 15.9971C59.447 15.9971 51.3323 17.6621 51.3323 26.3305C51.3323 34.999 57.6433 37.6347 62.9836 37.6347C65.4108 37.6347 68.6701 37.0112 69.4333 36.5951L69.0862 31.8104C69.0862 31.8104 66.4514 32.9198 63.8156 32.9198C61.1799 32.9198 57.6433 31.1171 57.6433 26.8164C57.6433 22.5156 60.7639 20.5751 63.5383 20.5751C66.3127 20.5751 68.7408 21.9609 68.7408 21.9609Z" fill="#013F6A"/>
<path d="M80.2525 15.997C80.2525 15.997 71.0293 15.581 71.0293 22.4467C71.0293 25.9834 72.9018 27.371 75.2602 28.2031C77.6177 29.0351 80.8769 29.5898 80.8769 31.2539C80.8769 32.918 78.1026 32.9878 77.5479 32.9878C76.9932 32.9878 71.7227 31.7397 71.7227 31.7397L71.584 36.5253C71.584 36.5253 74.6357 37.4969 78.0337 37.4969C81.4316 37.4969 86.7719 36.7338 86.7719 30.2143C86.7719 26.539 83.8589 25.5674 82.6797 25.0127C81.5005 24.458 77.2016 23.557 77.2016 22.3081C77.2016 21.0591 79.212 20.4355 80.0449 20.4355C80.8779 20.4355 85.3852 21.4062 85.3852 21.4062V17.0376C85.3852 17.0376 83.3042 15.997 80.2525 15.997Z" fill="#013F6A"/>
<path d="M97.3479 15.9272C97.3479 15.9272 88.1248 15.5112 88.1248 22.3769C88.1248 25.9145 89.9973 27.3012 92.3548 28.1332C94.7122 28.9653 97.9724 29.5209 97.9724 31.185C97.9724 32.8491 95.198 32.9189 94.6433 32.9189C94.0886 32.9189 88.8172 31.6708 88.8172 31.6708L88.6785 36.4564C88.6785 36.4564 91.7303 37.4271 95.1282 37.4271C98.5262 37.4271 103.866 36.664 103.866 30.1454C103.866 26.4701 100.954 25.4984 99.7743 24.9438C98.5951 24.3891 94.2953 23.4872 94.2953 22.2392C94.2953 20.9911 96.3065 20.3666 97.1395 20.3666C97.9724 20.3666 102.479 21.3373 102.479 21.3373V16.9687C102.479 16.9687 100.399 15.9272 97.3479 15.9272Z" fill="#013F6A"/>
<path d="M125.4 26.5381C125.4 37.1489 115.137 37.3565 114.789 37.3565C114.442 37.3565 104.525 36.8018 104.525 26.6768C104.525 16.5509 114.928 15.9971 114.928 15.9971C114.928 15.9971 125.4 15.9273 125.4 26.5381ZM114.859 20.3658C114.859 20.3658 110.698 21.1289 110.698 26.4692C110.698 31.8095 113.957 32.9878 114.928 32.9878C115.899 32.9878 119.158 32.0171 119.158 26.6079C119.158 21.1987 114.859 20.3658 114.859 20.3658Z" fill="#013F6A"/>
<path d="M127.481 16.1357V36.7329H133.515V25.6372L139.756 36.664H147.108V15.9971H141.073V27.7173L134.693 16.1357H127.481Z" fill="#013F6A"/>
<path d="M173.148 19.7751C170.988 20.6108 168.561 19.5364 167.725 17.3773C166.89 15.2173 167.964 12.79 170.124 11.9552L194.165 2.65952C196.325 1.8238 198.752 2.89829 199.587 5.05737C200.423 7.21737 199.348 9.64462 197.189 10.4794L173.148 19.7751Z" fill="#013F6A"/>
<path d="M173.148 31.5506C170.988 32.3854 168.561 31.3118 167.725 29.1527C166.89 26.9927 167.964 24.5645 170.124 23.7307L194.165 14.434C196.325 13.5992 198.752 14.6728 199.587 16.8328C200.423 18.9928 199.348 21.4201 197.189 22.2548L173.148 31.5506Z" fill="#013F6A"/>
<path d="M173.148 42.7483C170.988 43.584 168.561 42.5095 167.725 40.3504C166.89 38.1904 167.964 35.7632 170.124 34.9284L194.165 25.6327C196.325 24.7969 198.752 25.8714 199.587 28.0305C200.423 30.1905 199.348 32.6178 197.189 33.4526L173.148 42.7483Z" fill="#013F6A"/>
</svg>
