<svg width="111" height="30" viewBox="0 0 111 30" fill="none" xmlns="http://www.w3.org/2000/svg">
<path d="M62.8817 10.1113C62.8817 6.88911 62.9372 3.88911 63.1037 1.11133L54.6122 2.72244V3.50022L55.4447 3.61133C56.0552 3.66688 56.4437 3.88911 56.6657 4.22244C56.8877 4.61133 57.0542 5.16688 57.1652 6.00022C57.2762 7.61133 57.3872 11.278 57.3317 17.0558C57.3317 22.778 57.2762 26.3891 57.1652 27.778C60.2177 28.4447 62.6042 28.7224 64.3802 28.7224C67.7102 28.7224 70.3187 27.778 72.2057 25.8336C74.0927 23.9447 75.0917 21.278 75.0917 18.0002C75.0917 15.3891 74.3702 13.2224 72.9272 11.5002C71.4842 9.778 69.6527 8.94466 67.4882 8.94466C66.0452 8.94466 64.5467 9.33355 62.8817 10.1113ZM63.0482 27.2224C62.9372 25.4447 62.8262 20.1113 62.8262 11.3891C63.3257 11.2224 63.9917 11.1113 64.8242 11.1113C66.1562 11.1113 67.2107 11.778 67.9877 13.1669C68.7647 14.5558 69.1532 16.2224 69.1532 18.3336C69.1532 20.9447 68.7092 23.0558 67.8212 24.8336C66.9332 26.5558 65.8232 27.4447 64.4357 27.4447C63.9917 27.3336 63.5477 27.278 63.0482 27.2224ZM22.7552 1.66688H0.555176V2.77799L1.72068 2.88911C2.60868 3.05577 3.21918 3.38911 3.60768 3.88911C3.99618 4.44466 4.21818 5.33355 4.27368 6.55577C4.71768 12.5558 4.71768 18.1669 4.27368 23.3336C4.16268 24.5558 3.94068 25.4447 3.60768 26.0002C3.21918 26.5558 2.60868 26.8891 1.72068 27.0002L0.555176 27.1669V28.278H14.8742V27.1669L13.3757 27.0558C13.01 27.0251 12.6543 26.9208 12.33 26.7489C12.0057 26.577 11.7195 26.3413 11.4887 26.0558C11.1002 25.5002 10.8782 24.6113 10.8227 23.3891C10.6562 21.1669 10.5452 18.6113 10.5452 15.778L13.5422 15.8336C15.1517 15.8891 16.2617 17.1113 16.8167 19.5558H17.9267V10.5002H16.8167C16.2617 12.8891 15.2072 14.1113 13.5422 14.1669L10.5452 14.2224C10.5452 9.22244 10.6562 5.66688 10.8227 3.50022H15.2072C18.3152 3.50022 20.4242 5.50022 21.6452 9.50022L22.9772 9.11133L22.7552 1.66688ZM20.1467 18.778C20.1467 21.6669 20.9792 24.0558 22.5887 25.9447C24.1982 27.8336 26.5847 28.7224 29.5817 28.7224C32.5787 28.7224 35.0207 27.778 36.7967 25.8336C38.5727 23.9447 39.4052 21.5558 39.4052 18.6669C39.4052 15.778 38.5727 13.3891 36.9632 11.5002C35.3537 9.61133 32.9672 8.72244 29.9702 8.72244C26.9732 8.72244 24.5312 9.66688 22.7552 11.6113C20.9792 13.5002 20.1467 15.8891 20.1467 18.778ZM32.5232 12.4447C33.1892 14.0558 33.4667 16.1669 33.4667 18.7224C33.4667 24.6113 32.2457 27.5002 29.8592 27.5002C28.6382 27.5002 27.6947 26.6669 27.0287 25.0002C26.3627 23.3336 26.0852 21.2224 26.0852 18.7224C26.0852 12.8891 27.3062 10.0002 29.6927 10.0002C30.9137 9.94466 31.8572 10.778 32.5232 12.4447ZM79.4207 25.9447C81.2522 27.778 83.5832 28.7224 86.3582 28.7224C88.0787 28.7224 89.5772 28.3891 90.9092 27.6669C92.2412 27.0002 93.2957 26.1669 94.0172 25.1669L93.4622 24.5002C92.2412 25.4447 90.8537 25.8891 89.2442 25.8891C87.0242 25.8891 85.3037 25.1669 84.1382 23.6669C82.9172 22.1669 82.3622 20.278 82.4732 17.8336H94.3502C94.3502 15.1669 93.6842 13.0002 92.2967 11.278C90.9092 9.61133 88.9667 8.778 86.4692 8.778C83.3612 8.778 80.9747 9.778 79.2542 11.7224C77.5337 13.6669 76.7012 16.0558 76.7012 18.8891C76.7012 21.778 77.5892 24.1113 79.4207 25.9447ZM83.5277 12.0002C84.1382 10.6669 84.9152 10.0002 85.9697 10.0002C87.6347 10.0002 88.4672 12.1113 88.4672 16.3891L82.5842 16.5002C82.6397 14.8336 82.9172 13.3336 83.5277 12.0002ZM109.28 9.778C107.781 9.11133 105.894 8.72244 103.619 8.72244C101.288 8.72244 99.4562 9.33355 98.0687 10.5002C96.6812 11.6669 95.9597 13.1113 95.9597 14.8336C95.9597 16.3336 96.4037 17.5002 97.2362 18.3336C98.0687 19.1669 99.4007 19.8891 101.121 20.5002C102.675 21.0558 103.785 21.6113 104.34 22.1113C104.895 22.6669 105.228 23.278 105.228 24.1113C105.228 24.8891 104.951 25.6113 104.34 26.1669C103.785 26.778 103.008 27.0558 102.009 27.0558C99.5672 27.0558 97.7357 25.278 96.4592 21.7224L95.5157 22.0002L95.7377 27.5558C97.7357 28.3336 99.9557 28.7224 102.398 28.7224C104.951 28.7224 106.893 28.1669 108.336 27.0002C109.779 25.8891 110.501 24.278 110.501 22.278C110.501 20.9447 110.168 19.8336 109.446 19.0002C108.725 18.1669 107.559 17.4447 105.894 16.778C104.063 16.1113 102.786 15.5002 102.12 14.9447C101.454 14.3891 101.121 13.7224 101.121 12.8891C101.121 12.0558 101.343 11.3891 101.843 10.8336C102.342 10.278 102.953 10.0558 103.73 10.0558C105.95 10.0558 107.559 11.6669 108.558 14.8336L109.502 14.5558L109.28 9.778ZM55.8887 9.278C55.1117 8.88911 54.2792 8.72244 53.3357 8.72244C52.3922 8.72244 51.4487 9.11133 50.3942 9.88911C49.3397 10.6669 48.5627 11.7224 47.9522 13.1669L48.0077 8.72244L39.5717 10.3891V11.1669L40.4042 11.2224C41.4587 11.3336 42.0692 12.1669 42.1802 13.6669C42.5132 17.1113 42.5132 20.778 42.1802 24.6669C42.0692 26.1669 41.4587 26.9447 40.4042 27.1113L39.5717 27.2224V28.278H51.3377V27.2224L49.8392 27.1113C48.7847 27.0002 48.1742 26.1669 48.0632 24.6669C47.7302 21.4447 47.6747 18.0002 47.9522 14.4447C48.2852 13.8891 49.0067 13.5558 50.1167 13.4447C51.2267 13.3336 52.5032 13.6669 53.8352 14.4447L55.8887 9.278Z" fill="#33629A"/>
</svg>
