<svg width="140" height="45" viewBox="0 0 140 45" fill="none" xmlns="http://www.w3.org/2000/svg">
<g clip-path="url(#clip0_305_3)">
<path d="M135.639 27.5014L139.523 30.0377C138.263 31.8565 135.248 34.9768 130.035 34.9768C123.562 34.9768 118.742 30.0711 118.742 23.8305C118.742 17.1894 123.613 12.6841 129.49 12.6841C135.401 12.6841 138.297 17.2895 139.234 19.7757L139.745 21.0439L124.516 27.2178C125.675 29.4537 127.48 30.5884 130.035 30.5884C132.59 30.5884 134.362 29.3536 135.639 27.5014ZM123.699 23.48L133.868 19.3419C133.306 17.9569 131.636 16.9724 129.643 16.9724C127.105 16.9724 123.579 19.175 123.699 23.48Z" fill="#FF302F"/>
<path d="M111.4 1.3208H116.306V33.959H111.4V1.3208Z" fill="#20B15A"/>
<path d="M103.667 13.5518H108.402V33.375C108.402 41.6013 103.445 44.9886 97.5858 44.9886C92.0669 44.9886 88.7453 41.351 87.5018 38.3976L91.8454 36.6288C92.629 38.4476 94.5197 40.6002 97.5858 40.6002C101.35 40.6002 103.667 38.3141 103.667 34.0425V32.4406H103.497C102.372 33.7755 100.226 34.9769 97.5006 34.9769C91.8113 34.9769 86.599 30.1212 86.599 23.8639C86.599 17.5732 91.8113 12.6675 97.5006 12.6675C100.209 12.6675 102.372 13.8522 103.497 15.1537H103.667V13.5518ZM104.008 23.8639C104.008 19.926 101.333 17.0559 97.9265 17.0559C94.4857 17.0559 91.5899 19.926 91.5899 23.8639C91.5899 27.7518 94.4857 30.5718 97.9265 30.5718C101.333 30.5884 104.008 27.7518 104.008 23.8639Z" fill="#3686F7"/>
<path d="M59.6686 23.7802C59.6686 30.2044 54.5584 34.9266 48.29 34.9266C42.0215 34.9266 36.9114 30.1877 36.9114 23.7802C36.9114 17.3227 42.0215 12.6172 48.29 12.6172C54.5584 12.6172 59.6686 17.3227 59.6686 23.7802ZM54.6947 23.7802C54.6947 19.7756 51.7308 17.0223 48.29 17.0223C44.8491 17.0223 41.8853 19.7756 41.8853 23.7802C41.8853 27.7516 44.8491 30.5382 48.29 30.5382C51.7308 30.5382 54.6947 27.7516 54.6947 23.7802Z" fill="#FF302F"/>
<path d="M84.5208 23.8305C84.5208 30.2546 79.4107 34.9768 73.1423 34.9768C66.8738 34.9768 61.7637 30.2546 61.7637 23.8305C61.7637 17.3729 66.8738 12.6841 73.1423 12.6841C79.4107 12.6841 84.5208 17.3562 84.5208 23.8305ZM79.5299 23.8305C79.5299 19.8258 76.5661 17.0725 73.1252 17.0725C69.6844 17.0725 66.7205 19.8258 66.7205 23.8305C66.7205 27.8018 69.6844 30.5884 73.1252 30.5884C76.5831 30.5884 79.5299 27.7851 79.5299 23.8305Z" fill="#FFBA40"/>
<path d="M18.2082 30.0878C11.0711 30.0878 5.48397 24.4479 5.48397 17.4563C5.48397 10.4648 11.0711 4.8249 18.2082 4.8249C22.0579 4.8249 24.8685 6.30997 26.9466 8.2122L30.3704 4.85827C27.4746 2.13842 23.608 0.0693359 18.2082 0.0693359C8.43082 0.0693359 0.203491 7.87847 0.203491 17.4563C0.203491 27.0342 8.43082 34.8433 18.2082 34.8433C23.4887 34.8433 27.4746 33.1414 30.5918 29.971C33.7942 26.834 34.7821 22.4288 34.7821 18.858C34.7821 17.74 34.6459 16.5887 34.4926 15.7377H18.2082V20.3764H29.8083C29.4676 23.2798 28.5307 25.2655 27.151 26.6171C25.4817 28.269 22.8414 30.0878 18.2082 30.0878Z" fill="#3686F7"/>
</g>
<defs>
<clipPath id="clip0_305_3">
<rect width="140" height="45" fill="white"/>
</clipPath>
</defs>
</svg>
