<svg width="120" height="42" viewBox="0 0 120 42" fill="none" xmlns="http://www.w3.org/2000/svg">
<g clip-path="url(#clip0_405_297)">
<path d="M13.6205 18.7599C18.0558 18.7599 21.0976 22.207 21.0938 26.4521V33.711H17.0858V26.4544C17.0858 24.2245 15.8285 22.4224 13.6158 22.4201C11.4039 22.4177 10.1428 24.2183 10.1397 26.449V33.7064H6.13552V26.4505C6.13939 22.2031 9.18818 18.7606 13.6212 18.7606L13.6205 18.7599ZM38.6967 14.3608V33.7126H34.9573V31.9929C34.4773 32.6582 33.8474 33.1999 33.119 33.5735C32.3906 33.9472 31.5844 34.1422 30.7666 34.1427C26.3862 34.1427 22.8326 30.7026 22.8326 26.4567C22.8326 22.2116 26.3839 18.7606 30.7372 18.7606C32.1883 18.7618 33.591 19.2853 34.691 20.2361V14.3608H38.6967ZM30.844 30.4887C31.3707 30.4878 31.8922 30.3827 32.3785 30.1793C32.8648 29.9759 33.3064 29.6784 33.6782 29.3035C34.0501 28.9287 34.3448 28.4839 34.5455 27.9947C34.7462 27.5054 34.8491 26.9812 34.8481 26.4521C34.8481 25.3835 34.4256 24.3588 33.6735 23.6032C32.9215 22.8477 31.9014 22.4232 30.8378 22.4232C30.3111 22.4238 29.7897 22.5286 29.3033 22.7317C28.8169 22.9348 28.3751 23.2322 28.0032 23.6068C27.6312 23.9814 27.3363 24.426 27.1354 24.9151C26.9345 25.4043 26.8314 25.9284 26.8321 26.4575C26.8312 26.9875 26.9344 27.5124 27.1358 28.0022C27.3372 28.4921 27.6328 28.9371 28.0058 29.3119C28.3783 29.6864 28.8208 29.9831 29.3079 30.1851C29.795 30.387 30.3171 30.4902 30.844 30.4887ZM69.5229 29.1976C69.5229 32.3149 66.7435 34.1427 63.6452 34.1427C60.5468 34.1427 57.7791 32.3149 57.7791 29.1976H61.7871C61.7871 30.4343 62.7757 30.757 63.656 30.757C64.5355 30.757 65.5265 30.2997 65.5265 29.3594C65.5265 28.6874 64.6446 28.0698 63.4423 27.9073C60.6389 27.5573 57.9401 25.8368 57.9401 23.5541C57.9401 20.6032 60.5569 18.7692 63.656 18.7692C66.7543 18.7692 69.3626 20.597 69.3626 23.7143H65.3554C65.3554 22.4792 64.527 22.1564 63.6452 22.1564C62.7633 22.1564 61.9357 22.4792 61.9357 23.4467C61.9357 24.307 63.7001 24.9774 65.2485 25.1672C67.3582 25.4075 69.5229 26.7523 69.5229 29.1976ZM86.6713 26.4567V33.7134H82.9327V31.912C82.4676 32.5981 81.8428 33.1598 81.1127 33.5484C80.3825 33.9369 79.569 34.1407 78.7428 34.1419C74.3616 34.1419 70.8088 30.7018 70.8088 26.456C70.8088 22.2109 74.3577 18.7599 78.7389 18.7599C83.1193 18.7599 86.6705 22.2085 86.6705 26.456L86.6713 26.4567ZM82.8259 26.4567C82.8266 25.6595 82.592 24.88 82.1519 24.2166C81.7118 23.5532 81.0858 23.0358 80.3531 22.7296C79.6208 22.4242 78.8148 22.3441 78.0371 22.4994C77.2595 22.6548 76.5453 23.0386 75.9851 23.6023C75.424 24.1666 75.042 24.8852 74.8871 25.6674C74.7322 26.4497 74.8115 27.2605 75.1149 27.9975C75.4697 28.8581 76.1105 29.5685 76.9282 30.0077C77.7459 30.4469 78.6899 30.5876 79.5993 30.406C80.5088 30.2244 81.3274 29.7316 81.9157 29.0116C82.504 28.2917 82.8257 27.3882 82.8259 26.4567ZM92.5684 14.3608V18.8975H96.574V22.3439H92.5684V26.463C92.5674 26.9924 92.6704 27.5168 92.8714 28.0062C93.0724 28.4956 93.3675 28.9403 93.7397 29.3151C94.1116 29.6895 94.5534 29.9864 95.0398 30.1887C95.5262 30.3911 96.0476 30.4949 96.574 30.4942V34.1497H96.0399C91.6068 34.1497 88.5611 30.7088 88.5611 26.463V14.3608H92.5684ZM48.5266 34.1489C44.1277 34.1489 40.5656 30.7088 40.5656 26.463C40.5656 22.2179 44.1191 18.7606 48.5274 18.7606C52.9349 18.7606 56.4885 22.2007 56.4885 26.4482C56.4885 30.6964 52.9341 34.1489 48.5266 34.1489ZM48.5266 22.4302C47.7313 22.4198 46.9509 22.6474 46.2848 23.0839C45.6186 23.5205 45.0968 24.1463 44.7857 24.8817C44.4739 25.6176 44.3867 26.4299 44.5352 27.2156C44.6836 28.0013 45.061 28.725 45.6195 29.2948C46.1773 29.8642 46.8913 30.2538 47.6703 30.4139C48.4493 30.574 49.2582 30.4974 49.9937 30.1939C50.7297 29.8897 51.359 29.3726 51.8018 28.7083C52.2446 28.044 52.4808 27.2624 52.4805 26.463C52.4895 25.3999 52.0779 24.3768 51.3362 23.6186C50.9693 23.2436 50.5323 22.9451 50.0503 22.7401C49.5683 22.5351 49.0508 22.4277 48.5274 22.424L48.5266 22.4302ZM4.60958 15.4364C4.60958 16.0507 4.36683 16.6399 3.93466 17.0745C3.5025 17.5091 2.91628 17.7536 2.3048 17.7542C1.69345 17.7536 1.10734 17.5092 0.675201 17.0748C0.243059 16.6404 0.000218278 16.0514 1.34381e-05 15.4372C-0.00154596 14.9786 0.132645 14.5298 0.385535 14.148C0.638425 13.7661 0.998598 13.4685 1.42029 13.2927C1.84198 13.117 2.30615 13.0712 2.75382 13.1611C3.20149 13.251 3.61245 13.4726 3.93448 13.7977C4.36648 14.2317 4.60958 14.8212 4.60958 15.4364ZM0.308144 19.1993H4.31616V33.7126H0.308144V19.1993Z" fill="#4D4D4F"/>
<path d="M115.63 4.36249C117.335 6.07837 118.322 8.3848 118.389 10.8087C119.472 9.56903 120.047 7.96293 119.997 6.31429C119.948 4.66564 119.278 3.09709 118.123 1.92494C116.969 0.753709 115.415 0.0672195 113.776 0.00468046C112.137 -0.0578586 110.535 0.508235 109.296 1.58817C111.68 1.67372 113.943 2.66461 115.63 4.36249Z" fill="#FFCB05"/>
<path d="M102.233 17.8392C100.547 16.1416 99.5627 13.8659 99.4783 11.4692C98.3987 12.7161 97.8311 14.3285 97.8905 15.98C97.9498 17.6314 98.6317 19.1985 99.798 20.3639C100.963 21.5281 102.526 22.2024 104.169 22.2497C105.812 22.2969 107.41 21.7135 108.64 20.6182C106.229 20.5498 103.936 19.5552 102.233 17.8392Z" fill="#32BCAD"/>
<path d="M99.7902 11.1206C99.6772 11.2349 99.5812 11.357 99.4697 11.4791C99.6633 16.4764 103.666 20.4702 108.634 20.6242C108.741 20.5293 108.843 20.4383 108.951 20.3349C109.754 19.5254 110.332 18.5178 110.626 17.4132C110.92 16.3086 110.92 15.1457 110.626 14.0411C110.332 12.9368 109.754 11.9297 108.95 11.1209C108.146 10.3121 107.145 9.73017 106.046 9.4336C104.947 9.13777 103.791 9.13802 102.693 9.43433C101.594 9.73064 100.593 10.3118 99.7902 11.1206Z" fill="#C6168D"/>
<path d="M101.05 16.3845C100.976 16.2756 100.914 16.159 100.841 16.0454C100.914 16.159 100.976 16.2749 101.05 16.3845ZM101.6 17.1351C101.531 17.0487 101.471 16.9577 101.406 16.8714C101.471 16.9577 101.531 17.048 101.6 17.1351ZM106.625 20.3348C106.459 20.2928 106.292 20.2532 106.129 20.2003C106.291 20.2532 106.459 20.2936 106.624 20.3348H106.625ZM108.391 20.6047C108.215 20.6047 108.039 20.5837 107.863 20.5651C108.039 20.5837 108.215 20.5946 108.391 20.6047ZM104.892 19.7111C104.752 19.6434 104.61 19.5827 104.473 19.5011C104.61 19.5827 104.752 19.6434 104.891 19.7111H104.892ZM104.05 19.2576C103.928 19.1845 103.804 19.1168 103.688 19.0476C103.804 19.1168 103.932 19.1822 104.05 19.2576ZM103.216 18.6891C103.123 18.6167 103.03 18.5537 102.94 18.4783C103.029 18.5498 103.124 18.6175 103.216 18.6891Z" fill="#ED1C24"/>
<path d="M108.96 11.1206C109.561 11.7256 110.275 12.2056 111.061 12.5331C111.847 12.8606 112.69 13.0292 113.54 13.0292C114.391 13.0292 115.234 12.8606 116.02 12.5331C116.806 12.2056 117.519 11.7256 118.121 11.1206C118.219 11.0194 118.315 10.9106 118.407 10.811C118.258 5.80213 114.277 1.76703 109.3 1.57959C109.179 1.6835 109.063 1.79195 108.95 1.9047C107.737 3.12933 107.057 4.78733 107.059 6.51511C107.06 8.24288 107.744 9.89861 108.96 11.1206Z" fill="#EC008C"/>
<path d="M108.961 1.89598C109.072 1.78398 109.185 1.6852 109.3 1.57942C107.996 1.52507 106.695 1.74354 105.48 2.22099C104.264 2.69844 103.161 3.42445 102.239 4.35297C101.316 5.28235 100.596 6.39378 100.123 7.61709C99.6492 8.84039 99.4335 10.149 99.489 11.4603C99.5897 11.3421 99.698 11.2238 99.801 11.1126C100.402 10.5075 101.116 10.0274 101.902 9.69986C102.687 9.3723 103.53 9.20369 104.381 9.20369C105.232 9.20369 106.074 9.3723 106.86 9.69986C107.646 10.0274 108.36 10.5075 108.961 11.1126C107.746 9.88932 107.064 8.23207 107.064 6.5043C107.064 4.77652 107.746 3.11927 108.961 1.89598ZM118.389 10.8171C118.299 10.9205 118.207 11.0278 118.11 11.1204C117.509 11.7253 116.795 12.2052 116.009 12.5327C115.223 12.8601 114.381 13.0287 113.53 13.0287C112.679 13.0287 111.837 12.8601 111.051 12.5327C110.265 12.2052 109.551 11.7253 108.95 11.1204C110.165 12.3433 110.847 14.0002 110.847 15.7275C110.847 17.4549 110.165 19.1118 108.95 20.3347C108.852 20.4358 108.741 20.5245 108.641 20.6178C111.25 20.7049 113.778 19.7 115.626 17.8435C116.54 16.9242 117.257 15.8265 117.732 14.6179C118.208 13.4094 118.431 12.1158 118.389 10.8171H118.389Z" fill="#ED1C24"/>
<path d="M1.60886 41.6601C1.2097 41.4458 0.879229 41.1222 0.655825 40.7268C0.427608 40.3027 0.308105 39.8283 0.308105 39.3462C0.308105 38.8642 0.427608 38.3897 0.655825 37.9657C0.880342 37.569 1.21092 37.2439 1.60886 37.0269C2.02609 36.802 2.49338 36.6875 2.9668 36.694C3.44022 36.6875 3.90752 36.802 4.32474 37.0269C4.72268 37.2447 5.05249 37.569 5.277 37.9649C5.50375 38.3894 5.62241 38.8637 5.62241 39.3454C5.62241 39.8272 5.50375 40.3015 5.277 40.726C5.05392 41.1216 4.72372 41.4455 4.32474 41.6601C3.90741 41.8845 3.4401 41.9985 2.9668 41.9914C2.4935 41.9985 2.02619 41.8845 1.60886 41.6601ZM3.93687 41.0783C4.22487 40.9173 4.46332 40.6785 4.62436 40.3892C4.797 40.0695 4.88371 39.7094 4.8752 39.3454C4.88306 38.9845 4.79657 38.6278 4.62436 38.311C4.46615 38.0208 4.23012 37.781 3.94306 37.6188C3.64645 37.4561 3.3132 37.3728 2.97532 37.3769C2.63467 37.3714 2.29712 37.4547 1.99673 37.6172C1.70546 37.7766 1.46498 38.0155 1.30305 38.3063C1.13514 38.6275 1.04741 38.9849 1.04741 39.3478C1.04741 39.7106 1.13514 40.068 1.30305 40.3892C1.46409 40.6793 1.70331 40.9181 1.99209 41.0783C2.2917 41.2416 2.62693 41.3233 2.9668 41.3171C3.30512 41.3225 3.63958 41.2409 3.93687 41.0783ZM8.55031 41.6601C8.15114 41.4458 7.82067 41.1222 7.59727 40.7268C7.36905 40.3027 7.24955 39.8283 7.24955 39.3462C7.24955 38.8642 7.36905 38.3897 7.59727 37.9657C7.82179 37.569 8.15159 37.2439 8.54953 37.0269C8.9701 36.8065 9.43741 36.6915 9.91173 36.6915C10.3861 36.6915 10.8534 36.8065 11.2739 37.0269C11.6719 37.2447 12.0017 37.569 12.227 37.9649C12.4537 38.3894 12.5724 38.8637 12.5724 39.3454C12.5724 39.8272 12.4537 40.3015 12.227 40.726C12.0024 41.1219 11.6726 41.4454 11.2739 41.6601C10.853 41.8789 10.386 41.9931 9.91212 41.9931C9.4382 41.9931 8.9712 41.8789 8.55031 41.6601ZM10.8775 41.0783C11.1679 40.9181 11.4071 40.6793 11.5697 40.3892C11.7341 40.0677 11.8199 39.7115 11.8199 39.3501C11.8199 38.9887 11.7341 38.6325 11.5697 38.311C11.4106 38.0207 11.1738 37.7809 10.8861 37.6188C10.5903 37.456 10.2578 37.3727 9.92063 37.3769C9.57844 37.3714 9.24089 37.4547 8.93973 37.6172C8.64922 37.7774 8.40918 38.0161 8.24682 38.3063C8.07955 38.6277 7.99218 38.9851 7.99218 39.3478C7.99218 39.7105 8.07955 40.0678 8.24682 40.3892C8.40708 40.6793 8.64631 40.9181 8.93586 41.0783C9.23455 41.2387 9.56801 41.3226 9.9067 41.3226C10.2454 41.3226 10.5788 41.2387 10.8775 41.0783ZM14.3707 36.8037H16.4007C16.8491 36.7737 17.2924 36.9136 17.6432 37.1957C17.946 37.4974 18.1039 37.9167 18.0745 38.3444C18.0845 38.6843 17.9808 39.018 17.7795 39.291C17.5693 39.559 17.2729 39.7454 16.941 39.8183L18.0536 41.8818H17.2887L16.2125 39.8766H15.0992V41.8818H14.3707V36.8037ZM16.2768 39.2505C16.5516 39.2661 16.8226 39.1852 17.0456 39.0234C17.2422 38.8554 17.3483 38.6034 17.3312 38.3444C17.3442 38.2131 17.3258 38.0805 17.2776 37.9577C17.2294 37.8349 17.1528 37.7254 17.0541 37.6382C16.8244 37.4856 16.5517 37.4116 16.2768 37.4274H15.1V39.2505H16.2768ZM19.8807 36.8037H23.2097V37.436H20.6185V39.0421H22.554V39.6596H20.6185V41.2728H23.2097V41.8903H19.8807V36.8037ZM24.9803 36.8037H26.6061C27.0945 36.7918 27.5788 36.8957 28.0198 37.107C28.4069 37.2991 28.7274 37.6032 28.9419 37.9797C29.1633 38.3895 29.274 38.8508 29.2624 39.3159C29.2624 40.1598 29.0208 40.7983 28.5377 41.2323C28.0546 41.6663 27.3764 41.8833 26.5031 41.8818H24.9803V36.8037ZM26.4977 41.2642C27.1713 41.2642 27.6776 41.097 28.0136 40.7625C28.3504 40.4281 28.5192 39.9459 28.5192 39.3159C28.5431 39.059 28.51 38.8 28.4224 38.5575C28.3347 38.315 28.1945 38.0951 28.0121 37.9135C27.8298 37.732 27.6097 37.5935 27.3676 37.5079C27.1255 37.4224 26.8675 37.3919 26.6123 37.4189H25.7173V41.2556L26.497 41.2634L26.4977 41.2642ZM32.2229 41.6601C31.8241 41.4453 31.4938 41.1217 31.2699 40.7268C31.0431 40.3022 30.9245 39.828 30.9245 39.3462C30.9245 38.8644 31.0431 38.3902 31.2699 37.9657C31.4944 37.569 31.825 37.2447 32.2229 37.0269C32.6435 36.807 33.1106 36.6922 33.5847 36.6922C34.0588 36.6922 34.526 36.807 34.9465 37.0269C35.3445 37.2447 35.6743 37.569 35.8996 37.9649C36.1263 38.3894 36.245 38.8637 36.245 39.3454C36.245 39.8272 36.1263 40.3015 35.8996 40.726C35.6758 41.1219 35.3452 41.4454 34.9473 41.6601C34.5262 41.8787 34.0591 41.9928 33.5851 41.9928C33.1111 41.9928 32.644 41.8787 32.2229 41.6601ZM34.5532 41.0783C34.842 40.9181 35.0812 40.6793 35.2423 40.3892C35.4165 40.0703 35.504 39.7102 35.4954 39.3454C35.5027 38.9848 35.4168 38.6284 35.2461 38.311C35.0873 38.0208 34.8507 37.781 34.5633 37.6188C34.2667 37.4561 33.9334 37.3728 33.5956 37.3769C33.2543 37.372 32.9175 37.4547 32.617 37.6172C32.3262 37.7773 32.0859 38.016 31.9233 38.3063C31.756 38.6277 31.6687 38.9851 31.6687 39.3478C31.6687 39.7105 31.756 40.0678 31.9233 40.3892C32.0843 40.6793 32.3236 40.9181 32.6123 41.0783C32.9111 41.2388 33.2447 41.3228 33.5836 41.3228C33.9224 41.3228 34.256 41.2388 34.5548 41.0783H34.5532ZM39.1644 41.6601C38.7653 41.4454 38.4347 41.1219 38.2105 40.7268C37.9838 40.3022 37.8651 39.828 37.8651 39.3462C37.8651 38.8644 37.9838 38.3902 38.2105 37.9657C38.4358 37.569 38.7656 37.2447 39.1644 37.0269C39.5848 36.8067 40.052 36.6917 40.5262 36.6917C41.0003 36.6917 41.4675 36.8067 41.888 37.0269C42.2859 37.2447 42.6157 37.569 42.841 37.9649C43.3048 38.8267 43.3048 39.865 42.841 40.726C42.6177 41.1217 42.2872 41.4456 41.888 41.6601C41.4671 41.8789 41.0001 41.9931 40.5262 41.9931C40.0522 41.9931 39.5852 41.8789 39.1644 41.6601ZM41.4978 41.0783C41.7873 40.9181 42.0266 40.6793 42.1868 40.3892C42.3618 40.0703 42.45 39.7102 42.4408 39.3454C42.448 38.9848 42.3621 38.6284 42.1915 38.311C42.0326 38.0208 41.796 37.781 41.5086 37.6188C41.212 37.4561 40.8788 37.3728 40.5409 37.3769C40.1996 37.372 39.8628 37.4547 39.5623 37.6172C39.2715 37.7773 39.0312 38.016 38.8686 38.3063C38.702 38.628 38.6151 38.9852 38.6151 39.3478C38.6151 39.7103 38.702 40.0676 38.8686 40.3892C39.0312 40.6793 39.2704 40.9181 39.56 41.0783C39.8588 41.2388 40.1924 41.3228 40.5312 41.3228C40.87 41.3228 41.2036 41.2388 41.5024 41.0783H41.497H41.4978ZM48.6699 36.8037H49.4054V38.983H52.0431V36.8044H52.7786V41.8825H52.0431V39.6075H49.4047V41.8825H48.6692L48.6699 36.8037ZM55.2189 41.4579C55.0371 41.26 54.8968 41.0274 54.8063 40.7739C54.7159 40.5204 54.6771 40.2513 54.6924 39.9824V36.799H55.4279V40.0096C55.4039 40.3729 55.5363 40.7299 55.791 40.9881C56.075 41.203 56.421 41.3192 56.7765 41.3192C57.1321 41.3192 57.4781 41.203 57.7621 40.9881C58.0168 40.7291 58.1484 40.3729 58.1229 40.0096V36.8044H58.8599V39.9871C58.8755 40.2562 58.8368 40.5257 58.7461 40.7794C58.6553 41.0331 58.5145 41.2657 58.3319 41.4633C57.9804 41.8211 57.4625 42 56.7796 42C56.0968 42 55.5765 41.8195 55.2189 41.4579ZM62.0535 37.4274H60.4842V36.7951H64.3645V37.4274H62.7967V41.8818H62.0535V37.4274ZM66.7668 41.6648C66.3698 41.4529 66.0419 41.1308 65.8223 40.7369C65.5892 40.3111 65.4723 39.8311 65.4832 39.3454C65.4721 38.8565 65.589 38.3732 65.8223 37.9439C66.0413 37.5491 66.3693 37.2263 66.7668 37.0144C67.195 36.7912 67.6718 36.679 68.1541 36.6878C68.7771 36.6658 69.3897 36.8527 69.8953 37.219V37.9439C69.426 37.5533 68.8278 37.354 68.2192 37.3854C67.8597 37.3782 67.504 37.4608 67.1841 37.6258C66.8878 37.78 66.6429 38.0179 66.4796 38.3102C66.3121 38.6332 66.2247 38.9921 66.2247 39.3563C66.2247 39.7205 66.3121 40.0794 66.4796 40.4024C66.6452 40.6956 66.8914 40.9352 67.1879 41.0915C67.5061 41.2549 67.8599 41.3381 68.2176 41.3319C68.5421 41.3369 68.8653 41.2891 69.1745 41.1903C69.4629 41.0919 69.7292 40.9373 69.958 40.7353V41.454C69.5237 41.818 68.9214 42 68.1518 42C67.6698 42.0056 67.1933 41.8904 66.7668 41.6648ZM71.7658 36.8037H72.5059V38.983H75.1413V36.8044H75.8768V41.8825H75.1413V39.6075H72.5059V41.8825H71.7681L71.7658 36.8037ZM77.8254 36.8037H78.5686V41.8818H77.8254V36.8037ZM81.0639 41.9152C80.8259 41.8764 80.5942 41.8057 80.3748 41.7052V41.034C80.8429 41.2538 81.354 41.3654 81.8706 41.3606C82.6216 41.3606 82.9963 41.1071 82.9963 40.6C83.0041 40.4497 82.9613 40.3012 82.8747 40.1784C82.7782 40.0603 82.6572 39.9648 82.5201 39.8984C82.3653 39.8183 82.116 39.7086 81.7684 39.5671C81.3832 39.4327 81.0311 39.2171 80.7356 38.9348C80.5224 38.6931 80.4091 38.3787 80.419 38.0559C80.4122 37.8034 80.4854 37.5553 80.628 37.3473C80.7828 37.1334 80.9934 36.9662 81.2357 36.8667C81.5191 36.7484 81.8241 36.6901 82.1307 36.6955C82.38 36.6932 82.6293 36.715 82.8739 36.7609C83.0985 36.806 83.316 36.8768 83.5243 36.9724V37.6048C83.1258 37.4211 82.693 37.3246 82.2546 37.3217C81.9764 37.3047 81.6994 37.3701 81.4579 37.5099C81.37 37.5687 81.2986 37.6492 81.2506 37.7437C81.2026 37.8383 81.1796 37.9436 81.1839 38.0497C81.1804 38.193 81.2221 38.3337 81.3031 38.4518C81.3983 38.5739 81.5199 38.6734 81.6569 38.7427C81.8148 38.8274 82.0479 38.9324 82.3552 39.0592C82.6355 39.1681 82.9057 39.3019 83.1635 39.4574C83.5645 39.6923 83.7999 40.1341 83.7712 40.6008C83.7806 40.7967 83.7429 40.992 83.6612 41.1702C83.5795 41.3483 83.4563 41.5041 83.3021 41.6243C82.9877 41.8662 82.5255 41.9875 81.9147 41.9875C81.6295 41.9885 81.3448 41.9643 81.0639 41.9152ZM86.738 41.6601C86.3388 41.4458 86.0083 41.1222 85.7849 40.7268C85.5582 40.3022 85.4395 39.828 85.4395 39.3462C85.4395 38.8644 85.5582 38.3902 85.7849 37.9657C86.0094 37.569 86.3392 37.2439 86.7372 37.0269C87.1577 36.8065 87.6251 36.6915 88.0994 36.6915C88.5737 36.6915 89.041 36.8065 89.4616 37.0269C89.8603 37.2447 90.1901 37.569 90.4146 37.9649C90.8791 38.8267 90.8791 39.865 90.4146 40.726C90.1913 41.1217 89.8608 41.4456 89.4616 41.6601C89.0407 41.8789 88.5737 41.9931 88.0998 41.9931C87.6258 41.9931 87.1588 41.8789 86.738 41.6601ZM89.0683 41.0783C89.3563 40.9181 89.5947 40.6793 89.7573 40.3892C89.9224 40.0679 90.0086 39.7116 90.0086 39.3501C90.0086 38.9885 89.9224 38.6322 89.7573 38.311C89.5976 38.0211 89.361 37.7815 89.0737 37.6188C88.7771 37.4561 88.4438 37.3728 88.106 37.3769C87.7647 37.372 87.4279 37.4547 87.1274 37.6172C86.8361 37.7766 86.5956 38.0155 86.4337 38.3063C86.2587 38.6237 86.1705 38.983 86.1782 39.3454C86.1705 39.7094 86.2572 40.0688 86.4298 40.3892C86.5916 40.6793 86.8301 40.9181 87.1189 41.0783C87.7266 41.405 88.4559 41.405 89.0636 41.0783H89.0683ZM92.5584 36.8037H93.2598L95.8301 40.6319V36.8037H96.5741V41.8818H95.8665L93.2962 38.0535V41.8818H92.5584V36.8037Z" fill="#4D4D4F"/>
</g>
<defs>
<clipPath id="clip0_405_297">
<rect width="120" height="42" fill="white"/>
</clipPath>
</defs>
</svg>
