<svg width="87" height="35" viewBox="0 0 87 35" fill="none" xmlns="http://www.w3.org/2000/svg">
<g clip-path="url(#clip0_305_127)">
<path d="M7.80944 1.63428H1.68115V7.76256H7.80944V1.63428Z" fill="#0068B5"/>
<path d="M7.65687 33.5624V11.4919H1.85571V33.5624H7.65687ZM46.2149 33.7805V28.3719C45.3644 28.3719 44.6447 28.3283 44.1213 28.2411C43.5106 28.1538 43.0526 27.9357 42.7473 27.6304C42.442 27.3251 42.2457 26.8889 42.1367 26.3219C42.0494 25.7767 42.0058 25.057 42.0058 24.1846V16.4643H46.2149V11.4919H42.0058V2.87736H36.1828V24.2282C36.1828 26.0384 36.3355 27.565 36.6408 28.7863C36.9462 29.9858 37.4696 30.9672 38.1893 31.7087C38.909 32.4502 39.8685 32.9736 41.0244 33.3007C42.2021 33.6278 43.6851 33.7805 45.4516 33.7805H46.2149ZM79.5389 33.5624V1.17627H73.7159V33.5624H79.5389ZM30.578 13.6509C28.9641 11.9062 26.696 11.0339 23.8172 11.0339C22.4215 11.0339 21.1565 11.3174 20.0007 11.8844C18.8666 12.4514 17.8852 13.2366 17.1219 14.2398L16.7948 14.6541V14.2834V11.4919H11.059V33.5624H16.8384V21.8074V22.6144C16.8384 22.4835 16.8384 22.3527 16.8384 22.2218C16.9038 20.15 17.4054 18.6234 18.365 17.642C19.39 16.5951 20.6331 16.0717 22.0507 16.0717C23.73 16.0717 25.0167 16.5951 25.8673 17.5983C26.696 18.6015 27.1322 20.0191 27.1322 21.8293V21.8729V33.5406H32.9988V21.0223C33.0206 17.8819 32.1918 15.3956 30.578 13.6509ZM70.7063 22.4835C70.7063 20.8915 70.4228 19.4085 69.8775 18.0127C69.3105 16.6387 68.5254 15.4175 67.544 14.3706C66.5408 13.3238 65.3413 12.5169 63.9455 11.928C62.5498 11.3392 61.0013 11.0557 59.322 11.0557C57.73 11.0557 56.2252 11.361 54.8294 11.9498C53.4337 12.5605 52.2124 13.3674 51.1873 14.3924C50.1623 15.4175 49.3336 16.6387 48.7448 18.0345C48.1341 19.4303 47.8506 20.9351 47.8506 22.5271C47.8506 24.1192 48.1341 25.624 48.7011 27.0198C49.2682 28.4155 50.0751 29.6368 51.0783 30.6618C52.0815 31.6869 53.3246 32.5156 54.764 33.1044C56.2034 33.7151 57.7954 34.0204 59.4965 34.0204C64.4253 34.0204 67.4786 31.7741 69.3105 29.6804L65.1232 26.4963C64.2508 27.5432 62.1572 28.9607 59.5401 28.9607C57.9045 28.9607 56.5523 28.59 55.5273 27.8267C54.5023 27.0852 53.8044 26.0384 53.4337 24.7516L53.3682 24.5554H70.7063V22.4835ZM53.4118 20.4553C53.4118 18.8414 55.2656 16.0281 59.2566 16.0063C63.2476 16.0063 65.1232 18.8196 65.1232 20.4335L53.4118 20.4553Z" fill="black"/>
<path d="M86.1687 30.6835C86.0596 30.4218 85.907 30.2037 85.7107 30.0075C85.5144 29.8112 85.2963 29.6585 85.0346 29.5495C84.7729 29.4404 84.4894 29.375 84.2059 29.375C83.9006 29.375 83.6388 29.4404 83.3771 29.5495C83.1154 29.6585 82.8973 29.8112 82.7011 30.0075C82.5048 30.2037 82.3521 30.4218 82.2431 30.6835C82.134 30.9452 82.0686 31.2288 82.0686 31.5123C82.0686 31.8176 82.134 32.0793 82.2431 32.341C82.3521 32.6027 82.5048 32.8208 82.7011 33.0171C82.8973 33.2134 83.1154 33.366 83.3771 33.4751C83.6388 33.5841 83.9224 33.6495 84.2059 33.6495C84.5112 33.6495 84.7729 33.5841 85.0346 33.4751C85.2963 33.366 85.5144 33.2134 85.7107 33.0171C85.907 32.8208 86.0596 32.6027 86.1687 32.341C86.2777 32.0793 86.3431 31.7958 86.3431 31.5123C86.3431 31.2288 86.2777 30.9452 86.1687 30.6835ZM85.8197 32.2102C85.7325 32.4282 85.6016 32.6245 85.449 32.7772C85.2963 32.9298 85.1 33.0607 84.882 33.1479C84.6639 33.2352 84.4458 33.2788 84.1841 33.2788C83.9442 33.2788 83.7043 33.2352 83.4862 33.1479C83.2681 33.0607 83.0718 32.9298 82.9192 32.7772C82.7665 32.6245 82.6356 32.4282 82.5484 32.2102C82.4612 31.9921 82.4175 31.774 82.4175 31.5123C82.4175 31.2724 82.4612 31.0325 82.5484 30.8144C82.6356 30.5963 82.7665 30.4 82.9192 30.2474C83.0718 30.0947 83.2681 29.9638 83.4862 29.8766C83.7043 29.7894 83.9224 29.7458 84.1841 29.7458C84.424 29.7458 84.6639 29.7894 84.882 29.8766C85.1 29.9638 85.2963 30.0947 85.449 30.2474C85.6016 30.4 85.7325 30.5963 85.8197 30.8144C85.907 31.0325 85.9506 31.2506 85.9506 31.5123C85.9724 31.774 85.907 31.9921 85.8197 32.2102ZM84.5984 31.6867C84.7729 31.6649 84.9038 31.5995 85.0128 31.4905C85.1218 31.3814 85.1873 31.2288 85.1873 31.0107C85.1873 30.7708 85.1218 30.5963 84.9692 30.4654C84.8383 30.3346 84.5984 30.2692 84.3149 30.2692H83.3553V32.7336H83.8133V31.7304H84.1404L84.7511 32.7336H85.2309L84.5984 31.6867ZM84.3585 31.3378C84.2931 31.3378 84.2277 31.3378 84.1404 31.3378H83.8133V30.6399H84.1404C84.2059 30.6399 84.2713 30.6399 84.3585 30.6399C84.424 30.6399 84.4894 30.6617 84.5548 30.6835C84.6202 30.7053 84.6639 30.749 84.6857 30.7926C84.7075 30.8362 84.7293 30.9016 84.7293 30.9889C84.7293 31.0761 84.7075 31.1415 84.6857 31.1851C84.642 31.2288 84.5984 31.2724 84.5548 31.2942C84.4894 31.316 84.424 31.3378 84.3585 31.3378Z" fill="black"/>
</g>
<defs>
<clipPath id="clip0_305_127">
<rect width="86.2322" height="34" fill="white" transform="translate(0.65625 0.5)"/>
</clipPath>
</defs>
</svg>
