<svg width="142" height="31" viewBox="0 0 142 31" fill="none" xmlns="http://www.w3.org/2000/svg">
<g clip-path="url(#clip0_305_71)">
<path d="M59.6307 7.21533C57.0922 7.21533 54.2053 8.39207 52.4414 10.7479L52.4426 10.7432L52.4414 10.7444L52.4426 7.5853H46.3882V29.6331H52.4414V17.0875C52.4414 14.8295 54.1922 12.4295 57.4336 12.4295C59.9386 12.4295 62.5308 14.1719 62.5308 17.0875V29.6331H68.5852V15.9657C68.5852 10.8947 64.9571 7.21533 59.6307 7.21533Z" fill="#E60012"/>
<path d="M111.615 7.58643L106.142 22.6048L100.668 7.58643H93.7524L102.824 29.627H109.458L118.53 7.58643H111.615Z" fill="#E60012"/>
<path d="M28.3139 14.2283C29.345 12.8439 30.9872 12.0311 32.9707 12.0311C35.1523 12.0311 36.8077 13.2771 37.6634 15.1162L27.0858 19.5045C26.797 17.2525 27.3734 15.4909 28.3139 14.2283ZM39.9452 22.8545C37.3972 24.7402 35.9412 25.1901 33.6176 25.1901C31.5266 25.1901 29.8892 24.5409 28.7352 23.4023L44.213 16.9815C43.8753 14.5887 42.967 12.4512 41.5695 10.8257C39.5359 8.4639 36.526 7.21436 32.8609 7.21436C26.2039 7.21436 21.1842 12.1254 21.1842 18.6118C21.1842 25.2665 26.2158 30.008 33.5281 30.008C37.6252 30.008 41.8142 28.0663 43.7738 25.7976L39.9452 22.8545Z" fill="#E60012"/>
<path d="M20.6072 24.0742H6.84668V0.991699H0.709961V29.6333H20.6072V24.0742Z" fill="#E60012"/>
<path d="M129.401 12.4023C126.02 12.4023 123.565 14.9646 123.565 18.6094C123.565 22.0895 126.165 24.8165 129.482 24.8165C132.864 24.8165 135.318 22.1838 135.318 18.6094C135.318 15.1293 132.719 12.4023 129.401 12.4023ZM129.401 30.0045C122.779 30.0045 117.592 25.0719 117.592 18.6094C117.592 12.2197 122.815 7.21436 129.482 7.21436C136.103 7.21436 141.29 12.1469 141.29 18.6094C141.29 24.9979 136.067 30.0045 129.401 30.0045Z" fill="#E60012"/>
<path d="M82.7882 12.4023C79.4072 12.4023 76.9534 14.9646 76.9534 18.6094C76.9534 22.0895 79.5528 24.8165 82.8706 24.8165C86.2516 24.8165 88.7053 22.1838 88.7053 18.6094C88.7053 15.1293 86.106 12.4023 82.7882 12.4023ZM82.7882 30.0045C76.167 30.0045 70.9802 25.0719 70.9802 18.6094C70.9802 12.2197 76.2028 7.21436 82.8706 7.21436C89.4906 7.21436 94.6786 12.1469 94.6786 18.6094C94.6786 24.9979 89.4548 30.0045 82.7882 30.0045Z" fill="#E60012"/>
</g>
<defs>
<clipPath id="clip0_305_71">
<rect width="142" height="29.82" fill="white" transform="translate(0 0.589844)"/>
</clipPath>
</defs>
</svg>
