<svg width="85" height="33" viewBox="0 0 85 33" fill="none" xmlns="http://www.w3.org/2000/svg">
<g clip-path="url(#clip0_305_125)">
<path fill-rule="evenodd" clip-rule="evenodd" d="M3.39125 32.4378H16.5059C18.3713 32.4378 19.8971 30.9116 19.8971 29.0461V28.7632C19.8971 26.8977 18.3713 25.372 16.5059 25.372H7.06543V3.8937C7.06543 2.02822 5.53964 0.502441 3.67417 0.502441H3.39125C1.52578 0.502441 0 2.02822 0 3.8937V29.0461C0 30.9116 1.52578 32.4378 3.39125 32.4378ZM84.6561 16.6714V16.3885C84.6561 14.523 83.1298 12.9973 81.2644 12.9973H71.8244V7.62792H81.2644C83.1298 7.62792 84.6561 6.10214 84.6561 4.23667V3.95375C84.6561 2.08828 83.1298 0.562497 81.2644 0.562497H68.1498C66.2843 0.562497 64.7585 2.08828 64.7585 3.95375V29.1062C64.7585 30.9717 66.2843 32.4979 68.1498 32.4979H81.2644C83.1298 32.4979 84.6561 30.9717 84.6561 29.1062V28.8233C84.6561 26.9578 83.1298 25.432 81.2644 25.432H71.8244V20.0627H81.2644C83.1298 20.0627 84.6561 18.5369 84.6561 16.6714ZM59.4352 31.4268L59.4361 31.4253C60.0637 30.7926 60.4161 29.9377 60.4167 29.0466V3.8937C60.4167 2.02822 58.8909 0.502441 57.025 0.502441H56.7421C54.8766 0.502441 53.3508 2.02822 53.3508 3.8937V18.6584L41.0934 2.21731C40.5079 1.19542 39.4053 0.502441 38.1488 0.502441H37.8659C36.0004 0.502441 34.4742 2.02822 34.4742 3.8937V29.0461C34.4742 30.9116 35.9999 32.4378 37.8659 32.4378H38.1488C40.0143 32.4378 41.5401 30.9116 41.5401 29.0461V14.0055L53.8861 30.8684C53.9621 30.9867 54.0452 31.1002 54.1348 31.2081L54.1353 31.2091C54.4745 31.6717 54.9385 31.9888 55.4556 32.1826C55.853 32.3468 56.2874 32.4378 56.7421 32.4378H57.025C57.5776 32.4382 58.1219 32.3021 58.6094 32.0419C58.9482 31.88 59.2339 31.6721 59.4352 31.4268ZM26.0256 32.4378H26.3085C28.174 32.4378 29.6998 30.9116 29.6998 29.0461V3.8937C29.6993 2.02822 28.1735 0.502441 26.308 0.502441H26.0256C24.1601 0.502441 22.6339 2.02822 22.6339 3.8937V29.0461C22.6339 30.9116 24.1601 32.4378 26.0256 32.4378Z" fill="#3ACE01"/>
</g>
<defs>
<clipPath id="clip0_305_125">
<rect width="84.6561" height="32" fill="white" transform="translate(0 0.5)"/>
</clipPath>
</defs>
</svg>
