<svg width="160" height="35" viewBox="0 0 160 35" fill="none" xmlns="http://www.w3.org/2000/svg">
<g clip-path="url(#clip0_305_25)">
<path d="M66.5403 7.26317V27.7371H62.9858V11.6708H62.9384L56.5877 27.7371H54.218L47.7251 11.6708H47.6777V27.7371H44.4076V7.26317H49.5261L55.4029 22.429H55.4976L61.7062 7.26317H66.5403ZM69.4787 8.82715C69.4787 8.25843 69.6683 7.7845 70.0948 7.40535C70.5213 7.0262 70.9953 6.83663 71.564 6.83663C72.1801 6.83663 72.7014 7.0262 73.0806 7.40535C73.4597 7.7845 73.6967 8.25843 73.6967 8.82715C73.6967 9.39587 73.5071 9.8698 73.0806 10.249C72.654 10.6281 72.1801 10.8177 71.564 10.8177C70.9479 10.8177 70.4739 10.6281 70.0948 10.249C69.7156 9.82241 69.4787 9.34848 69.4787 8.82715ZM73.3175 13.0452V27.7371H69.8578V13.0452H73.3175ZM83.7915 25.2253C84.3128 25.2253 84.8815 25.1305 85.4976 24.8461C86.1138 24.6091 86.6825 24.2774 87.2038 23.8982V27.121C86.6351 27.4527 86.019 27.6897 85.3081 27.8319C84.5972 27.9741 83.8389 28.0689 82.9858 28.0689C80.8057 28.0689 79.0521 27.4053 77.7251 26.0309C76.3507 24.6565 75.6872 22.903 75.6872 20.8177C75.6872 18.448 76.3981 16.5049 77.7725 14.9883C79.1469 13.4717 81.0901 12.7134 83.6493 12.7134C84.3128 12.7134 84.9763 12.8082 85.5924 12.9504C86.2559 13.0926 86.7773 13.3295 87.1564 13.5191V16.8366C86.6351 16.4575 86.0664 16.1257 85.545 15.9362C84.9763 15.7466 84.4076 15.6044 83.8389 15.6044C82.4645 15.6044 81.3744 16.0309 80.5213 16.9314C79.6683 17.8319 79.2891 19.0167 79.2891 20.5333C79.2891 22.0025 79.7156 23.1873 80.5213 23.993C81.327 24.7987 82.4171 25.2253 83.7915 25.2253ZM97.0142 12.8082C97.2986 12.8082 97.5356 12.8082 97.7725 12.8556C98.0095 12.903 98.1991 12.9504 98.3412 12.9978V16.5049C98.1517 16.3627 97.9147 16.2205 97.5356 16.1257C97.1564 16.0309 96.7773 15.9362 96.2559 15.9362C95.4029 15.9362 94.692 16.3153 94.1232 17.0262C93.5545 17.7371 93.2228 18.8271 93.2228 20.3437V27.7371H89.763V13.0452H93.2228V15.3674H93.2702C93.6019 14.5617 94.0758 13.9456 94.692 13.4717C95.3555 13.0452 96.1138 12.8082 97.0142 12.8082ZM98.5308 20.6281C98.5308 18.211 99.2417 16.2679 100.569 14.8461C101.943 13.4243 103.839 12.7134 106.256 12.7134C108.531 12.7134 110.332 13.3769 111.611 14.7513C112.891 16.1257 113.555 17.9741 113.555 20.2963C113.555 22.666 112.844 24.5617 111.517 25.9835C110.142 27.4053 108.294 28.1162 105.924 28.1162C103.649 28.1162 101.848 27.4527 100.521 26.1257C99.1943 24.7513 98.5308 22.903 98.5308 20.6281ZM102.133 20.4859C102.133 22.0025 102.464 23.1873 103.175 23.993C103.886 24.7987 104.882 25.2253 106.161 25.2253C107.393 25.2253 108.389 24.8461 109.052 23.993C109.716 23.1873 110.047 22.0025 110.047 20.3911C110.047 18.8271 109.716 17.6423 109.052 16.7892C108.389 15.9835 107.393 15.557 106.209 15.557C104.929 15.557 103.981 15.9835 103.27 16.8366C102.464 17.7371 102.133 18.9219 102.133 20.4859ZM118.72 16.9314C118.72 17.4053 118.863 17.8319 119.194 18.1162C119.526 18.4006 120.19 18.7324 121.28 19.1589C122.654 19.7276 123.649 20.3437 124.171 21.0072C124.739 21.7181 125.024 22.5238 125.024 23.5191C125.024 24.8935 124.502 25.9835 123.412 26.8366C122.37 27.6897 120.9 28.0689 119.1 28.0689C118.483 28.0689 117.82 27.9741 117.062 27.8319C116.303 27.6897 115.687 27.5001 115.166 27.2632V23.8508C115.782 24.2774 116.493 24.6565 117.204 24.8935C117.915 25.1305 118.578 25.2726 119.194 25.2726C119.953 25.2726 120.569 25.1779 120.9 24.9409C121.28 24.7039 121.469 24.3722 121.469 23.8508C121.469 23.3769 121.28 22.9978 120.9 22.6186C120.521 22.2869 119.763 21.9077 118.72 21.4812C117.441 20.9599 116.54 20.3437 116.019 19.6802C115.498 19.0167 115.213 18.1636 115.213 17.121C115.213 15.794 115.735 14.7039 116.777 13.8508C117.82 12.9978 119.194 12.5712 120.853 12.5712C121.374 12.5712 121.943 12.6186 122.559 12.7608C123.175 12.903 123.744 13.0452 124.171 13.1873V16.5523C123.697 16.2679 123.175 15.9835 122.559 15.7466C121.943 15.5096 121.327 15.4148 120.758 15.4148C120.095 15.4148 119.573 15.557 119.242 15.794C118.91 16.1257 118.72 16.4575 118.72 16.9314ZM126.493 20.6281C126.493 18.211 127.204 16.2679 128.531 14.8461C129.905 13.4243 131.801 12.7134 134.218 12.7134C136.493 12.7134 138.294 13.3769 139.573 14.7513C140.853 16.1257 141.517 17.9741 141.517 20.2963C141.517 22.666 140.806 24.5617 139.479 25.9835C138.104 27.4053 136.256 28.1162 133.886 28.1162C131.611 28.1162 129.81 27.4527 128.483 26.1257C127.204 24.7513 126.493 22.903 126.493 20.6281ZM130.095 20.4859C130.095 22.0025 130.427 23.1873 131.137 23.993C131.848 24.7987 132.844 25.2253 134.123 25.2253C135.355 25.2253 136.351 24.8461 137.014 23.993C137.678 23.1873 138.009 22.0025 138.009 20.3911C138.009 18.8271 137.678 17.6423 137.014 16.7892C136.351 15.9835 135.355 15.557 134.171 15.557C132.891 15.557 131.943 15.9835 131.232 16.8366C130.474 17.7371 130.095 18.9219 130.095 20.4859ZM153.033 15.8888H147.867V27.7371H144.36V15.8888H141.896V13.0452H144.36V11.0072C144.36 9.49066 144.882 8.21104 145.877 7.21578C146.872 6.22052 148.152 5.74658 149.716 5.74658C150.142 5.74658 150.521 5.79398 150.853 5.79398C151.185 5.79398 151.469 5.88876 151.706 5.98355V8.96933C151.611 8.92194 151.374 8.82715 151.09 8.73236C150.806 8.63758 150.474 8.59018 150.095 8.59018C149.384 8.59018 148.815 8.82715 148.436 9.25369C148.057 9.68023 147.867 10.3911 147.867 11.2442V12.9978H153.033V9.68023L156.493 8.63758V12.9978H160V15.8414H156.493V22.7134C156.493 23.6139 156.682 24.23 156.967 24.6091C157.299 24.9883 157.82 25.1779 158.531 25.1779C158.72 25.1779 158.957 25.1305 159.242 25.0357C159.526 24.9409 159.763 24.8461 159.953 24.7039V27.5475C159.716 27.6897 159.384 27.7845 158.863 27.8793C158.341 27.9741 157.867 28.0215 157.346 28.0215C155.877 28.0215 154.787 27.6423 154.076 26.884C153.365 26.1257 152.986 24.9409 152.986 23.3769L153.033 15.8888Z" fill="#737373"/>
<path d="M16.2085 0.438477H0V16.647H16.2085V0.438477Z" fill="#F25022"/>
<path d="M34.1232 0.438477H17.9147V16.647H34.1232V0.438477Z" fill="#7FBA00"/>
<path d="M16.2085 18.353H0V34.5616H16.2085V18.353Z" fill="#00A4EF"/>
<path d="M34.1232 18.353H17.9147V34.5616H34.1232V18.353Z" fill="#FFB900"/>
</g>
<defs>
<clipPath id="clip0_305_25">
<rect width="160" height="34.1232" fill="white" transform="translate(0 0.438477)"/>
</clipPath>
</defs>
</svg>
