<svg width="160" height="25" viewBox="0 0 160 25" fill="none" xmlns="http://www.w3.org/2000/svg">
<g clip-path="url(#clip0_305_31)">
<mask id="mask0_305_31" style="mask-type:luminance" maskUnits="userSpaceOnUse" x="-13" y="-13" width="186" height="51">
<path d="M-12.2537 -12.009H172.264V37.0063H-12.2537V-12.009Z" fill="white"/>
</mask>
<g mask="url(#mask0_305_31)">
<path d="M151.909 11.0104V14.3463H154.253V17.6561C154.261 17.9518 154.244 18.2708 154.194 18.526C154.101 19.1434 153.514 20.1946 151.85 20.1946C150.196 20.1946 149.62 19.1434 149.52 18.526C149.478 18.2708 149.46 17.9518 149.46 17.6561V7.20215C149.46 6.83238 149.485 6.42765 149.563 6.12131C149.677 5.56415 150.171 4.46539 151.838 4.46539C153.587 4.46539 154.024 5.62377 154.124 6.12131C154.19 6.45085 154.194 7.00361 154.194 7.00361V8.27301H159.954V7.52259C159.954 7.52259 159.98 6.73956 159.91 6.00882C159.477 1.71805 155.942 0.360534 151.888 0.360534C147.827 0.360534 144.364 1.73068 143.859 6.00882C143.813 6.40004 143.744 7.10376 143.744 7.52259V17.1392C143.744 17.558 143.757 17.8822 143.835 18.6476C144.211 22.8203 147.827 24.2994 151.872 24.2994C155.942 24.2994 159.534 22.8203 159.916 18.6476C159.984 17.8822 159.991 17.558 160 17.1392V11.0104H151.909ZM112.189 0.975851H106.405V17.8972C106.414 18.1921 106.405 18.5234 106.354 18.7663C106.233 19.3343 105.752 20.4275 104.156 20.4275C102.58 20.4275 102.086 19.3343 101.975 18.7663C101.917 18.5234 101.909 18.1921 101.917 17.8972V0.975851H96.1336V17.3721C96.1263 17.7947 96.1595 18.6582 96.1844 18.8844C96.5836 23.1569 99.9509 24.5441 104.156 24.5441C108.369 24.5441 111.734 23.1569 112.14 18.8844C112.172 18.6582 112.214 17.7947 112.189 17.3721V0.975851ZM59.0372 0.975851L56.1515 18.8556L53.2676 0.975851H43.9363L43.4414 23.8492H49.1581L49.3129 2.67465L53.2462 23.8492H59.0463L62.9832 2.67465L63.1385 23.8492H68.8697L68.358 0.975851H59.0372ZM24.4881 0.975851L20.2511 23.8492H26.4298L29.6227 2.67465L32.739 23.8492H38.8748L34.6554 0.975851H24.4881ZM132.406 19.3916L127.02 0.975851H118.532V23.6107H124.147L123.821 4.60578L129.606 23.6107H137.746V0.975851H132.095L132.406 19.3916ZM80.4679 6.92871C80.3662 6.47699 80.3956 5.99707 80.4482 5.74625C80.6118 5.01403 81.1037 4.21544 82.5212 4.21544C83.8423 4.21544 84.6168 5.039 84.6168 6.27492V7.67355H90.256V6.07931C90.256 1.1509 85.8374 0.376688 82.6384 0.376688C78.6093 0.376688 75.3189 1.70483 74.718 5.41318C74.5591 6.42236 74.5197 7.31817 74.7726 8.46128C75.7524 13.0851 83.802 14.4265 84.9704 17.3506C85.1766 17.9046 85.1175 18.6109 85.0124 19.0271C84.8374 19.7881 84.3254 20.5535 82.8078 20.5535C81.3845 20.5535 80.5278 19.7352 80.5278 18.502L80.526 16.3068H74.4563V18.0517C74.4563 23.1079 78.4166 24.6334 82.6821 24.6334C86.7673 24.6334 90.1414 23.2374 90.6827 19.4533C90.9409 17.4981 90.7462 16.2245 90.6425 15.7449C89.6967 11.0024 81.1172 9.5759 80.4679 6.92871ZM6.07974 6.87261C5.96901 6.41149 5.99485 5.92482 6.05653 5.67106C6.21278 4.94237 6.70768 4.12968 8.15007 4.12968C9.48791 4.12968 10.2756 4.96117 10.2756 6.20707V7.62274H15.9809V6.01587C15.9809 1.04017 11.4948 0.247163 8.2608 0.247163C4.19795 0.247163 0.878184 1.59587 0.270797 5.33094C0.104559 6.35628 0.07606 7.25825 0.316313 8.41399C1.30669 13.0904 9.43592 14.4426 10.6187 17.4017C10.8401 17.9518 10.7732 18.6582 10.6633 19.0905C10.4756 19.8595 9.95961 20.6357 8.42939 20.6357C7.00051 20.6357 6.14582 19.8034 6.14582 18.5531L6.13789 16.352H0V18.101C0 23.2151 4.01644 24.7529 8.31514 24.7529C12.4479 24.7529 15.8417 23.3446 16.3953 19.5167C16.6705 17.5436 16.4641 16.2595 16.3712 15.7725C15.4058 10.9719 6.73089 9.55005 6.07974 6.87261Z" fill="#1428A0"/>
</g>
</g>
<defs>
<clipPath id="clip0_305_31">
<rect width="160" height="24.5058" fill="white" transform="translate(0 0.24707)"/>
</clipPath>
</defs>
</svg>
