<svg width="153" height="38" viewBox="0 0 153 38" fill="none" xmlns="http://www.w3.org/2000/svg">
<g clip-path="url(#clip0_405_308)">
<path d="M0 30.4009L13.1578 38V22.7975L0 30.4009Z" fill="#F34D8A"/>
<path d="M0 -1.58223e-05V15.1982L13.1578 7.59911L0 -1.58223e-05Z" fill="#FFB946"/>
<path d="M13.1578 7.60291L0 15.1992L13.1578 22.7983V7.60291Z" fill="#FA952E"/>
<path d="M13.1577 22.8017L26.3015 30.3994V15.1997L13.1577 22.8017Z" fill="url(#paint0_linear_405_308)"/>
<path d="M13.1577 22.7983L26.3015 15.1992V15.1964L13.1577 7.60292V22.7983Z" fill="url(#paint1_linear_405_308)"/>
<path d="M13.1577 37.9995L26.3015 30.4018V30.399L13.1577 22.8013V37.9995Z" fill="url(#paint2_linear_405_308)"/>
<mask id="mask0_405_308" style="mask-type:luminance" maskUnits="userSpaceOnUse" x="-1540" y="-1133" width="1718" height="1193">
<path d="M-1539.44 59.749H177.065V-1132.28H-1539.44V59.749Z" fill="white"/>
</mask>
<g mask="url(#mask0_405_308)">
<path d="M103.494 31.6299L97.9014 23.3171L103.545 15.4207H101.574C100.43 15.4249 98.739 15.7676 97.6156 17.4029C97.0341 18.2539 95.6787 20.365 95.6646 20.3692L95.6066 20.4528L92.3836 15.4207H87.3652L93.1306 23.5678L87.5421 31.6299H92.1884L95.6023 26.7068L98.9809 31.6299H103.494Z" fill="#1358AA"/>
<path d="M109.267 31.6299V14.9874C108.815 15.0993 106.881 15.6713 105.837 16.7629C105.386 17.233 105.165 17.7626 105.165 18.1973V31.6299H109.267Z" fill="#1358AA"/>
<path d="M130.121 30.913C130.915 31.6294 131.866 31.9126 133.279 31.9126C134.773 31.9126 135.841 31.57 136.776 31.0404V28.2355C136.155 28.5215 135.449 28.6914 134.668 28.6914H134.665C134.114 28.6914 133.662 28.5498 133.365 28.2214C133.058 27.8971 132.945 27.4313 132.945 26.855V18.8184H136.455L138.355 15.4174H132.945V9.2738C131.345 9.84157 130.008 10.7492 129.538 11.3113C129.039 11.9116 128.863 12.4128 128.863 13.3912V27.124C128.863 29.0171 129.333 30.1923 130.121 30.913Z" fill="#1358AA"/>
<path d="M143.887 28.7022C143.23 28.3001 142.973 27.5723 142.973 26.9111C142.973 26.4566 143.087 26.029 143.28 25.726C143.743 24.9939 144.653 24.5493 146.167 24.5182C146.273 24.5182 146.396 24.5111 146.508 24.5111C148.187 24.5111 149.128 24.8283 149.128 24.8283V26.1663C149.128 27.0385 148.745 28.2222 147.497 28.7659C146.88 29.0278 146.236 29.1652 145.622 29.1652C144.994 29.1652 144.394 29.0165 143.887 28.7022ZM146.015 15.237C143.743 15.2271 141.629 16.1347 141.225 16.4377C140.892 16.6897 140.676 17.0281 140.676 17.4798V19.6517C142.164 19.1463 144.138 18.8362 145.329 18.8362C146.559 18.8362 147.58 18.9806 148.263 19.5385C149.042 20.1742 149.142 21.2475 149.142 21.7558C149.142 21.9427 149.128 22.0602 149.128 22.0602L149.114 22.1267L149.052 22.1168C149.052 22.1168 147.242 21.9158 145.342 21.9158C143.45 21.9158 141.781 22.2712 140.643 23.1618C139.643 23.9391 138.854 25.4329 138.854 27.0073C138.854 28.7871 139.657 30.0544 140.557 30.8034C141.502 31.5807 143.256 31.9375 144.742 31.9375C146.334 31.9375 147.4 31.6756 148.08 31.4108C148.745 31.1488 149.018 30.8883 149.018 30.8883L149.128 30.7935V31.6331H153V22.1905C153 19.9873 152.614 18.1962 151.475 17.0309C149.966 15.4947 148.21 15.237 146.015 15.237Z" fill="#1358AA"/>
<path d="M116.78 28.7022C116.117 28.3001 115.858 27.5723 115.858 26.9111C115.858 26.4566 115.98 26.029 116.182 25.726C116.628 24.9939 117.545 24.5493 119.052 24.5182C119.175 24.5182 119.282 24.5111 119.396 24.5111C121.079 24.5111 122.023 24.8283 122.023 24.8283V26.1663C122.023 27.0385 121.641 28.2222 120.389 28.7659C119.779 29.0278 119.121 29.1652 118.51 29.1652C117.889 29.1652 117.289 29.0165 116.78 28.7022ZM118.907 15.237C116.628 15.2271 114.517 16.1347 114.121 16.4377C113.787 16.6897 113.566 17.0281 113.566 17.4798V19.6517C115.063 19.1463 117.024 18.8362 118.224 18.8362C119.445 18.8362 120.475 18.9806 121.151 19.5385C121.929 20.1742 122.034 21.2404 122.034 21.7558C122.034 21.9427 122.023 22.063 122.023 22.063L122.003 22.1267L121.946 22.1168C121.946 22.1168 120.137 21.9158 118.238 21.9158C116.338 21.9158 114.687 22.2712 113.531 23.1618C112.535 23.9391 111.746 25.4329 111.746 27.0073C111.746 28.7871 112.535 30.0544 113.449 30.8034C114.39 31.5807 116.158 31.9375 117.631 31.9375C119.226 31.9375 120.293 31.6756 120.96 31.4108C121.641 31.1488 121.907 30.8883 121.907 30.8883L122.023 30.7935V31.6302H125.907V22.1905C125.907 19.9873 125.516 18.1962 124.374 17.0309C122.848 15.4947 121.098 15.237 118.907 15.237Z" fill="#1358AA"/>
<path d="M76.8531 28.7022C76.1909 28.3001 75.9306 27.5723 75.9306 26.9111C75.9306 26.4566 76.0509 26.029 76.2461 25.726C76.7088 24.9939 77.6227 24.5493 79.1324 24.5182C79.237 24.5182 79.3601 24.5111 79.4719 24.5111C81.1598 24.5111 82.0922 24.8283 82.0922 24.8283V26.1663C82.0922 27.0385 81.7158 28.2222 80.4637 28.7659C79.8596 29.0278 79.1974 29.1652 78.5848 29.1652C77.9538 29.1652 77.361 29.0165 76.8531 28.7022ZM78.981 15.237C76.7088 15.2271 74.5908 16.1347 74.196 16.4377C73.872 16.6897 73.6372 17.0281 73.6372 17.4798V19.6517C75.1369 19.1463 77.0978 18.8362 78.2948 18.8362C79.5158 18.8362 80.5528 18.9806 81.2362 19.5385C82.0115 20.1742 82.1063 21.2404 82.1063 21.7558C82.1063 21.9427 82.0922 22.063 82.0922 22.063L82.0851 22.1267L82.0186 22.1168C82.0186 22.1168 80.2119 21.9158 78.3047 21.9158C76.4117 21.9158 74.7535 22.2712 73.6117 23.1618C72.6072 23.9391 71.8191 25.4329 71.8262 27.0073C71.8262 28.7871 72.6143 30.0544 73.5212 30.8034C74.4719 31.5807 76.2263 31.9375 77.709 31.9375C79.2993 31.9375 80.3604 31.6756 81.0438 31.4108C81.7158 31.1488 81.9804 30.8883 81.9804 30.8883L82.0922 30.7935V31.6302H85.9758V22.1905C85.9801 19.9873 85.5797 18.1962 84.4478 17.0309C82.9255 15.4947 81.181 15.237 78.981 15.237Z" fill="#1358AA"/>
</g>
<path d="M39.3745 23.5214L34.0407 15.5414H39.2118L42.0839 20.1105L44.9829 15.5414H50.038L44.7084 23.4761L50.2729 31.7817H45.1017L41.9906 26.8799L38.861 31.7817H33.8101L39.3745 23.5214Z" fill="#1358AA"/>
<path d="M51.9668 15.5381H56.4617V27.8337H64.3168V31.7812H51.9668V15.5381Z" fill="#1358AA"/>
</g>
<defs>
<linearGradient id="paint0_linear_405_308" x1="13.1436" y1="-10.989" x2="26.228" y2="-10.989" gradientUnits="userSpaceOnUse">
<stop stop-color="#212769"/>
<stop offset="0.193814" stop-color="#552075"/>
<stop offset="0.214279" stop-color="#552075"/>
<stop offset="0.229436" stop-color="#552075"/>
<stop offset="1" stop-color="#A82A81"/>
</linearGradient>
<linearGradient id="paint1_linear_405_308" x1="54.2584" y1="8.99376" x2="54.2584" y2="22.9838" gradientUnits="userSpaceOnUse">
<stop stop-color="#F14E27"/>
<stop offset="0.100006" stop-color="#F14E27"/>
<stop offset="0.917424" stop-color="#F6861F"/>
<stop offset="1" stop-color="#F6861F"/>
</linearGradient>
<linearGradient id="paint2_linear_405_308" x1="13.1294" y1="-3.19946" x2="26.1217" y2="-3.19946" gradientUnits="userSpaceOnUse">
<stop stop-color="#B10E3A"/>
<stop offset="0.602497" stop-color="#ED165F"/>
<stop offset="1" stop-color="#ED165F"/>
</linearGradient>
<clipPath id="clip0_405_308">
<rect width="153" height="38" fill="white"/>
</clipPath>
</defs>
</svg>
