<svg width="22" height="22" viewBox="0 0 22 22" fill="none" xmlns="http://www.w3.org/2000/svg">
<g clip-path="url(#clip0_98_6132)">
<path d="M10.5121 5.96384C10.5468 5.9636 10.5816 5.96335 10.6174 5.9631C10.6909 5.9627 10.7643 5.96242 10.8377 5.96225C10.9471 5.96184 11.0564 5.9605 11.1657 5.95914C12.4885 5.95057 13.7634 6.28731 14.7383 7.21867C14.7652 7.24237 14.7921 7.26608 14.8199 7.2905C15.1575 7.59916 15.3675 8.00738 15.5278 8.42985C15.5432 8.47035 15.5432 8.47035 15.5589 8.51166C15.698 8.90073 15.7394 9.28063 15.739 9.69201C15.7393 9.73972 15.7396 9.78744 15.7399 9.83659C15.7407 9.99319 15.7409 10.1498 15.741 10.3064C15.7413 10.4161 15.7416 10.5258 15.7419 10.6355C15.7424 10.865 15.7425 11.0946 15.7425 11.3242C15.7424 11.588 15.7433 11.8518 15.7447 12.1157C15.746 12.3712 15.7463 12.6268 15.7462 12.8823C15.7463 12.9902 15.7467 13.0981 15.7474 13.206C15.7534 14.2835 15.7534 14.2835 15.5547 14.7812C15.5433 14.8118 15.532 14.8424 15.5203 14.8739C15.2729 15.4972 14.767 15.9815 14.2173 16.3468C13.9606 16.5226 13.7483 16.7521 13.6641 17.0585C13.6264 17.3095 13.6153 17.5524 13.6164 17.8059C13.6163 17.8863 13.6163 17.9667 13.6163 18.0471C13.6163 18.0892 13.6164 18.1314 13.6165 18.1748C13.6166 18.3997 13.6155 18.6245 13.6146 18.8493C13.6136 19.1347 13.6129 19.42 13.6136 19.7054C13.6141 19.9367 13.6133 20.1681 13.6117 20.3994C13.6114 20.4873 13.6115 20.5751 13.612 20.6629C13.6169 21.4917 13.6169 21.4917 13.3881 21.7647C13.1291 22.0067 12.9184 22.0328 12.5663 22.0219C12.3437 21.9889 12.1849 21.9063 12.0313 21.7421C11.8556 21.4908 11.8345 21.3018 11.8371 20.9993C11.8368 20.9559 11.8365 20.9124 11.8362 20.8677C11.8355 20.7245 11.836 20.5814 11.8365 20.4383C11.8364 20.3381 11.8363 20.238 11.8361 20.1378C11.8358 19.9279 11.8362 19.718 11.837 19.5081C11.8379 19.2406 11.8374 18.9731 11.8364 18.7056C11.8357 18.4986 11.8359 18.2916 11.8364 18.0847C11.8365 17.9862 11.8364 17.8876 11.836 17.7891C11.8327 16.7752 12.0084 15.9456 12.736 15.19C12.9381 14.9986 13.1759 14.85 13.4063 14.6952C13.732 14.4595 13.8729 14.1993 13.9475 13.806C13.9879 13.4754 13.9771 13.1406 13.9763 12.8081C13.9763 12.7245 13.9764 12.641 13.9765 12.5574C13.9766 12.3826 13.9765 12.2079 13.976 12.0331C13.9756 11.8108 13.9758 11.5886 13.9764 11.3663C13.9767 11.1937 13.9766 11.0211 13.9763 10.8486C13.9763 10.7667 13.9764 10.6849 13.9766 10.603C13.9884 9.43944 13.9884 9.43944 13.438 8.44395C12.6677 7.77233 11.5099 7.68916 10.5351 7.75351C9.82253 7.81072 9.02424 7.96419 8.48431 8.47684C7.93363 9.12819 7.98528 9.90488 7.98497 10.7074C7.98483 10.7914 7.98469 10.8754 7.98454 10.9595C7.98428 11.1349 7.9842 11.3103 7.98423 11.4857C7.98423 11.7096 7.98364 11.9334 7.9829 12.1573C7.98242 12.3306 7.98234 12.5039 7.98236 12.6772C7.98231 12.7597 7.98212 12.8422 7.98179 12.9248C7.96552 13.7771 7.96552 13.7771 8.33594 14.5234C8.47114 14.6372 8.6166 14.7295 8.76563 14.8241C9.46254 15.3234 9.90107 15.9276 10.121 16.7602C10.1501 16.9476 10.1484 17.1336 10.1496 17.323C10.15 17.3668 10.1504 17.4107 10.1509 17.4558C10.1522 17.6007 10.1531 17.7455 10.1539 17.8904C10.1542 17.9399 10.1545 17.9895 10.1547 18.0406C10.1561 18.3029 10.1572 18.5652 10.158 18.8276C10.1588 19.0444 10.1603 19.2612 10.1624 19.478C10.165 19.7401 10.1663 20.0022 10.1668 20.2644C10.1671 20.3641 10.1679 20.4638 10.1692 20.5635C10.1709 20.7033 10.1709 20.8429 10.1706 20.9827C10.1719 21.044 10.1719 21.044 10.1732 21.1065C10.1699 21.4082 10.0788 21.5995 9.88281 21.828C9.65219 22.025 9.42772 22.0311 9.12885 22.0219C8.90624 21.9889 8.74737 21.9063 8.59375 21.7421C8.42937 21.5019 8.39698 21.3309 8.39978 21.0432C8.39948 21.0045 8.39917 20.9657 8.39886 20.9258C8.39803 20.7984 8.39838 20.6709 8.39871 20.5435C8.39829 20.4544 8.39777 20.3653 8.39718 20.2762C8.39579 20.0419 8.39534 19.8076 8.39516 19.5734C8.39479 19.1989 8.39325 18.8244 8.3912 18.4499C8.39067 18.3196 8.3907 18.1893 8.39079 18.059C8.3905 17.9784 8.3902 17.8977 8.38988 17.817C8.39006 17.7813 8.39023 17.7455 8.39042 17.7087C8.38766 17.3014 8.33535 16.8628 8.0501 16.5513C7.89395 16.4076 7.72762 16.2954 7.54639 16.1857C6.88573 15.7732 6.48417 15.1311 6.27344 14.3944C6.2405 14.2504 6.22491 14.1171 6.22415 13.9695C6.22368 13.9077 6.22368 13.9077 6.22321 13.8447C6.2231 13.8 6.22298 13.7553 6.22286 13.7093C6.22244 13.638 6.22244 13.638 6.22201 13.5654C6.22116 13.4083 6.22066 13.2511 6.22023 13.094C6.22006 13.0401 6.21988 12.9862 6.2197 12.9307C6.2189 12.6745 6.21827 12.4184 6.21791 12.1622C6.21749 11.8684 6.21637 11.5746 6.21462 11.2808C6.21316 11.0249 6.21266 10.769 6.21249 10.5131C6.21228 10.4051 6.21179 10.297 6.21098 10.189C6.20596 9.46757 6.20966 8.74931 6.56616 8.09952C6.58857 8.05701 6.58857 8.05701 6.61143 8.01364C6.73447 7.78608 6.87175 7.58168 7.04688 7.39054C7.08227 7.35171 7.11766 7.31288 7.15413 7.27288C7.40795 7.00682 7.6693 6.79588 7.99219 6.6171C8.03235 6.59467 8.0725 6.57224 8.11388 6.54912C8.84798 6.16094 9.68334 5.96853 10.5121 5.96384Z" fill="white"/>
<path d="M17.9287 7.6807C17.9797 7.68114 17.9797 7.68114 18.0316 7.68158C19.067 7.69929 20.0834 7.92594 20.9258 8.55082C20.9512 8.56882 20.9766 8.58682 21.0028 8.60537C21.5616 9.02931 21.8928 9.76215 22 10.4414C22.0312 10.803 22.0232 11.167 22.0213 11.5296C22.0213 11.6344 22.0214 11.7391 22.0215 11.8439C22.0215 12.0625 22.021 12.281 22.02 12.4995C22.0188 12.7785 22.0189 13.0574 22.0195 13.3364C22.0198 13.5524 22.0194 13.7684 22.0189 13.9844C22.0187 14.0872 22.0187 14.19 22.0189 14.2929C22.019 14.4369 22.0183 14.5808 22.0173 14.7248C22.0175 14.7666 22.0177 14.8083 22.0179 14.8513C22.0134 15.2795 21.9155 15.6885 21.7207 16.0703C21.706 16.0993 21.6914 16.1282 21.6763 16.158C21.4658 16.5521 21.1595 16.8413 20.8237 17.1311C20.5049 17.4125 20.3757 17.7159 20.3242 18.1328C20.3146 18.3484 20.314 18.5634 20.315 18.7792C20.3155 18.8871 20.3152 18.995 20.3148 19.1029C20.3136 19.4094 20.3131 19.7158 20.3143 20.0223C20.315 20.2106 20.3145 20.3988 20.3132 20.5871C20.3129 20.6584 20.3131 20.7297 20.3138 20.801C20.3201 21.471 20.3201 21.471 20.0913 21.7591C19.8799 21.9743 19.724 22.0119 19.4272 22.0269C19.177 22.0192 19.017 21.9733 18.8146 21.828C18.5898 21.5877 18.537 21.3826 18.5409 21.0644C18.5407 21.0279 18.5405 20.9914 18.5402 20.9538C18.5397 20.8337 18.5404 20.7137 18.5412 20.5936C18.5412 20.5096 18.5411 20.4255 18.541 20.3414C18.5409 20.1653 18.5415 19.9893 18.5424 19.8132C18.5437 19.5887 18.5435 19.3643 18.543 19.1398C18.5427 18.9662 18.543 18.7925 18.5436 18.6188C18.5438 18.5361 18.5438 18.4535 18.5436 18.3708C18.543 17.7976 18.5763 17.2783 18.8418 16.7578C18.8638 16.7145 18.8638 16.7145 18.8862 16.6702C19.0967 16.2761 19.403 15.9869 19.7388 15.6971C20.0573 15.4159 20.1878 15.1121 20.2383 14.6953C20.254 14.422 20.2504 14.1478 20.2497 13.8741C20.2497 13.7941 20.2498 13.7142 20.2499 13.6343C20.2501 13.4672 20.2499 13.3002 20.2495 13.1332C20.249 12.9205 20.2493 12.7079 20.2498 12.4952C20.2501 12.3303 20.25 12.1653 20.2498 12.0003C20.2497 11.922 20.2498 11.8437 20.25 11.7653C20.2811 10.8623 20.2811 10.8623 19.919 10.0702C19.4019 9.58025 18.6503 9.52164 17.9764 9.49252C17.6456 9.47321 17.3947 9.4262 17.142 9.20324C17.1127 9.1661 17.1127 9.1661 17.0827 9.12821C17.0624 9.10334 17.0421 9.07847 17.0211 9.05285C16.8743 8.83392 16.9081 8.54435 16.9297 8.29301C17.0011 8.05968 17.1667 7.91499 17.3594 7.77738C17.5459 7.68127 17.7231 7.67814 17.9287 7.6807Z" fill="white"/>
<path d="M4.04712 7.67803C4.07928 7.67675 4.11143 7.67547 4.14456 7.67415C4.42744 7.67121 4.64501 7.75346 4.85799 7.94138C4.87754 7.96614 4.89709 7.9909 4.91724 8.01641C4.93756 8.04128 4.95789 8.06615 4.97884 8.09177C5.12564 8.3107 5.09187 8.60027 5.07031 8.85161C4.99893 9.08494 4.83328 9.22963 4.64062 9.36724C4.48498 9.44085 4.35448 9.46585 4.18307 9.47432C4.1134 9.47839 4.1134 9.47839 4.04231 9.48253C3.99338 9.48525 3.94446 9.48797 3.89404 9.49077C3.22388 9.53533 2.49916 9.61711 2.01953 10.1407C1.6716 10.6143 1.74887 11.3232 1.75031 11.8814C1.75025 11.9615 1.75016 12.0415 1.75006 12.1216C1.74993 12.2884 1.75011 12.4552 1.75051 12.622C1.75101 12.8348 1.75072 13.0476 1.75021 13.2604C1.7499 13.4254 1.75 13.5903 1.75022 13.7553C1.75028 13.8337 1.75021 13.9122 1.75001 13.9906C1.72992 14.8507 1.72992 14.8507 2.13071 15.581C2.24112 15.6864 2.35376 15.7893 2.46679 15.8919C3.01837 16.3936 3.41097 17.0482 3.45053 17.8085C3.45821 18.0358 3.45889 18.2631 3.45915 18.4905C3.45957 18.5746 3.46 18.6587 3.46045 18.7428C3.46122 18.9181 3.46146 19.0934 3.46139 19.2688C3.46137 19.4927 3.46314 19.7166 3.46535 19.9406C3.46679 20.1139 3.46705 20.2871 3.46698 20.4604C3.46713 20.543 3.4677 20.6256 3.4687 20.7081C3.47724 21.4844 3.47724 21.4844 3.24763 21.7629C3.03031 21.9716 2.88195 22.0118 2.5835 22.0269C2.33328 22.0192 2.17331 21.9733 1.97086 21.828C1.76513 21.6081 1.69308 21.4077 1.69666 21.1104C1.69635 21.0788 1.69604 21.0472 1.69573 21.0146C1.69491 20.9109 1.69526 20.8072 1.69559 20.7034C1.69516 20.6307 1.69465 20.558 1.69405 20.4853C1.69266 20.2942 1.69221 20.1032 1.69204 19.9121C1.69166 19.6068 1.69012 19.3016 1.68808 18.9963C1.68754 18.8903 1.68757 18.7843 1.68766 18.6783C1.68751 17.9006 1.68751 17.9006 1.30679 17.2472C1.19638 17.1418 1.08374 17.0389 0.97071 16.9363C0.432907 16.4472 0.0613775 15.8253 -0.0121164 15.0897C-0.0168249 14.9679 -0.0179265 14.8467 -0.0173616 14.7249C-0.0176565 14.6793 -0.0179514 14.6337 -0.0182553 14.5868C-0.0190345 14.4378 -0.0188761 14.2889 -0.018631 14.14C-0.0188273 14.0353 -0.0190553 13.9307 -0.0193135 13.826C-0.0196962 13.6072 -0.0195944 13.3885 -0.019166 13.1697C-0.0186728 12.8909 -0.0195406 12.6121 -0.0207953 12.3333C-0.0215878 12.1173 -0.0215709 11.9013 -0.0213263 11.6853C-0.0213198 11.5826 -0.0215762 11.4799 -0.0221125 11.3771C-0.0266455 10.3664 0.114211 9.47602 0.859375 8.72271C1.50942 8.14745 2.32774 7.84837 3.17969 7.73443C3.21486 7.72966 3.25003 7.7249 3.28627 7.71999C3.53896 7.6917 3.79305 7.68348 4.04712 7.67803Z" fill="white"/>
<path d="M19.2071 2.14832C19.7517 2.57219 20.1634 3.13032 20.2813 3.8241C20.3488 4.59142 20.2468 5.29285 19.7626 5.91497C19.3257 6.41964 18.7529 6.82409 18.0689 6.88429C17.2721 6.91947 16.5933 6.79639 15.9737 6.25989C15.4925 5.80229 15.1405 5.22693 15.1106 4.5487C15.0973 3.73025 15.2627 3.0692 15.8409 2.46119C16.7527 1.57223 18.1439 1.43747 19.2071 2.14832ZM16.9727 3.84827C16.8475 4.07356 16.8457 4.30437 16.8867 4.55457C16.9708 4.78855 17.1271 4.95631 17.3435 5.07657C17.5787 5.16104 17.8277 5.16104 18.0629 5.07657C18.2792 4.95631 18.4355 4.78855 18.5196 4.55457C18.5606 4.30437 18.5588 4.07356 18.4336 3.84827C18.2744 3.63584 18.1014 3.5034 17.8363 3.45987C17.4561 3.44166 17.2022 3.54203 16.9727 3.84827Z" fill="white"/>
<path d="M5.80081 2.14832C6.34545 2.57219 6.75718 3.13032 6.87503 3.8241C6.94257 4.59142 6.84056 5.29285 6.35639 5.91497C5.91946 6.41964 5.34669 6.82409 4.66265 6.88429C3.86583 6.91947 3.1871 6.79639 2.56741 6.25989C2.08621 5.80229 1.73429 5.22693 1.70435 4.5487C1.69102 3.73025 1.85646 3.0692 2.43465 2.46119C3.34644 1.57223 4.73769 1.43747 5.80081 2.14832ZM3.56644 3.84827C3.44123 4.07356 3.43942 4.30437 3.4805 4.55457C3.56453 4.78855 3.72082 4.95631 3.93721 5.07657C4.17241 5.16104 4.42141 5.16104 4.6566 5.07657C4.87299 4.95631 5.02928 4.78855 5.11331 4.55457C5.1544 4.30437 5.15258 4.07356 5.02738 3.84827C4.86816 3.63584 4.69511 3.5034 4.43001 3.45987C4.04984 3.44166 3.79596 3.54203 3.56644 3.84827Z" fill="white"/>
<path d="M12.5039 0.429571C13.0486 0.853441 13.4603 1.41157 13.5782 2.10535C13.6457 2.87267 13.5437 3.5741 13.0595 4.19622C12.6226 4.70089 12.0498 5.10534 11.3658 5.16554C10.569 5.20072 9.89022 5.07764 9.27054 4.54114C8.78933 4.08354 8.43742 3.50818 8.40747 2.82995C8.39415 2.0115 8.55958 1.35045 9.13777 0.742437C10.0496 -0.146518 11.4408 -0.281281 12.5039 0.429571ZM10.2696 2.12952C10.1444 2.35481 10.1425 2.58562 10.1836 2.83582C10.2677 3.0698 10.4239 3.23756 10.6403 3.35782C10.8755 3.44229 11.1245 3.44229 11.3597 3.35782C11.5761 3.23756 11.7324 3.0698 11.8164 2.83582C11.8575 2.58562 11.8557 2.35481 11.7305 2.12952C11.5713 1.91709 11.3982 1.78465 11.1331 1.74112C10.753 1.72291 10.4991 1.82328 10.2696 2.12952Z" fill="white"/>
<path d="M16.404 17.3209C16.6148 17.4511 16.7452 17.6028 16.8437 17.832C16.867 17.9523 16.8681 18.0691 16.8673 18.1913C16.868 18.2433 16.868 18.2433 16.8686 18.2963C16.8698 18.41 16.8698 18.5236 16.8696 18.6373C16.8699 18.7169 16.8703 18.7965 16.8707 18.876C16.8713 19.0425 16.8713 19.209 16.8708 19.3755C16.8703 19.5882 16.8718 19.8008 16.8738 20.0134C16.8751 20.1776 16.8751 20.3419 16.8749 20.5062C16.8749 20.5845 16.8754 20.6629 16.8762 20.7412C16.8834 21.479 16.8834 21.479 16.6538 21.7615C16.4387 21.9726 16.2875 22.0118 15.9897 22.0268C15.7395 22.0191 15.5795 21.9733 15.3771 21.8279C15.1587 21.5944 15.0993 21.3916 15.1014 21.082C15.1009 21.0474 15.1005 21.0128 15.1 20.9771C15.0988 20.8634 15.0989 20.7497 15.0991 20.636C15.0988 20.5565 15.0984 20.4769 15.098 20.3973C15.0974 20.2308 15.0974 20.0643 15.0978 19.8978C15.0983 19.6852 15.0969 19.4726 15.0949 19.26C15.0936 19.0957 15.0935 18.9315 15.0938 18.7672C15.0938 18.6888 15.0933 18.6105 15.0924 18.5321C15.0853 17.7943 15.0853 17.7943 15.3149 17.5119C15.6084 17.2238 16.0174 17.1664 16.404 17.3209Z" fill="white"/>
<path d="M6.4352 17.3209C6.64601 17.4511 6.77643 17.6028 6.87496 17.832C6.89828 17.9523 6.89937 18.0691 6.89856 18.1913C6.89922 18.2433 6.89922 18.2433 6.89989 18.2963C6.90108 18.41 6.90101 18.5236 6.90081 18.6373C6.90114 18.7169 6.90151 18.7965 6.90192 18.876C6.90256 19.0425 6.90254 19.209 6.90209 19.3755C6.90159 19.5882 6.90304 19.8008 6.90504 20.0134C6.90631 20.1776 6.90638 20.3419 6.90611 20.5062C6.90616 20.5845 6.9066 20.6629 6.90747 20.7412C6.91465 21.479 6.91465 21.479 6.68503 21.7615C6.46992 21.9726 6.31873 22.0118 6.02096 22.0268C5.77074 22.0191 5.61077 21.9733 5.40832 21.8279C5.18992 21.5944 5.13055 21.3916 5.13261 21.082C5.13217 21.0474 5.13173 21.0128 5.13128 20.9771C5.13009 20.8634 5.13016 20.7497 5.13036 20.636C5.13003 20.5565 5.12965 20.4769 5.12925 20.3973C5.12861 20.2308 5.12863 20.0643 5.12908 19.8978C5.12958 19.6852 5.12812 19.4726 5.12613 19.26C5.12486 19.0957 5.12479 18.9315 5.12506 18.7672C5.12501 18.6888 5.12457 18.6105 5.1237 18.5321C5.11652 17.7943 5.11652 17.7943 5.34613 17.5119C5.63964 17.2238 6.04864 17.1664 6.4352 17.3209Z" fill="white"/>
</g>
<defs>
<clipPath id="clip0_98_6132">
<rect width="22" height="22" fill="white"/>
</clipPath>
</defs>
</svg>
