<svg width="22" height="22" viewBox="0 0 22 22" fill="none" xmlns="http://www.w3.org/2000/svg">
<g clip-path="url(#clip0_98_6129)">
<path d="M5.42859 1.27223C5.59332 1.27253 5.75805 1.27207 5.92278 1.27172C6.2446 1.27115 6.56642 1.27127 6.88824 1.27164C7.15001 1.27194 7.41178 1.27197 7.67355 1.27183C7.72964 1.2718 7.72964 1.2718 7.78686 1.27177C7.86285 1.27173 7.93883 1.27169 8.01482 1.27165C8.72573 1.27128 9.43665 1.2717 10.1476 1.2724C10.7563 1.27297 11.365 1.27287 11.9738 1.27228C12.6823 1.27159 13.3908 1.27132 14.0994 1.27171C14.1751 1.27175 14.2508 1.27179 14.3264 1.27183C14.3823 1.27186 14.3823 1.27186 14.4393 1.27189C14.7004 1.272 14.9616 1.27182 15.2228 1.27151C15.5415 1.27115 15.8602 1.27125 16.1788 1.27194C16.3411 1.27227 16.5034 1.27241 16.6657 1.27198C18.2305 1.26818 18.2305 1.26818 18.8364 1.55764C18.8648 1.57069 18.8932 1.58374 18.9225 1.59719C19.1659 1.71257 19.3844 1.84944 19.5937 2.01955C19.6294 2.04819 19.665 2.07682 19.7017 2.10633C20.3819 2.68445 20.825 3.49994 20.9059 4.39121C20.9327 4.72981 20.9321 5.06786 20.932 5.40724C20.9321 5.47873 20.9323 5.55021 20.9325 5.6217C20.9328 5.81433 20.9329 6.00697 20.933 6.1996C20.933 6.32016 20.9331 6.44071 20.9332 6.56126C20.9336 6.98235 20.9338 7.40344 20.9337 7.82453C20.9337 8.21633 20.9342 8.60813 20.9348 8.99992C20.9354 9.33719 20.9356 9.67446 20.9356 10.0117C20.9356 10.2128 20.9357 10.4139 20.9362 10.6149C20.9366 10.8038 20.9366 10.9927 20.9363 11.1816C20.9362 11.2508 20.9363 11.3199 20.9366 11.3891C20.9397 12.2578 20.9397 12.2578 20.668 12.5899C20.3713 12.8139 20.1281 12.8298 19.7656 12.8047C19.5149 12.729 19.3584 12.5389 19.207 12.3321C19.1571 12.1824 19.1583 12.0653 19.1578 11.9073C19.1577 11.877 19.1575 11.8467 19.1574 11.8155C19.1569 11.7138 19.1568 11.6121 19.1566 11.5104C19.1563 11.4375 19.156 11.3647 19.1557 11.2918C19.1551 11.1348 19.1546 10.9777 19.1542 10.8206C19.1535 10.572 19.1525 10.3233 19.1514 10.0746C19.1483 9.36729 19.1458 8.66001 19.1436 7.95273C19.1424 7.56225 19.1408 7.17177 19.139 6.7813C19.1378 6.53446 19.1371 6.28763 19.1366 6.0408C19.1362 5.88655 19.1354 5.73231 19.1346 5.57806C19.1343 5.50698 19.1341 5.4359 19.1341 5.36482C19.1338 4.71524 19.1126 4.13537 18.6753 3.61745C18.6381 3.58643 18.6008 3.55542 18.5625 3.52346C18.5393 3.50241 18.5162 3.48136 18.4923 3.45968C18.0929 3.12212 17.5962 3.06806 17.091 3.07195C17.0366 3.07168 16.9821 3.07141 16.926 3.07113C16.7764 3.07042 16.6269 3.07077 16.4774 3.0713C16.3155 3.07169 16.1535 3.07109 15.9916 3.07062C15.6751 3.06986 15.3585 3.07002 15.042 3.07052C14.7846 3.07091 14.5272 3.07096 14.2698 3.07077C14.233 3.07074 14.1963 3.07072 14.1585 3.07069C14.0838 3.07064 14.0092 3.07058 13.9345 3.07052C13.2358 3.07003 12.5371 3.0706 11.8383 3.07152C11.2397 3.07229 10.641 3.07216 10.0423 3.07136C9.34599 3.07044 8.64964 3.07008 7.95328 3.07061C7.87893 3.07066 7.80458 3.07072 7.73023 3.07077C7.69366 3.0708 7.65708 3.07082 7.6194 3.07085C7.3625 3.071 7.1056 3.07075 6.8487 3.07034C6.53533 3.06986 6.22197 3.07 5.9086 3.07091C5.74892 3.07136 5.58925 3.07154 5.42958 3.07097C5.25602 3.07036 5.0825 3.07109 4.90895 3.07195C4.85913 3.07156 4.80931 3.07118 4.75798 3.07078C4.23444 3.07576 3.744 3.20604 3.35156 3.56643C2.94655 4.03704 2.87273 4.57289 2.87211 5.17084C2.87189 5.21448 2.87168 5.25811 2.87146 5.30306C2.87081 5.44867 2.87044 5.59427 2.87008 5.73987C2.86967 5.84449 2.86924 5.9491 2.86879 6.05371C2.86787 6.27863 2.86708 6.50355 2.8664 6.72846C2.86543 7.05365 2.86422 7.37884 2.86295 7.70403C2.86091 8.23168 2.85905 8.75934 2.85731 9.287C2.85561 9.79942 2.85383 10.3118 2.85193 10.8243C2.85182 10.8559 2.8517 10.8875 2.85158 10.9201C2.85099 11.0786 2.8504 11.2372 2.84981 11.3958C2.84492 12.7105 2.84033 14.0252 2.83594 15.3399C2.87478 15.3398 2.91362 15.3397 2.95364 15.3397C5.25542 15.3358 7.5572 15.3329 9.85899 15.3311C10.1353 15.3309 10.4117 15.3307 10.688 15.3304C10.743 15.3304 10.798 15.3303 10.8547 15.3303C11.7457 15.3295 12.6366 15.3282 13.5275 15.3266C14.4417 15.325 15.3558 15.324 16.2699 15.3237C16.834 15.3235 17.3981 15.3227 17.9622 15.3213C18.3489 15.3204 18.7357 15.3201 19.1225 15.3204C19.3456 15.3205 19.5688 15.3203 19.792 15.3194C19.9964 15.3185 20.2008 15.3185 20.4053 15.3191C20.4791 15.3192 20.553 15.3189 20.6268 15.3184C21.4748 15.3126 21.4748 15.3126 21.7693 15.5739C21.9459 15.7742 22.0105 15.9354 22.0132 16.1992C22.0139 16.2513 22.0145 16.3034 22.0152 16.3571C22.0155 16.4134 22.0157 16.4697 22.0159 16.5277C22.0163 16.5866 22.0167 16.6455 22.0171 16.7044C22.0178 16.8281 22.0182 16.9518 22.0183 17.0756C22.0185 17.2322 22.0201 17.3889 22.0221 17.5456C22.0234 17.6675 22.0237 17.7894 22.0237 17.9113C22.024 17.9966 22.0253 18.0819 22.0265 18.1671C22.0231 18.8732 21.7689 19.4702 21.2883 19.9885C20.6452 20.5987 19.8756 20.738 19.022 20.7328C18.9496 20.733 18.8772 20.7333 18.8048 20.7336C18.6078 20.7343 18.4108 20.734 18.2138 20.7334C18.0005 20.733 17.7873 20.7336 17.5741 20.7341C17.1571 20.7349 16.7402 20.7347 16.3232 20.7342C15.9842 20.7338 15.6451 20.7338 15.3061 20.734C15.2336 20.734 15.2336 20.734 15.1595 20.734C15.0613 20.7341 14.963 20.7341 14.8647 20.7342C13.9446 20.7347 13.0244 20.7341 12.1042 20.7332C11.3157 20.7324 10.5272 20.7326 9.73863 20.7334C8.82161 20.7343 7.9046 20.7346 6.98758 20.7341C6.88969 20.7341 6.79179 20.734 6.6939 20.734C6.62166 20.7339 6.62166 20.7339 6.54796 20.7339C6.20956 20.7337 5.87116 20.734 5.53277 20.7344C5.12003 20.7349 4.70731 20.7347 4.29458 20.7338C4.08424 20.7334 3.8739 20.7332 3.66356 20.7338C3.4706 20.7343 3.27766 20.734 3.0847 20.7331C3.01531 20.7329 2.94592 20.733 2.87653 20.7334C2.06329 20.7379 1.3501 20.5712 0.74272 19.9956C0.18765 19.4244 -0.0200212 18.8136 -0.020143 18.0264C-0.020449 17.9672 -0.0207799 17.9079 -0.0211344 17.8487C-0.0217084 17.7252 -0.0217811 17.6018 -0.0215278 17.4784C-0.0212737 17.321 -0.0225932 17.1636 -0.0243258 17.0063C-0.0254412 16.8842 -0.025561 16.7621 -0.0254046 16.64C-0.0255117 16.554 -0.0265693 16.468 -0.0276489 16.3821C-0.0252542 16.0659 -0.000805812 15.839 0.214842 15.5977C0.304976 15.5186 0.304976 15.5186 0.389403 15.4715C0.417375 15.4551 0.445346 15.4388 0.474165 15.4219C0.67562 15.3286 0.85519 15.3385 1.07422 15.3399C1.07414 15.2856 1.07406 15.2314 1.07398 15.1755C1.07211 13.8852 1.0707 12.5949 1.06983 11.3045C1.06972 11.1454 1.06961 10.9863 1.0695 10.8271C1.06947 10.7955 1.06945 10.7638 1.06943 10.7312C1.06906 10.2196 1.06838 9.70796 1.06759 9.19636C1.06678 8.67065 1.06631 8.14494 1.06613 7.61923C1.06601 7.29534 1.06564 6.97146 1.06494 6.64758C1.06443 6.39841 1.06438 6.14925 1.0645 5.90008C1.06447 5.79846 1.0643 5.69684 1.06397 5.59522C1.06014 4.35906 1.17412 3.33434 2.01953 2.3633C2.0418 2.33694 2.06406 2.31057 2.087 2.28341C2.96298 1.3238 4.22398 1.26904 5.42859 1.27223ZM1.71875 17.1016C1.65609 17.9737 1.65609 17.9737 1.97656 18.7344C2.20714 18.9085 2.36238 18.9546 2.64795 18.955C2.69176 18.9552 2.69176 18.9552 2.73646 18.9553C2.83505 18.9556 2.93364 18.9556 3.03223 18.9556C3.10335 18.9557 3.17447 18.9559 3.24558 18.956C3.44157 18.9565 3.63756 18.9566 3.83355 18.9567C4.04471 18.9569 4.25587 18.9573 4.46703 18.9577C4.97725 18.9585 5.48748 18.959 5.9977 18.9594C6.23786 18.9596 6.47802 18.9598 6.71818 18.96C7.51631 18.9607 8.31445 18.9614 9.11259 18.9617C9.31977 18.9618 9.52695 18.9618 9.73413 18.9619C9.78563 18.9619 9.83712 18.962 9.89018 18.962C10.7246 18.9623 11.5591 18.9634 12.3935 18.9648C13.2498 18.9662 14.1062 18.967 14.9625 18.9672C15.4434 18.9673 15.9244 18.9676 16.4053 18.9687C16.8149 18.9697 17.2244 18.97 17.634 18.9696C17.843 18.9694 18.0519 18.9695 18.2609 18.9703C18.4523 18.9711 18.6436 18.971 18.835 18.9704C18.9042 18.9703 18.9734 18.9704 19.0426 18.9709C19.469 18.9739 19.7783 18.9664 20.104 18.6619C20.3943 18.2093 20.2812 17.598 20.2812 17.1016C14.1556 17.1016 8.03 17.1016 1.71875 17.1016Z" fill="white"/>
<path d="M10.9812 4.27815C11.0504 4.27558 11.0504 4.27558 11.121 4.27295C11.6731 4.31567 12.249 4.65889 12.7483 4.8824C12.87 4.93662 12.9917 4.99079 13.1134 5.04495C13.1973 5.08233 13.2813 5.11974 13.3652 5.15718C13.6651 5.29084 13.9657 5.4229 14.2666 5.55429C14.3916 5.609 14.5166 5.66373 14.6416 5.71846C14.7213 5.75335 14.8012 5.78814 14.8811 5.82283C16.1983 6.39525 16.1983 6.39525 16.4663 6.98451C16.6159 7.45206 16.6291 7.93241 16.4302 8.38435C16.1828 8.83053 15.8316 9.07655 15.3714 9.26588C15.3252 9.28495 15.279 9.30402 15.2314 9.32367C15.1787 9.34525 15.1787 9.34525 15.125 9.36726C15.1247 9.39231 15.1245 9.41735 15.1242 9.44315C15.1215 9.7067 15.1178 9.97024 15.1137 10.2338C15.1123 10.3318 15.1111 10.4298 15.1101 10.5278C15.0932 12.1745 15.0932 12.1745 14.4959 12.7954C14.1457 13.1245 13.6992 13.2992 13.2607 13.4777C13.1597 13.5189 13.0591 13.5607 12.9584 13.6027C12.321 13.8666 11.7241 14.1007 11.0269 14.1073C10.984 14.1085 10.9412 14.1097 10.8971 14.111C10.275 14.1162 9.72121 13.8875 9.15865 13.6478C9.05818 13.605 8.95746 13.5628 8.85668 13.5208C8.06292 13.1877 7.4269 12.9086 7.05225 12.0797C6.9802 11.8795 6.95557 11.7015 6.95606 11.4892C6.95606 11.4419 6.95607 11.3946 6.95607 11.3459C6.95629 11.2953 6.95651 11.2447 6.95674 11.1926C6.9568 11.1404 6.95686 11.0883 6.95693 11.0346C6.95717 10.8682 6.95771 10.7018 6.95825 10.5355C6.95847 10.4226 6.95867 10.3097 6.95884 10.1968C6.95931 9.92032 6.96003 9.64379 6.96094 9.36726C6.93439 9.35851 6.90785 9.34976 6.8805 9.34074C6.84567 9.3292 6.81085 9.31766 6.77496 9.30578C6.72318 9.28866 6.72318 9.28866 6.67035 9.27119C6.17014 9.10033 5.78686 8.80744 5.54968 8.3298C5.37825 7.90644 5.37285 7.46766 5.52954 7.03889C5.76101 6.5154 6.14693 6.25126 6.65747 6.02644C6.72249 5.99722 6.72249 5.99722 6.78881 5.96741C6.91655 5.91025 7.04449 5.85356 7.17256 5.79716C7.26833 5.75498 7.36407 5.7127 7.4598 5.67042C7.86978 5.48946 8.28018 5.30949 8.69082 5.13005C8.9052 5.03633 9.1194 4.94223 9.33339 4.84761C9.46003 4.79161 9.58673 4.73576 9.71344 4.67991C9.77193 4.65409 9.8304 4.6282 9.88884 4.60224C9.96922 4.56654 10.0497 4.53109 10.1302 4.49568C10.175 4.47585 10.2199 4.45602 10.266 4.43559C10.5038 4.34095 10.7251 4.28329 10.9812 4.27815ZM10.5153 6.25119C10.4638 6.27469 10.4638 6.27469 10.4113 6.29866C10.2994 6.34983 10.1878 6.40164 10.0762 6.45345C9.92084 6.5247 9.76536 6.59563 9.6099 6.66661C9.57109 6.68439 9.53229 6.70216 9.49231 6.72048C9.08837 6.90523 8.68083 7.08119 8.27224 7.25536C7.9876 7.37734 7.70862 7.5061 7.4336 7.64851C7.55025 7.72628 7.6582 7.78081 7.78574 7.83784C7.83253 7.85881 7.87932 7.87978 7.92753 7.90139C7.979 7.92429 8.03047 7.94719 8.0835 7.97078C8.13773 7.995 8.19196 8.01922 8.24618 8.04345C8.92593 8.34666 9.60785 8.64499 10.2897 8.94336C10.3366 8.96389 10.3366 8.96389 10.3845 8.98484C10.4305 9.00443 10.4305 9.00443 10.4774 9.02443C10.5703 9.06648 10.5703 9.06648 10.6663 9.11956C10.8505 9.21784 10.8505 9.21784 11.0544 9.22612C11.155 9.19366 11.2481 9.15437 11.3438 9.10945C11.3738 9.09679 11.4038 9.08412 11.4347 9.07107C11.528 9.03141 11.6201 8.98964 11.7122 8.94731C11.7463 8.93182 11.7805 8.91633 11.8156 8.90038C11.8885 8.86733 11.9613 8.8342 12.034 8.801C12.2254 8.71372 12.417 8.62708 12.6086 8.54045C12.647 8.5231 12.6854 8.50575 12.7249 8.48787C13.0822 8.32654 13.4411 8.16916 13.801 8.01375C13.8279 8.00211 13.8548 7.99048 13.8826 7.97849C14.1096 7.88038 14.3364 7.78248 14.5664 7.69148C14.4767 7.59341 14.398 7.53625 14.2764 7.48323C14.2441 7.46895 14.2118 7.45467 14.1785 7.43996C14.1434 7.42481 14.1083 7.40967 14.0721 7.39406C14.0167 7.36974 14.0167 7.36974 13.9603 7.34493C13.8393 7.29186 13.7181 7.23921 13.5969 7.1866C13.5135 7.15016 13.43 7.11369 13.3466 7.0772C13.2192 7.02152 13.0919 6.96587 12.9645 6.91033C12.6927 6.79168 12.4217 6.6711 12.1514 6.54895C12.0523 6.50436 11.9531 6.45981 11.854 6.41527C11.7917 6.38717 11.7295 6.35892 11.6673 6.33051C11.5813 6.29122 11.4951 6.25251 11.4087 6.21393C11.3606 6.19212 11.3125 6.17032 11.263 6.14785C10.9707 6.04711 10.781 6.12609 10.5153 6.25119ZM13.0187 10.2553C12.9923 10.2672 12.9659 10.2791 12.9388 10.2914C12.8538 10.3297 12.7688 10.3681 12.6838 10.4066C11.0834 11.1308 11.0834 11.1308 10.342 10.8604C10.2162 10.8097 10.0925 10.7548 9.96875 10.6993C9.92189 10.6786 9.87502 10.6578 9.82673 10.6365C9.39817 10.4469 9.39817 10.4469 9.19375 10.354C9.14519 10.332 9.09663 10.31 9.0466 10.2874C8.98093 10.2575 8.98093 10.2575 8.91394 10.2269C8.81432 10.1782 8.81432 10.1782 8.72266 10.1837C8.71947 10.3649 8.71713 10.5461 8.71558 10.7273C8.71493 10.789 8.71405 10.8506 8.71293 10.9123C8.71137 11.0009 8.71064 11.0895 8.71007 11.1782C8.70939 11.2315 8.70872 11.2848 8.70802 11.3398C8.7245 11.4894 8.74023 11.5095 8.85156 11.6016C8.92576 11.6428 8.92576 11.6428 9.00805 11.6741C9.05453 11.693 9.05453 11.693 9.10195 11.7123C9.15191 11.7321 9.15191 11.7321 9.20287 11.7522C9.23736 11.7661 9.27186 11.78 9.3074 11.7944C9.41762 11.8388 9.52802 11.8827 9.63843 11.9266C9.71227 11.9563 9.78609 11.986 9.8599 12.0158C9.93092 12.0443 10.0019 12.0728 10.073 12.1013C10.106 12.1146 10.1391 12.1278 10.1731 12.1415C10.8117 12.3954 11.2394 12.399 11.8752 12.1379C11.9113 12.1233 11.9475 12.1087 11.9848 12.0936C12.0605 12.0628 12.1361 12.0319 12.2116 12.0007C12.327 11.9533 12.4428 11.907 12.5586 11.8607C12.6325 11.8305 12.7064 11.8003 12.7802 11.77C12.8146 11.7563 12.849 11.7427 12.8845 11.7286C13.0789 11.6472 13.2141 11.5781 13.3203 11.3868C13.3438 11.2458 13.3438 11.2458 13.3371 11.0932C13.3363 11.0099 13.3363 11.0099 13.3354 10.925C13.334 10.8667 13.3325 10.8085 13.3311 10.7503C13.3302 10.6913 13.3294 10.6322 13.3287 10.5732C13.3267 10.429 13.3239 10.2849 13.3203 10.1407C13.221 10.1407 13.1056 10.216 13.0187 10.2553Z" fill="white"/>
</g>
<defs>
<clipPath id="clip0_98_6129">
<rect width="22" height="22" fill="white"/>
</clipPath>
</defs>
</svg>
