<svg width="22" height="22" viewBox="0 0 22 22" fill="none" xmlns="http://www.w3.org/2000/svg">
<g clip-path="url(#clip0_98_6144)">
<path d="M14.7277 -0.00882614C14.7828 -0.00919353 14.7828 -0.00919353 14.8391 -0.00956834C14.9172 -0.00997377 14.9952 -0.0102549 15.0733 -0.0104207C15.1895 -0.010831 15.3057 -0.0121618 15.422 -0.0135259C17.2278 -0.0245388 18.9293 0.587287 20.2249 1.8583C21.5106 3.15882 22.0209 4.90844 22.0134 6.70303C22.0133 6.74204 22.0133 6.78105 22.0132 6.82125C22.0112 7.40719 21.9866 7.97479 21.8711 8.55068C21.8639 8.58897 21.8568 8.62726 21.8494 8.66671C21.7172 9.37056 21.5505 10.1083 21.2644 10.7669C21.1508 11.0793 21.3216 11.433 21.428 11.7277C21.6184 12.2789 21.7591 12.8341 21.8711 13.4062C21.8788 13.4448 21.8865 13.4834 21.8944 13.5231C22.1157 14.6883 22.1108 16.0359 21.8281 17.1874C21.8203 17.2205 21.8125 17.2536 21.8044 17.2877C21.4314 18.8244 20.4679 20.1867 19.1243 21.02C18.4513 21.4291 17.7353 21.6843 16.9727 21.871C16.9249 21.8827 16.9249 21.8827 16.8761 21.8947C16.3346 22.0191 15.7822 22.012 15.2297 22.0133C15.1921 22.0135 15.1544 22.0137 15.1156 22.0138C13.984 22.0163 13.984 22.0163 13.6641 21.7421C13.4774 21.547 13.3652 21.3893 13.3619 21.1142C13.3775 20.8271 13.4288 20.6429 13.6392 20.4359C13.9094 20.195 14.133 20.184 14.4785 20.1914C14.5645 20.1922 14.6506 20.1931 14.7366 20.194C14.8709 20.1958 15.0052 20.1979 15.1396 20.2002C16.4047 20.2207 17.603 19.9809 18.6055 19.164C18.6415 19.1349 18.6776 19.1059 18.7147 19.076C19.6148 18.3113 20.0496 17.1765 20.1953 16.0272C20.2069 15.7857 20.2079 15.544 20.2087 15.3021C20.2089 15.268 20.2091 15.2339 20.2093 15.1987C20.2107 14.5874 20.1511 14.0054 20.0234 13.4062C19.8856 13.5702 19.7737 13.744 19.6636 13.9271C19.2528 14.5956 18.7643 15.2111 18.2617 15.8124C18.2304 15.8501 18.2304 15.8501 18.1984 15.8886C17.6792 16.5119 17.1281 17.1297 16.5126 17.6596C16.4162 17.7441 16.3219 17.8308 16.228 17.9181C15.9835 18.1449 15.7333 18.359 15.4688 18.5624C15.4421 18.5833 15.4155 18.6043 15.388 18.6258C15.298 18.6965 15.2076 18.7665 15.1169 18.8363C15.0883 18.8589 15.0598 18.8814 15.0303 18.9046C14.7545 19.1148 14.5039 19.1921 14.158 19.1468C13.9151 19.0883 13.7543 18.9668 13.6023 18.7719C13.5071 18.5967 13.4844 18.4668 13.4814 18.2697C13.4803 18.226 13.4792 18.1823 13.4781 18.1372C13.5069 17.8647 13.6409 17.71 13.8413 17.5338C13.8835 17.4967 13.9257 17.4596 13.9692 17.4214C14.1043 17.3074 14.2417 17.1979 14.3821 17.0907C14.9723 16.6395 15.5016 16.1265 16.0273 15.6029C16.0782 15.5524 16.0782 15.5524 16.1301 15.5008C16.3338 15.2965 16.5281 15.087 16.7148 14.8671C16.7382 14.8397 16.7615 14.8124 16.7855 14.7842C17.6705 13.7402 18.4151 12.6035 19.0459 11.3893C19.0692 11.3446 19.0924 11.2999 19.1164 11.2539C19.1862 11.0706 19.1875 10.9321 19.117 10.7482C19.0951 10.7061 19.0732 10.6641 19.0506 10.6207C19.0261 10.5734 19.0016 10.5261 18.9764 10.4773C18.9497 10.4273 18.923 10.3773 18.8955 10.3258C18.8819 10.3001 18.8683 10.2743 18.8543 10.2478C18.0337 8.69202 16.9386 7.3158 15.703 6.07041C15.6425 6.00932 15.5821 5.94806 15.5217 5.8868C15.2595 5.62436 14.985 5.38744 14.6953 5.15615C14.645 5.11392 14.5949 5.07144 14.5451 5.02859C14.3206 4.83536 14.0957 4.65178 13.8547 4.47939C13.5946 4.28585 13.4653 4.13382 13.4089 3.80801C13.39 3.53624 13.4696 3.2937 13.6345 3.07754C13.8286 2.88797 14.0207 2.81052 14.2883 2.79146C14.6095 2.79571 14.8676 2.96251 15.1116 3.15542C15.1409 3.17807 15.1703 3.20072 15.2006 3.22406C15.6405 3.56664 16.0568 3.9359 16.4656 4.31474C16.5771 4.41753 16.69 4.51844 16.8035 4.61904C17.1247 4.9077 17.4318 5.21103 17.712 5.53985C17.8033 5.64525 17.8983 5.74684 17.9932 5.84902C18.2416 6.12208 18.4674 6.4098 18.6914 6.70303C18.7165 6.73569 18.7417 6.76836 18.7675 6.80201C19.209 7.37684 19.6247 7.96153 19.9805 8.59365C19.9946 8.59365 20.0088 8.59365 20.0234 8.59365C20.1565 7.96913 20.2132 7.36129 20.2141 6.72451C20.2144 6.69254 20.2146 6.66056 20.2149 6.62762C20.222 5.30888 19.8092 4.02883 18.8928 3.05874C17.8169 2.04297 16.3725 1.74762 14.939 1.7638C14.8928 1.76426 14.8465 1.76471 14.7989 1.76518C14.7084 1.76636 14.618 1.76819 14.5275 1.77074C14.2246 1.77546 14.0418 1.73593 13.8064 1.53335C13.5951 1.28777 13.5534 1.09106 13.5637 0.771997C13.5905 0.535361 13.6574 0.379653 13.84 0.223977C14.1331 0.0173439 14.3777 -0.00698602 14.7277 -0.00882614Z" fill="white"/>
<path d="M6.68303 -0.0167168C6.79878 -0.0160146 6.91446 -0.0167214 7.03021 -0.0175351C7.10532 -0.0174501 7.18043 -0.0172852 7.25554 -0.0170316C7.28939 -0.0172925 7.32323 -0.0175534 7.3581 -0.0178223C7.64858 -0.0141869 7.90593 0.0514362 8.15604 0.201505C8.35893 0.415988 8.43263 0.611759 8.44071 0.907804C8.43058 1.17623 8.36928 1.32941 8.19364 1.53354C7.90192 1.78455 7.65743 1.77496 7.28861 1.76449C5.77456 1.74538 4.29242 1.96185 3.14817 3.03552C2.22291 3.94197 1.80558 5.21776 1.79222 6.49487C1.79184 6.56253 1.79154 6.63019 1.7913 6.69784C1.79113 6.73199 1.79096 6.76613 1.79078 6.8013C1.78937 7.41261 1.84895 7.99463 1.9766 8.59384C2.11806 8.42564 2.23123 8.24945 2.34452 8.0621C2.56164 7.70923 2.8007 7.37697 3.05082 7.04696C3.06898 7.02277 3.08715 6.99857 3.10587 6.97364C3.49147 6.46016 3.90627 5.97363 4.33988 5.50009C4.35965 5.47838 4.37943 5.45666 4.3998 5.43429C4.76282 5.03583 5.12804 4.64021 5.53847 4.28958C5.64429 4.1977 5.74646 4.10228 5.84916 4.00692C6.09877 3.77941 6.3609 3.57109 6.62901 3.3659C6.70081 3.3105 6.7717 3.25411 6.84247 3.1974C7.14459 2.96024 7.40563 2.77279 7.80155 2.79306C8.0475 2.83384 8.24066 2.94018 8.40361 3.12942C8.55629 3.35165 8.61352 3.558 8.58422 3.82582C8.50264 4.23687 8.23887 4.43527 7.91434 4.66992C7.58812 4.90739 7.2836 5.1706 6.98598 5.44269C6.92555 5.49736 6.86485 5.55177 6.80291 5.60474C6.55945 5.8134 6.33097 6.03616 6.10436 6.2628C6.04031 6.32676 5.97592 6.39037 5.91151 6.45396C5.64035 6.72356 5.39495 7.00556 5.15629 7.30478C5.11612 7.35212 5.07567 7.39923 5.03476 7.44594C4.20428 8.39831 3.53535 9.49189 2.95414 10.6107C2.93087 10.6554 2.90761 10.7001 2.88364 10.7461C2.81379 10.9294 2.81255 11.0678 2.88301 11.2518C2.90493 11.2939 2.92685 11.3359 2.94944 11.3793C2.97393 11.4266 2.99842 11.4739 3.02365 11.5227C3.06368 11.5977 3.06368 11.5977 3.10453 11.6742C3.11811 11.6999 3.13169 11.7257 3.14569 11.7522C3.98384 13.3411 5.10661 14.7322 6.37015 16.0006C6.40624 16.0369 6.44232 16.0731 6.47949 16.1105C6.79441 16.4246 7.12531 16.7124 7.47123 16.9915C7.51591 17.0278 7.51591 17.0278 7.5615 17.0648C7.72792 17.1997 7.89578 17.3325 8.06473 17.4642C8.31753 17.6673 8.49426 17.8422 8.55082 18.1759C8.55505 18.4737 8.48417 18.706 8.27639 18.9266C8.06657 19.1155 7.84916 19.1879 7.5674 19.1767C6.8067 19.0713 6.00171 18.1155 5.45707 17.6173C5.43496 17.5971 5.41285 17.5769 5.39007 17.5562C5.02277 17.2208 4.65991 16.8856 4.33552 16.5076C4.24245 16.401 4.14614 16.2977 4.04984 16.1939C3.82462 15.9466 3.61847 15.6872 3.41488 15.422C3.35 15.3379 3.28439 15.2544 3.21866 15.1709C2.78095 14.6115 2.36425 14.0283 2.01957 13.4063C2.00539 13.4063 1.99121 13.4063 1.9766 13.4063C1.84356 14.0309 1.78679 14.6387 1.78592 15.2755C1.78556 15.3234 1.78556 15.3234 1.78518 15.3724C1.77887 16.5409 2.08919 17.6892 2.83597 18.6056C2.865 18.6416 2.89402 18.6777 2.92392 18.7148C3.69419 19.6214 4.81185 20.0579 5.97269 20.1954C6.10915 20.1991 6.24527 20.1964 6.38173 20.1936C6.46104 20.1926 6.54035 20.1917 6.61966 20.1908C6.74327 20.1892 6.86685 20.1873 6.99044 20.1848C7.9817 20.1653 7.9817 20.1653 8.27652 20.4295C8.5031 20.6836 8.52451 20.89 8.51859 21.2209C8.49665 21.4959 8.36836 21.6525 8.1641 21.8282C7.87198 22.006 7.56252 22.0069 7.23037 22.0088C7.19495 22.0091 7.15954 22.0094 7.12305 22.0097C7.00904 22.0105 6.89505 22.0108 6.78104 22.0108C6.7228 22.0109 6.7228 22.0109 6.66338 22.0109C6.10809 22.0103 5.57047 21.9974 5.02738 21.8712C4.99434 21.864 4.9613 21.8569 4.92726 21.8495C3.77581 21.597 2.74144 21.0539 1.89066 20.2384C1.85593 20.2064 1.8212 20.1743 1.78542 20.1414C0.680365 19.0901 0.0453224 17.4732 -0.00875573 15.9592C-0.0140862 15.7393 -0.0143311 15.5196 -0.0133925 15.2996C-0.0132999 15.2607 -0.0132073 15.2217 -0.0131119 15.1815C-0.0108258 14.5813 0.0115139 13.9966 0.128941 13.4063C0.13725 13.3634 0.145558 13.3205 0.154118 13.2763C0.273998 12.6737 0.43829 12.0947 0.652812 11.5187C0.825193 11.0384 0.741051 10.7406 0.572057 10.2723C0.381665 9.7211 0.240977 9.16592 0.128941 8.59384C0.121235 8.55523 0.113529 8.51663 0.10559 8.47685C-0.115622 7.3117 -0.11075 5.96413 0.17191 4.81259C0.179727 4.77948 0.187544 4.74637 0.195598 4.71226C0.558533 3.21706 1.48957 1.8563 2.793 1.03134C2.84009 1.00148 2.88717 0.971629 2.93567 0.940869C4.07863 0.25536 5.35933 -0.026269 6.68303 -0.0167168Z" fill="white"/>
<path d="M10.9035 5.44342C10.9915 5.44356 11.0794 5.44254 11.1673 5.44146C12.1935 5.43659 13.216 5.76877 13.9649 6.48823C14.6188 7.15818 14.9087 8.0467 14.9119 8.9713C14.8915 10.125 14.3172 11.1451 13.7393 12.1118C13.4615 12.5774 13.2238 13.023 13.2196 13.5776C13.2187 13.6255 13.2187 13.6255 13.2177 13.6744C13.2158 13.7756 13.2143 13.8769 13.2129 13.9782C13.1952 15.2998 13.1952 15.2998 12.7131 15.8269C12.5122 16.0059 12.2797 16.1648 12.0202 16.2395C11.8975 16.2718 11.8975 16.2718 11.8611 16.3675C11.8552 16.3997 11.8494 16.4319 11.8433 16.465C11.7699 16.7376 11.5819 16.877 11.3498 17.0228C11.1264 17.1096 10.8286 17.0998 10.6019 17.0275C10.3996 16.9188 10.274 16.7666 10.1729 16.5644C10.139 16.4513 10.134 16.3595 10.1407 16.2421C10.1061 16.2395 10.0715 16.2368 10.0359 16.2341C9.62734 16.1409 9.32035 15.8858 9.08911 15.5462C9.06745 15.5065 9.04579 15.4667 9.02348 15.4257C9.00853 15.3987 8.99359 15.3716 8.97819 15.3438C8.80771 14.9881 8.82716 14.6158 8.82743 14.2307C8.82653 13.6442 8.81263 13.087 8.52665 12.5576C8.50455 12.515 8.50455 12.515 8.482 12.4715C8.31911 12.1623 8.13895 11.8628 7.95992 11.5628C7.30583 10.4631 6.79463 9.32404 7.11137 8.01363C7.38395 7.09258 7.93988 6.39783 8.77902 5.92195C8.98409 5.81257 9.19566 5.73026 9.41557 5.65572C9.44579 5.64546 9.47601 5.6352 9.50714 5.62463C9.966 5.47898 10.4242 5.44188 10.9035 5.44342ZM9.22708 7.7773C8.89227 8.12386 8.77888 8.49924 8.78576 8.97586C8.82643 9.7986 9.41513 10.5787 9.83352 11.2589C9.97973 11.4981 10.1001 11.7352 10.2266 11.9882C10.7371 11.9882 11.2475 11.9882 11.7735 11.9882C11.8497 11.8473 11.9259 11.7064 12.0044 11.5612C12.1696 11.2567 12.3388 10.9558 12.5174 10.6589C12.9447 9.93971 13.286 9.20627 13.0775 8.34965C12.9351 7.92827 12.6394 7.63072 12.2461 7.43355C12.0217 7.32814 11.8055 7.24713 11.5586 7.2187C11.5152 7.21305 11.4718 7.2074 11.427 7.20158C10.6506 7.12218 9.82962 7.24447 9.22708 7.7773ZM10.6133 13.707C10.6133 13.9906 10.6133 14.2742 10.6133 14.5664C10.8827 14.5664 11.1522 14.5664 11.4297 14.5664C11.4297 14.2828 11.4297 13.9992 11.4297 13.707C11.1603 13.707 10.8909 13.707 10.6133 13.707Z" fill="white"/>
<path d="M11.4494 1.15319C11.6945 1.29287 11.852 1.49955 11.9294 1.77036C11.9789 2.06874 11.8988 2.31695 11.7412 2.57015C11.5232 2.78213 11.3692 2.84737 11.0672 2.85751C10.825 2.84889 10.6324 2.81948 10.4414 2.66415C10.2122 2.41139 10.1678 2.1882 10.1719 1.8511C10.1919 1.6255 10.2608 1.4612 10.4294 1.30795C10.7239 1.08832 11.0965 1.03314 11.4494 1.15319Z" fill="white"/>
<path d="M11.4082 19.0289C11.6241 19.1487 11.7644 19.3245 11.8594 19.5507C11.9392 19.8298 11.8955 20.0644 11.7734 20.3241C11.6576 20.5104 11.5111 20.6432 11.3008 20.7109C11.0125 20.7432 10.7279 20.7585 10.4844 20.582C10.2868 20.4119 10.1575 20.255 10.1269 19.9903C10.1163 19.7096 10.1306 19.473 10.3125 19.2499C10.6075 18.9478 11.0119 18.8933 11.4082 19.0289Z" fill="white"/>
</g>
<defs>
<clipPath id="clip0_98_6144">
<rect width="22" height="22" fill="white"/>
</clipPath>
</defs>
</svg>
