<svg width="22" height="22" viewBox="0 0 22 22" fill="none" xmlns="http://www.w3.org/2000/svg">
<g clip-path="url(#clip0_98_6141)">
<path d="M3.2146 -0.0175366C3.26655 -0.0180265 3.31849 -0.0185163 3.37201 -0.019021C3.48136 -0.0198293 3.59071 -0.0203931 3.70006 -0.0207257C3.8667 -0.0215625 4.03325 -0.024233 4.19986 -0.0269361C4.3065 -0.0274971 4.41314 -0.0279484 4.51978 -0.0282788C4.5692 -0.0293399 4.61863 -0.0304009 4.66955 -0.0314941C4.95349 -0.0299326 5.14087 0.0095989 5.37501 0.172954C5.60377 0.409393 5.64848 0.599333 5.64838 0.920154C5.6475 0.965596 5.64661 1.01104 5.64569 1.05786C5.64545 1.10512 5.64521 1.15238 5.64496 1.20107C5.644 1.35124 5.64184 1.50137 5.63965 1.65153C5.63879 1.75366 5.63801 1.8558 5.6373 1.95793C5.63541 2.20762 5.63254 2.45728 5.62891 2.70695C5.67521 2.70659 5.67521 2.70659 5.72245 2.70623C6.47453 2.70053 7.2266 2.69627 7.9787 2.69359C8.34241 2.69227 8.70611 2.69046 9.06982 2.6875C9.38693 2.68493 9.70403 2.68327 10.0212 2.68269C10.189 2.68236 10.3568 2.68157 10.5246 2.67969C10.6828 2.67793 10.8409 2.6774 10.9991 2.67779C11.0844 2.67769 11.1696 2.6763 11.2549 2.67487C11.5966 2.67722 11.8187 2.73087 12.0742 2.96476C12.2712 3.19539 12.2773 3.41986 12.2681 3.71873C12.2258 4.00397 12.0954 4.17298 11.8694 4.34356C11.6298 4.47657 11.3637 4.44818 11.0972 4.44521C11.0375 4.44516 10.9777 4.44519 10.918 4.44529C10.7565 4.44534 10.5951 4.44433 10.4336 4.44313C10.2646 4.44205 10.0956 4.44195 9.9266 4.44175C9.60688 4.44122 9.28717 4.43981 8.96745 4.43808C8.60333 4.43616 8.23922 4.43521 7.8751 4.43435C7.12636 4.43256 6.37764 4.42953 5.62891 4.4257C5.62915 4.46609 5.62939 4.50648 5.62963 4.5481C5.63536 5.53146 5.63959 6.51483 5.64227 7.49821C5.6436 7.97376 5.64541 8.44931 5.64836 8.92486C5.65093 9.33942 5.65259 9.75396 5.65317 10.1685C5.6535 10.388 5.65429 10.6074 5.65617 10.8269C5.65792 11.0336 5.65846 11.2403 5.65807 11.447C5.65814 11.5227 5.65865 11.5984 5.65964 11.6741C5.66823 12.364 5.66823 12.364 5.44012 12.6505C5.19816 12.8894 4.97559 12.9156 4.64399 12.9137C4.58336 12.9145 4.58336 12.9145 4.52151 12.9152C4.39291 12.9168 4.26435 12.9172 4.13575 12.9174C3.12617 12.8796 3.12617 12.8796 2.24512 13.2961C2.21322 13.3324 2.18131 13.3687 2.14844 13.4062C2.1192 13.4372 2.08995 13.4682 2.05982 13.5002C1.79282 13.8877 1.75871 14.2807 1.80469 14.7382C1.8943 15.1067 2.09281 15.4283 2.41129 15.6379C2.85596 15.8888 3.34185 15.8617 3.83744 15.8613C3.90472 15.8614 3.972 15.8615 4.03928 15.8617C4.22367 15.862 4.40806 15.8621 4.59246 15.8621C4.79152 15.8622 4.99058 15.8625 5.18964 15.8628C5.53449 15.8633 5.87933 15.8637 6.22418 15.8639C6.76944 15.8644 7.31471 15.8653 7.85997 15.8662C8.04663 15.8666 8.23329 15.8669 8.41995 15.8672C8.48992 15.8673 8.48992 15.8673 8.5613 15.8674C9.09201 15.8683 9.62272 15.8691 10.1534 15.8699C10.2019 15.87 10.2504 15.87 10.3004 15.8701C11.0864 15.8713 11.8723 15.8721 12.6583 15.8728C13.4657 15.8735 14.2731 15.8748 15.0805 15.8764C15.5782 15.8774 16.076 15.878 16.5737 15.8781C16.915 15.8782 17.2562 15.8788 17.5974 15.8797C17.7941 15.8802 17.9908 15.8805 18.1876 15.8802C18.3679 15.88 18.5483 15.8804 18.7286 15.8812C18.7936 15.8814 18.8586 15.8814 18.9236 15.8811C19.3902 15.8794 19.8049 15.9332 20.2383 16.1132C20.2382 16.0706 20.238 16.028 20.2379 15.9841C20.2351 14.9469 20.2329 13.9098 20.2316 12.8726C20.2309 12.3711 20.23 11.8695 20.2286 11.3679C20.2273 10.9307 20.2264 10.4935 20.2262 10.0563C20.226 9.82484 20.2256 9.59339 20.2247 9.36193C20.2238 9.14394 20.2235 8.92595 20.2237 8.70796C20.2237 8.62809 20.2234 8.54822 20.2229 8.46836C20.218 7.63035 20.218 7.63035 20.4424 7.26969C20.6664 7.05187 20.8244 6.99137 21.1353 6.97697C21.3855 6.98469 21.5454 7.03053 21.7479 7.17587C22.0051 7.45083 22.0249 7.68549 22.0215 8.04861C22.0218 8.09728 22.022 8.14596 22.0223 8.1961C22.0228 8.35905 22.0222 8.52198 22.0216 8.68493C22.0216 8.80182 22.022 8.91871 22.0223 9.03561C22.0229 9.32012 22.0225 9.60461 22.0219 9.88912C22.0212 10.2208 22.0213 10.5524 22.0215 10.8841C22.0217 11.4762 22.0211 12.0683 22.0201 12.6604C22.019 13.2342 22.0187 13.808 22.0192 14.3818C22.0197 15.0071 22.0197 15.6324 22.0191 16.2578C22.0191 16.3246 22.019 16.3913 22.0189 16.4581C22.0189 16.491 22.0189 16.5238 22.0188 16.5577C22.0186 16.7885 22.0187 17.0194 22.0189 17.2502C22.0191 17.5319 22.0188 17.8136 22.018 18.0953C22.0176 18.2389 22.0174 18.3825 22.0177 18.526C22.0179 18.6821 22.0174 18.8382 22.0167 18.9943C22.017 19.0614 22.017 19.0614 22.0174 19.1299C22.0137 19.5657 21.9191 19.9782 21.7207 20.3671C21.6988 20.4104 21.6988 20.4104 21.6765 20.4545C21.5151 20.7572 21.3 20.9899 21.0547 21.2265C21.0139 21.2693 21.0139 21.2693 20.9723 21.3129C20.7965 21.4856 20.5952 21.5979 20.3779 21.7099C20.3508 21.724 20.3237 21.7382 20.2957 21.7528C19.832 21.9801 19.3606 22.0208 18.8507 22.0216C18.7888 22.022 18.7269 22.0224 18.6649 22.0229C18.5361 22.0236 18.4073 22.0239 18.2785 22.0238C18.1144 22.0238 17.9503 22.0256 17.7862 22.0278C17.6587 22.0292 17.5312 22.0295 17.4037 22.0294C17.3432 22.0296 17.2827 22.0301 17.2222 22.0311C16.8904 22.0361 16.6385 22.0237 16.364 21.8268C16.1372 21.5832 16.088 21.3778 16.0938 21.0561C16.0937 21.0188 16.0937 20.9814 16.0937 20.943C16.0938 20.8204 16.0951 20.6979 16.0965 20.5754C16.0968 20.4901 16.0971 20.4048 16.0972 20.3195C16.0979 20.0956 16.0996 19.8718 16.1015 19.6479C16.1032 19.4192 16.104 19.1905 16.1049 18.9618C16.1067 18.5136 16.1097 18.0653 16.1133 17.6171C16.0851 17.6172 16.0569 17.6172 16.0278 17.6173C14.3539 17.6212 12.68 17.6241 11.0061 17.6259C10.805 17.6261 10.6038 17.6263 10.4026 17.6265C10.3625 17.6266 10.3225 17.6266 10.2812 17.6267C9.63352 17.6274 8.98585 17.6288 8.33818 17.6304C7.67312 17.632 7.00806 17.6329 6.34299 17.6333C5.93294 17.6335 5.5229 17.6343 5.11285 17.6357C4.83128 17.6366 4.54972 17.6368 4.26815 17.6366C4.10594 17.6365 3.94374 17.6367 3.78154 17.6376C2.5313 17.6444 2.5313 17.6444 2.01954 17.4452C1.98752 17.4332 1.9555 17.4211 1.92251 17.4087C1.57123 17.2638 1.26933 17.0533 0.988285 16.8007C0.948903 16.7673 0.948903 16.7673 0.908726 16.7332C0.399394 16.2704 0.0397559 15.5219 -0.00806343 14.8376C-0.0112681 14.7064 -0.0118647 14.5755 -0.0114872 14.4443C-0.0116819 14.3943 -0.0118767 14.3442 -0.0120773 14.2926C-0.0125252 14.1546 -0.0125917 14.0167 -0.0124901 13.8787C-0.0124724 13.7294 -0.0129477 13.5802 -0.0133545 13.431C-0.0140666 13.139 -0.0143044 12.847 -0.0143524 12.555C-0.0143934 12.3175 -0.0145706 12.0799 -0.0148425 11.8424C-0.0155989 11.1679 -0.0159958 10.4934 -0.0159312 9.81888C-0.0159278 9.78256 -0.0159243 9.74624 -0.0159207 9.70882C-0.0159172 9.67246 -0.0159139 9.63609 -0.0159103 9.59863C-0.0158754 9.00975 -0.0166972 8.42087 -0.0179093 7.83199C-0.0191461 7.22635 -0.019737 6.62071 -0.0196629 6.01506C-0.0196344 5.67544 -0.0198668 5.33582 -0.0207952 4.99619C-0.0215808 4.70694 -0.0217623 4.41771 -0.0211814 4.12846C-0.0209023 3.98113 -0.02089 3.83381 -0.0216413 3.68648C-0.0263851 2.54741 -0.0263851 2.54741 0.171879 2.01945C0.189942 1.97121 0.189942 1.97121 0.208369 1.92199C0.353987 1.571 0.563736 1.26929 0.81641 0.988201C0.838676 0.961946 0.860943 0.935692 0.883884 0.908641C1.48001 0.252608 2.35572 -0.0111899 3.2146 -0.0175366ZM2.10547 2.19133C1.76521 2.58572 1.71157 3.0312 1.71359 3.53578C1.71355 3.56994 1.71351 3.60409 1.71348 3.63929C1.71341 3.75283 1.71364 3.86636 1.71388 3.9799C1.71389 4.06165 1.71388 4.14341 1.71386 4.22516C1.71384 4.44646 1.7141 4.66776 1.7144 4.88905C1.71467 5.12056 1.71469 5.35207 1.71474 5.58358C1.71488 6.02169 1.71523 6.4598 1.71566 6.89791C1.71614 7.3968 1.71638 7.89569 1.71659 8.39459C1.71704 9.42058 1.7178 10.4466 1.71875 11.4726C1.75631 11.4609 1.75631 11.4609 1.79462 11.4489C2.54285 11.2195 3.07889 11.2005 3.91016 11.1718C3.91016 8.05226 3.91016 4.93273 3.91016 1.71867C2.91111 1.70166 2.91111 1.70166 2.10547 2.19133ZM17.832 17.6171C17.832 18.4962 17.832 19.3754 17.832 20.2812C18.9305 20.3492 18.9305 20.3492 19.884 19.9131C20.1695 19.6047 20.2673 19.284 20.2645 18.8674C20.2473 18.5058 20.1037 18.1888 19.8381 17.9394C19.2407 17.4923 18.5704 17.6171 17.832 17.6171Z" fill="white"/>
<path d="M20.4531 0.171806C20.4898 0.185875 20.5264 0.199944 20.5641 0.214439C21.2142 0.494949 21.646 1.10054 21.9131 1.73194C22.112 2.31283 22.0692 3.04968 21.8281 3.60931C21.8141 3.64592 21.8 3.68253 21.7855 3.72025C21.6905 3.94044 21.5617 4.1044 21.3989 4.27971C21.3781 4.30214 21.3572 4.32457 21.3358 4.34768C21.1163 4.58296 20.8907 4.81219 20.6639 5.04037C20.6183 5.0863 20.5728 5.13224 20.5273 5.17819C20.3801 5.32677 20.2326 5.47514 20.0851 5.62347C20.0598 5.64886 20.0346 5.67425 20.0085 5.70041C19.7698 5.94042 19.5311 6.18034 19.2921 6.42006C18.9883 6.72483 18.6849 7.03004 18.382 7.33583C18.1679 7.552 17.9533 7.76766 17.7383 7.98297C17.6103 8.11113 17.4826 8.2395 17.3554 8.36842C17.236 8.48947 17.1159 8.60989 16.9953 8.72986C16.9514 8.77377 16.9077 8.8179 16.8643 8.86227C16.6054 9.12641 16.3845 9.30617 16.0274 9.41009C15.9982 9.41951 15.9691 9.42893 15.9391 9.43863C15.8559 9.46496 15.7724 9.489 15.6884 9.51243C15.6574 9.52126 15.6265 9.53008 15.5946 9.53918C15.4938 9.56781 15.393 9.59607 15.2922 9.62426C15.2399 9.63896 15.2399 9.63896 15.1865 9.65395C15.002 9.70576 14.8174 9.75729 14.6328 9.80858C14.4437 9.86114 14.2549 9.91465 14.0662 9.96838C13.9195 10.01 13.7726 10.0509 13.6256 10.0916C13.556 10.111 13.4864 10.1306 13.417 10.1506C12.4422 10.4296 12.4422 10.4296 12.039 10.2621C11.8098 10.13 11.6712 9.96517 11.6016 9.71087C11.5467 9.24432 11.6736 8.84221 11.8132 8.40485C11.8351 8.33424 11.857 8.26361 11.8788 8.19296C11.9359 8.00843 11.9939 7.82422 12.0522 7.64005C12.0995 7.49 12.1461 7.33973 12.1927 7.18946C12.2893 6.87796 12.3863 6.5666 12.4845 6.25561C12.4933 6.22759 12.5021 6.19957 12.5111 6.1707C12.7083 5.54878 13.0484 5.20072 13.5173 4.76554C13.9431 4.36732 14.3536 3.95447 14.7641 3.54063C14.8692 3.43477 14.9745 3.32909 15.0798 3.22341C15.4361 2.86571 15.7921 2.50781 16.1478 2.14948C16.3456 1.95016 16.5437 1.75108 16.742 1.55225C16.8463 1.44767 16.9505 1.34298 17.0543 1.23799C17.1698 1.12133 17.2858 1.00508 17.4018 0.88891C17.4354 0.854756 17.469 0.820602 17.5037 0.785413C17.7967 0.493399 18.0956 0.268059 18.49 0.136894C18.5655 0.111221 18.5655 0.111221 18.6426 0.0850291C19.2184 -0.094951 19.8994 -0.066746 20.4531 0.171806ZM18.6914 2.14837C19.0743 2.53122 19.4571 2.91407 19.8516 3.30852C20.1544 3.06558 20.1544 3.06558 20.2534 2.71687C20.2658 2.45832 20.25 2.25983 20.0921 2.04917C19.8922 1.83752 19.7157 1.74887 19.4219 1.73479C19.0792 1.74953 18.8933 1.87922 18.6914 2.14837ZM17.1157 3.66263C17.0857 3.69122 17.0557 3.71981 17.0248 3.74927C16.7453 4.01653 16.4683 4.2863 16.1919 4.55683C16.0066 4.73815 15.8207 4.91858 15.6326 5.09703C14.4143 6.23876 14.4143 6.23876 13.8789 7.77727C13.8523 7.90672 13.8227 8.03521 13.793 8.16399C14.0372 8.10958 14.2805 8.05185 14.5235 7.99212C14.5623 7.98268 14.6011 7.97324 14.6411 7.96352C14.7606 7.93391 14.8797 7.90279 14.9988 7.87127C15.0361 7.86218 15.0733 7.85309 15.1117 7.84372C15.3036 7.79137 15.4435 7.73186 15.5918 7.59734C15.6215 7.57045 15.6512 7.54356 15.6817 7.51586C15.8132 7.39258 15.9418 7.26688 16.0689 7.13905C16.0966 7.11134 16.1243 7.08364 16.1529 7.05509C16.2432 6.96476 16.3333 6.87428 16.4235 6.78379C16.4866 6.72063 16.5496 6.65748 16.6128 6.59433C16.7779 6.42906 16.9428 6.26366 17.1078 6.09824C17.2765 5.92908 17.4453 5.76004 17.6142 5.59099C17.9447 5.25997 18.2752 4.92882 18.6055 4.59759C18.5649 4.54986 18.5242 4.50217 18.4835 4.45451C18.4609 4.42795 18.4383 4.40139 18.4149 4.37403C18.3229 4.26843 18.2256 4.16913 18.1266 4.07004C18.0671 4.01043 18.0671 4.01043 18.0064 3.94962C17.9861 3.92948 17.9659 3.90934 17.9451 3.88859C17.8823 3.82607 17.8198 3.76331 17.7573 3.70053C17.7179 3.66118 17.6785 3.62182 17.6378 3.58128C17.6019 3.54539 17.566 3.5095 17.5289 3.47252C17.3559 3.31094 17.2521 3.53193 17.1157 3.66263Z" fill="white"/>
</g>
<defs>
<clipPath id="clip0_98_6141">
<rect width="22" height="22" fill="white"/>
</clipPath>
</defs>
</svg>
